<?xml version="1.0" encoding="UTF-8"?>
<svg id="Section_3" xmlns="http://www.w3.org/2000/svg" version="1.1" viewBox="0 0 354.1 241.2">
  <!-- Generator: Adobe Illustrator 29.0.0, SVG Export Plug-In . SVG Version: 2.1.0 Build 186)  -->
  <defs>
    <style>
      .st0 {
        fill: none;
        stroke: #4c473d;
        stroke-miterlimit: 10;
        stroke-width: 3px;
      }

      .st1 {
        fill: #221f1f;
      }

      .st2 {
        fill: #fff;
      }

      .st3 {
        fill: #f1ebe0;
      }

      .st4 {
        fill: #513824;
      }

      .st5 {
        fill: #f8f2e8;
      }

      .st6 {
        fill: #4c473d;
      }
    </style>
  </defs>
  <path class="st4" d="M197.3,194.2c19.8,6.8,41.2,9.4,62,6.8,28.9-3.6,56.6-18.1,73.1-42.7,8-11.9,12-25,14.2-39.1,2.2-13.8,4.1-28.8.2-42.5h0c-.1-3.1-1.1-2.6-1.1-6.1,0-41.7-44.8-68.7-101.5-68.7s-95,34.5-102.6,75.5c-5.2,28.1-4.5,42.8.3,54.9l55.3,61.7"/>
  <path class="st0" d="M197.3,194.2c19.8,6.8,41.2,9.4,62,6.8,28.9-3.6,56.6-18.1,73.1-42.7,8-11.9,12-25,14.2-39.1,2.2-13.8,4.1-28.8.2-42.5h0c-.1-3.1-1.1-2.6-1.1-6.1,0-41.7-44.8-68.7-101.5-68.7s-95,34.5-102.6,75.5c-5.2,28.1-4.5,42.8.3,54.9l55.3,61.7"/>
  <path class="st4" d="M208.9,109.1c4.9,12.1,5.5,26.8.3,54.9-7.5,41-45.9,75.5-102.6,75.5S4.1,205.7,4.1,164s-.7,3.6,0,0"/>
  <path class="st6" d="M209,109c2.7,6.6,3.9,13.7,4,20.8.2,7.1-.4,14.2-1.3,21.2-.2,1.8-.5,3.5-.7,5.3-.3,1.7-.5,3.5-.8,5.2-.5,3.5-1.3,7-2.2,10.4-2,6.8-4.7,13.5-8.2,19.6-7.1,12.4-17.2,22.9-29.1,30.8-5.9,4-12.3,7.2-18.9,9.9-6.6,2.7-13.5,4.7-20.5,6-14,2.7-28.4,3.1-42.5,1.4-7.1-.9-14.1-2.3-20.9-4.3-6.8-2.1-13.5-4.7-19.9-7.9-6.3-3.3-12.4-7.2-17.9-11.7-2.7-2.3-5.4-4.7-7.8-7.3-1.3-1.3-2.4-2.6-3.6-4-.6-.7-1.1-1.4-1.6-2.1-.5-.7-1.1-1.4-1.6-2.2-1-1.5-2-2.9-2.9-4.5-1-1.5-1.7-3.1-2.6-4.7-1.5-3.2-2.9-6.5-3.9-10l-.4-1.3c-.1-.4-.2-.9-.3-1.3l-.6-2.6-.4-2.6c0-.4-.1-.9-.2-1.3v-1.3c-.2-.9-.3-1.8-.3-2.7v-2.7c0-.4,0-.9,0-1.3,0-.2,0-.4,0-.6,0,0,0,0,0,0,.4.1.3-.1.3,0,0,0,0,0,0,.1v.3c-.1.4-.2.9-.2,1.3h0c0,.2,0,.2,0,.1-.3,0-.2,0-.2,0,0,0,0-.2,0-.3l.2-.6h.2s-.1.7-.1.7c0,.1,0,.2,0,.3,0,0,0,.2-.3,0,0-.1,0-.1,0-.2,0,0,0-.1,0-.2,0-.5,0-.9,0-1.3v-.3c0,0,0-.1,0-.2,0,0,0-.3.4-.1,0,.1,0,.1,0,.2,0,.3,0,.5,0,.7,0,.4,0,.9,0,1.3v2.6c.2.9.3,1.7.4,2.6l.2,1.3c0,.4.2.9.2,1.3l.5,2.6.7,2.5c.1.4.2.8.3,1.3l.4,1.2c1,3.3,2.5,6.5,4.1,9.7.8,1.5,1.7,3.1,2.6,4.5.9,1.5,1.9,2.9,3,4.3,4.2,5.6,9.1,10.6,14.6,14.9,5.5,4.3,11.4,8,17.7,11.2,6.2,3.2,12.8,5.7,19.5,7.7,6.7,2,13.6,3.5,20.5,4.4,13.9,1.8,28.1,1.7,41.8-.9,6.9-1.3,13.7-3.2,20.2-5.8,6.5-2.6,12.8-5.7,18.7-9.6,11.7-7.7,21.8-17.9,28.9-30,3.6-6,6.4-12.5,8.4-19.3.9-3.4,1.7-6.8,2.3-10.3.3-1.7.6-3.5.9-5.2.3-1.7.6-3.5.8-5.2,1-7,1.7-14,1.6-21.1,0-7-1.1-14.1-3.8-20.7h.2Z"/>
  <path class="st3" d="M209.8,111.3c5.5,20-36.2,48.9-93,64.4-56.8,15.5-107.3,11.8-112.8-8.2-5.5-20,36.2-48.9,93-64.4,56.8-15.5,107.3-11.8,112.8,8.2"/>
  <path class="st1" d="M209.9,111.3c.7,2.4.6,5,0,7.5-.6,2.4-1.7,4.7-2.9,6.9-2.6,4.3-6,8-9.8,11.4-7.4,6.7-15.9,12.2-24.6,17.1-8.8,4.8-17.9,9-27.2,12.7-9.3,3.7-18.8,6.8-28.5,9.5-9.7,2.6-19.4,4.9-29.3,6.5-9.9,1.7-19.9,2.8-29.9,3.2-10,.3-20.1,0-30-2-4.9-1-9.8-2.5-14.4-4.9-2.2-1.2-4.4-2.7-6.2-4.6-1.8-1.9-3.3-4.2-4-6.8-.7-2.6-.7-5.4,0-7.9.6-2.6,1.7-4.9,3-7.2,2.7-4.4,6.1-8.2,9.9-11.6,7.5-6.8,16-12.3,24.8-17.2,17.7-9.6,36.6-16.7,56-21.9,9.7-2.5,19.5-4.7,29.4-6.2,9.9-1.5,19.9-2.5,29.9-2.7,10-.2,20.1.3,29.9,2.4,4.9,1,9.7,2.6,14.2,4.9,2.2,1.2,4.3,2.7,6,4.5,1.7,1.8,3.1,4,3.8,6.5M209.6,111.4c-.7-2.4-2-4.5-3.8-6.3-1.7-1.8-3.8-3.2-6-4.4-4.4-2.3-9.2-3.8-14.1-4.7-9.8-1.9-19.8-2.1-29.7-1.7-9.9.5-19.8,1.7-29.6,3.4-9.8,1.7-19.5,3.9-29.1,6.6-9.6,2.7-19.1,5.7-28.3,9.3-9.3,3.6-18.4,7.6-27.1,12.4-8.7,4.7-17.1,10.1-24.5,16.7-3.7,3.3-7,6.9-9.6,11.1-1.2,2.1-2.2,4.3-2.8,6.6-.6,2.3-.6,4.7,0,6.9.6,2.2,1.9,4.3,3.5,6,1.6,1.7,3.6,3.1,5.7,4.3,4.3,2.3,9,3.8,13.9,4.8,9.7,2,19.7,2.4,29.6,2.1,9.9-.3,19.9-1.4,29.7-3,9.8-1.6,19.6-3.7,29.2-6.3,9.6-2.6,19.2-5.6,28.5-9.1,9.3-3.5,18.5-7.6,27.3-12.3,8.7-4.8,17.3-10.1,24.7-16.8,3.7-3.3,7.1-7.1,9.7-11.3,1.3-2.1,2.3-4.4,2.9-6.8.6-2.4.7-5,0-7.4"/>
  <path class="st2" d="M171.9,121.1c3.6,13.1-23.6,31.9-60.7,42-37.1,10.1-70.1,7.7-73.6-5.4-3.6-13.1,23.6-31.9,60.7-42,37.1-10.1,70-7.7,73.6,5.4"/>
  <path class="st1" d="M172.1,121.1c.4,1.6.4,3.3,0,4.9-.4,1.6-1.1,3.1-1.9,4.5-1.7,2.8-3.9,5.2-6.4,7.4-4.8,4.4-10.4,8-16.1,11.2-11.4,6.3-23.7,11-36.3,14.6-12.6,3.5-25.6,5.9-38.7,6.4-6.6.2-13.2,0-19.7-1.3-3.2-.6-6.5-1.6-9.5-3.2-1.5-.8-2.9-1.8-4.2-3.1-1.2-1.2-2.2-2.8-2.7-4.6-.5-1.8-.4-3.6,0-5.3.4-1.7,1.1-3.3,2-4.8,1.8-2.9,4-5.4,6.5-7.7,4.9-4.5,10.5-8.1,16.3-11.3,5.8-3.2,11.8-5.9,17.9-8.3,6.1-2.4,12.4-4.4,18.7-6.1,6.4-1.6,12.8-3,19.3-4,6.5-1,13-1.5,19.6-1.7,6.6,0,13.1.3,19.6,1.7,3.2.7,6.4,1.7,9.3,3.3,1.4.8,2.8,1.8,3.9,3,1.1,1.2,2,2.6,2.5,4.2M171.8,121.1c-.4-1.6-1.3-3-2.5-4.1-1.1-1.1-2.5-2.1-3.9-2.8-2.9-1.5-6-2.4-9.2-3-6.4-1.2-12.9-1.3-19.4-1-6.5.4-12.9,1.2-19.3,2.4-6.4,1.1-12.7,2.6-18.9,4.4-6.2,1.7-12.4,3.7-18.4,6.1-6,2.3-12,5-17.6,8-5.7,3.1-11.2,6.5-15.9,10.8-2.4,2.1-4.5,4.5-6.2,7.1-.8,1.3-1.4,2.7-1.8,4.2-.4,1.4-.4,2.9,0,4.3.4,1.4,1.2,2.7,2.2,3.8,1,1.1,2.3,2,3.7,2.7,2.8,1.5,5.8,2.4,9,3.1,6.3,1.3,12.8,1.6,19.3,1.4,13-.4,25.9-2.7,38.4-6,12.6-3.3,24.9-7.8,36.4-13.9,5.7-3.1,11.3-6.6,16.1-10.9,2.4-2.2,4.6-4.6,6.3-7.4.8-1.4,1.5-2.9,1.9-4.5.4-1.6.4-3.2,0-4.8"/>
  <path class="st5" d="M189.2,191c-2.5,3.9-5.4,7.6-8.5,11.2-3.1,3.5-6.6,6.7-10.2,9.7-3.6,3-7.4,5.9-11.6,8.1-4.2,2.2-8.5,4.1-13.1,5.2,0,0-.1,0-.2,0,0,0,0-.1,0-.1,4-2.4,8-4.7,11.9-7.1,3.9-2.5,7.9-4.7,11.6-7.5,3.7-2.7,7.2-5.7,10.5-9,3.3-3.2,6.4-6.7,9.2-10.4,0,0,.1,0,.2,0,0,0,0,.1,0,.2"/>
  <path class="st5" d="M271.5,58.9c.9,3.2-1.8,6.8-6,7.9-4.2,1.1-8.3-.5-9.2-3.8-.9-3.2,1.8-6.8,6-7.9,4.2-1.1,8.3.5,9.2,3.8"/>
  <path class="st6" d="M271.6,58.9c.5,1.9-.2,3.8-1.3,5.3-1.1,1.5-2.8,2.7-4.7,3.3-1.9.6-3.9.7-5.8,0-1-.3-1.9-.8-2.7-1.5-.8-.7-1.5-1.6-1.8-2.7-.3-1.1-.3-2.2,0-3.3.3-1.1.8-2,1.5-2.9,1.3-1.7,3.2-2.7,5.2-3.2,2-.5,4.2-.2,6,.7,1.8.9,3.2,2.4,3.7,4.3M271.3,59c-.3-.9-.8-1.6-1.5-2.1-.7-.5-1.5-.8-2.4-1-1.7-.3-3.3,0-4.9.5-1.5.5-2.9,1.3-4,2.4-1.1,1.1-1.7,2.6-1.4,4,.3,1.4,1.5,2.6,3.1,3.2,1.5.6,3.3.6,5,.3,1.7-.4,3.3-1.1,4.6-2.4.6-.6,1.1-1.4,1.4-2.2.3-.9.3-1.8,0-2.6"/>
  <path class="st5" d="M303.6,75.8c.9,3.2-1.8,6.8-6,7.9-4.2,1.1-8.3-.5-9.2-3.8-.9-3.2,1.8-6.8,6-7.9,4.2-1.1,8.3.5,9.2,3.8"/>
  <path class="st1" d="M303.7,75.7c.5,1.8-.2,3.8-1.3,5.3-1.1,1.5-2.8,2.7-4.7,3.3-1.9.6-3.9.7-5.8,0-1-.3-1.9-.8-2.7-1.5-.8-.7-1.4-1.6-1.8-2.7-.3-1.1-.3-2.2,0-3.3.3-1.1.8-2,1.5-2.9,1.3-1.7,3.2-2.7,5.2-3.2,2-.5,4.2-.2,6,.7,1.8.9,3.2,2.4,3.7,4.3M303.5,75.8c-.3-.9-.8-1.6-1.5-2.1-.7-.5-1.5-.8-2.4-1-1.7-.3-3.3,0-4.9.5-1.5.5-2.9,1.3-4,2.4-1.1,1.1-1.7,2.6-1.4,4,.3,1.4,1.5,2.6,3.1,3.2,1.5.6,3.3.6,5,.3,1.7-.4,3.3-1.1,4.6-2.4.6-.6,1.1-1.4,1.4-2.2.3-.8.3-1.8,0-2.6"/>
  <path class="st5" d="M264.2,83.7c.9,3.2-1.8,6.8-6,7.9-4.2,1.1-8.3-.5-9.2-3.8-.9-3.2,1.8-6.8,6-7.9,4.2-1.1,8.3.5,9.2,3.8"/>
  <path class="st6" d="M264.3,83.7c.5,1.9-.2,3.8-1.3,5.3-1.1,1.5-2.8,2.7-4.7,3.3-1.9.6-3.9.7-5.8,0-1-.3-1.9-.8-2.7-1.5-.8-.7-1.5-1.6-1.8-2.7-.3-1.1-.3-2.2,0-3.3.3-1.1.8-2,1.5-2.9,1.3-1.7,3.2-2.7,5.2-3.2,2-.5,4.2-.2,6,.7,1.8.9,3.2,2.4,3.7,4.3M264.1,83.7c-.3-.9-.8-1.6-1.5-2.1-.7-.5-1.5-.8-2.4-1-1.7-.3-3.3,0-4.9.5-1.5.5-2.9,1.3-4,2.4-1.1,1.1-1.7,2.6-1.4,4,.3,1.4,1.5,2.6,3.1,3.2,1.5.6,3.3.6,5,.3,1.7-.4,3.3-1.1,4.6-2.4.6-.6,1.1-1.4,1.4-2.2.3-.8.3-1.8,0-2.6"/>
</svg>