<?xml version="1.0" encoding="UTF-8"?>
<svg id="Section_3" xmlns="http://www.w3.org/2000/svg" version="1.1" viewBox="0 0 92.2 90.5">
  <!-- Generator: Adobe Illustrator 29.0.0, SVG Export Plug-In . SVG Version: 2.1.0 Build 186)  -->
  <defs>
    <style>
      .st0 {
        fill: #fff;
      }
    </style>
  </defs>
  <path class="st0" d="M88.3,35.5c-.5-.3-.9-.5-1.4-.6h0c-1-.5-2-.9-2.9-1.3-1.8-.7-3.7-1.4-5.5-2.2-1.6-.7-3.3-2.2-5.2-1.7-.8.2-1.3.8-2,1.1-2,.8-4.7,0-6.4-1.1-.9-.6-2-1.7-2.3-3.4-.2-.9-.2-1.8-.3-2.7,0-.6.2-1.8-.6-2-.2,0-.4,0-.7,0h0c-2.3-.3-2.9-3.3-1-4.6.4-.2.7-.5,1-1,.5-.9.5-2,0-2.9-.2-.5-.3-1.1-.5-1.7-1.3-4.2-3.3-10.5-8.5-9.9-6.3.2-14,12.5-16.8,17.2-.2.3-.4.4-.7.4-.6,0-1.5-.2-2.6-.3-.4,0-.7,0-.8,0-4.6-.4-10-.8-15.3-1.4h-.3c-5.9-.6-6.4-.5-11.4,2.9-1.5,1-2.4,2.3-2.7,3.7-.2.5-.3,1,0,1.5,0,1,.5,2,1.1,3l.5.8c3.4,5,6.8,10,10.1,15,.8,1.2,1.6,2.4,2.3,3.5l.3.5c0,0,.3.4.4.6,0,0,0,0,0,.2-1.3,3.7-2.5,7.4-3.7,10.9-1.1,3.3-2.2,6.6-3.4,10.1-.9,2.5-.3,4.3.5,5.6,0,.2.2.3.3.4h0c0,0,0,.2,0,.3,1.5,1.6,3.5,2.1,6,1.5,2.8-.7,5.6-1.5,8.3-2.2,4.2-1.1,8.5-2.2,12.8-3.4h0c0,0,18.3,15.7,18.3,15.7l.2.2c1.4,1.2,2.6,1.7,3.9,1.7s2.4-.5,3.7-1.4c.3-.2.7-.5,1-.7.6-.4,1.2-.8,1.7-1.2,1.9-1.2,2.9-3,2.9-5.4v-23.4s0,0,.3-.2c7.4-4.7,13.4-8.6,19-12.3,1.6-1,2.5-2.8,2.5-4.6.4-2.2-.6-4-2.3-5ZM15.1,20.7h.3c5.4.6,10.8,1,15.4,1.4,0,0,.3,0,.6,0,.4,0,.8,0,1.2.2-.2.3-.4.5-.6.8-.7,1.1-4.2.7-5.5.6-3.7-.4-7.8-.6-11.8-.7-2.6,0-5.4-.3-7.9-.4,3.5-2.5,3.8-2.5,8.3-2ZM65.6,57.7v23.2c0,1.3-.4,1.7-1.1,2.1-.7.4-1.3.9-2,1.3-.3.2-.6.4-.9.6v-.2c0-.3,0-.4,0-.5v-23.9c0-1.3.6-2.7,1.4-3.2,1.1-.7,2.3-1.5,3.4-2.2-.7.8-.9,1.7-.9,2.8ZM54.1,8c-2.5,1.5-5.6,4.9-6.7,7.5-.9,2.1-1.5,4.4-1,6.7.6,2.9,1.9,5.6,4.5,7.2.2,0,.4.4.4.6,1,4.7,4,8.6,8.3,10.5,3.7,1.7,7.8,1.6,11.2,0,1.7.7,3.5,1.4,5.3,2.1.7.3.8,1.2.2,1.6l-1.4.9c-4.6,3-9.2,6-13.8,9-2.1,1.4-3.1,4.2-3.1,6.4v21c0,.7-.8,1.1-1.3.6-4.5-3.7-10.8-8.9-14.9-12.4-1.2-1-2.9-1.3-4.6-1.3s-3,.3-3.8.5c-5.3,1.5-10.7,2.9-16,4.3l-1.7.5c-.6.2-3.7-.3-3.1-2.1l.9-2.9,1.1-3.3c1.5-4.5,3-8.9,4.5-13.4.7-1.9,1.5-4,.4-5.5,0,0,0-.2-.2-.3-1-1.4-2-2.9-2.9-4.4-1.4-2.2-2.9-4.6-4.3-6.9-1.5-2.4-3-5-4.6-7.4-.3-.5,0-1.2.7-1.2,2.1,0,4.3.2,6.4.3,3.9.2,8,.4,11.6.7,2.4.2,7,.7,9-2.2.6-.8,1.1-1.6,1.7-2.4,2.1-3,4.3-6,6.4-8.9,1-1.4,2.1-2.9,3.1-4.3.8-1.1,1.7-3.1,3.1-3.6.9-.3,2.2,0,3,.6M82.7,40c-.7.4-1.6.5-2.4.2-2.7-1.1-6-2.4-8.4-3.3-1.1-.4-2.2,0-2.6.2-2.5,1.3-5.4,1.3-8.1,0-3-1.4-5.2-4-6-7.3-.4-1.6-1.4-2.9-2.7-3.9-1.3-1-2.1-2.4-2.2-4-.2-2.2,0-4.1,1.2-5.7,1.4-1.8,3.3-3.8,4.8-5.6,0,0,.6,1.3.6,1.5.3.7.8,1.6,0,2.2s-1.6,1-2.1,1.7c-.8,1-1.1,2.2-.9,3.5.4,2.4,1.8,4.1,4,5,.2,0,.4,0,.5.2,0,.7,0,1.5.3,2.2.4,2.4,1.8,4.4,3.8,5.9,2.4,1.7,5.7,2.3,8.7,1.7h.2c.7,0,1.8-.3,2.6-1.1.2,0,.4.2.6.3.4.2.8.5,1.4.7,2.2.9,4.4,1.8,6.5,2.6,1,.4,1.8.7,2.8,1.1h.3c0,0-3,1.8-3,1.8Z"/>
</svg>