<?xml version="1.0" encoding="UTF-8"?>
<svg id="Section_3" xmlns="http://www.w3.org/2000/svg" version="1.1" xmlns:xlink="http://www.w3.org/1999/xlink" viewBox="0 0 175 168">
  <!-- Generator: Adobe Illustrator 29.0.0, SVG Export Plug-In . SVG Version: 2.1.0 Build 186)  -->
  <defs>
    <style>
      .st0 {
        clip-path: url(#clippath-4);
      }

      .st1 {
        fill: none;
      }

      .st2 {
        clip-path: url(#clippath-1);
      }

      .st3 {
        fill: #f9f4e9;
        fill-rule: evenodd;
      }

      .st4 {
        fill: #00a99d;
      }

      .st5 {
        clip-path: url(#clippath);
      }
    </style>
    <clipPath id="clippath">
      <rect class="st1" x="-817.8" y="-4497.2" width="1920" height="5687"/>
    </clipPath>
    <clipPath id="clippath-1">
      <rect class="st1" x="-817.8" y="-4497.2" width="1920" height="5687"/>
    </clipPath>
    <clipPath id="clippath-4">
      <rect class="st1" x="-817.8" y="-4497.2" width="1920" height="5687"/>
    </clipPath>
  </defs>
  <g class="st5">
    <path class="st4" d="M100.4,160.6c-5.2-2-10.3.3-11.7,1.1-11.2,5.9-24.7,6-37,.4-13.7-6.2-23.7-18.4-27.5-33.5-1.8-7.3-6.5-13.3-12.5-17.9-6-4.7-9.7-11.1-10.3-18.4-.8-9.9,0-18.7,5.6-26.1,6.4-8.3,18.8-21.4,25.5-29.4"/>
  </g>
  <g class="st2">
    <path class="st4" d="M174.9,81.6c0,43.8-35.5,79.4-79.4,79.4S16.1,125.5,16.1,81.6,51.6,2.2,95.5,2.2s79.4,35.6,79.4,79.4"/>
  </g>
  <g class="st0">
    <path class="st3" d="M101.8,56.8c2.8-.1,5.6,0,8.4,0h1.2v-14.5c-1.5-.1-3.1-.4-4.6-.4-2.9-.1-5.7-.3-8.6-.2-4.4.1-8.5,1.2-12.2,3.8-4.2,3-6.4,7.2-7.3,12.1-.4,2-.5,4.2-.5,6.2,0,3.3,0,6.5,0,9.8v1.2h-13.9v16.2h13.8v40.8h16.9v-40.8h13.8c.7-5.4,1.4-10.8,2.1-16.3h-16s0-8.1,0-11.5c0-4.8,3-6.3,6.8-6.4"/>
  </g>
</svg>