<?xml version="1.0" encoding="UTF-8"?>
<svg id="Capa_1" xmlns="http://www.w3.org/2000/svg" version="1.1" viewBox="0 0 16 16">
  <!-- Generator: Adobe Illustrator 29.0.0, SVG Export Plug-In . SVG Version: 2.1.0 Build 186)  -->
  <path d="M10.6651611,10.5891724c.0067139,1.0249023.0054932,2.0500488.0040283,3.0749512l-.0010986,1.0236206c0,.0220947-.0014648.0445557-.0087891.0897217l-.0046387.0296021c.052124-.0352783.1033936-.0713501.1546631-.1075439.1073608-.0760498.2185059-.1544189.3380737-.2260742.1176147-.0703735.1854858-.1531372.1846313-.3685303-.0022583-.6343384-.0010376-1.2684326.0002441-1.9025269.0014648-.6920776.0029297-1.3839722-.0004272-2.0761108-.0007935-.1864624.0477295-.3383789.1484375-.4650269-.194519.1263428-.3880615.2542114-.5829468.3799438-.131958.0848999-.2336426.3255005-.2321777.5479736Z" fill="none"/>
  <path d="M12.2362671,7.1682739c-.5930786.2995605-1.293396.3058472-1.9268188.0171509-.7304688-.3330078-1.2514038-.9940186-1.4182129-1.8045654-.0089111-.0432739-.0354614-.0803833-.0727539-.1040039-.4467773-.2825317-.666626-.7492065-.7720947-1.2420044-.0838623-.3920288.0174561-.7865601.1697998-1.1547852.1880493-.4544067.7263184-1.0466309,1.15271-1.296814l-.2628784-.2236328c-.1477661-.1077271-.361084-.15271-.5232544-.1043091-.2441406.072876-.3970337.4198608-.5369263.612854-.1793213.2473145-.3590088.4943848-.5384521.7415771-.3701172.5097656-.7404785,1.0194092-1.1051636,1.53302-.0986328.138916-.1968384.2780762-.2936401.4182129-.3416748.4943848-1.1255493.416626-1.5466309.3743896-.6151733-.0610962-1.3156738-.093689-1.993103-.1251831-.3656616-.0171509-.7390137-.0345459-1.1003418-.0565796-.1063843-.0064697-.1741333.1090088-.116333.1985474.2666626.413208.5309448.8446655.7891235,1.2657471.241333.3937378.4881592.7944946.7360229,1.1810913.1688843.2492065.3362427.4992676.5054932.7481079.0128174.0187378.0196533.0374146.0305176.0561523.1779785.2639771.0418701.6117554-.0728149.9448242-.2630005.7662354-.5218506,1.5341797-.7807617,2.302124l-.190979.56604-.1569824.5042114c-.0934448.303772.4400635.3842163.5411987.3571777l.2970581-.0794678c.9179688-.2449951,1.8361206-.4902344,2.7518311-.7435913.1304321-.0361328.3834229-.0831909.6533813-.0831909.2819824,0,.5824585.0510254.7826538.2193604.7019043.5901489,1.7799683,1.4835205,2.5551758,2.1254883.0908203.0752563.227478.0099487.227478-.1079712l-.0008545-3.614624c-.0025024-.3740234.1594849-.8577271.527832-1.0949097.7929077-.5118408,1.5827026-1.0291138,2.3723145-1.5462036l.2470093-.1617432c.1020508-.0668335.0859375-.2213135-.0273438-.2665405-.3042603-.12146-.6027832-.2397461-.9032593-.355957Z" fill="none"/>
  <path d="M4.6258545,4.2932739c.2258301.022522.8261108.0821533.9515381-.0991821.0294189-.0425415.0621338-.0883179.0958862-.1350708-.0651855-.0082397-.1342773-.017334-.2103882-.02771-.0485229-.0067749-.0852661-.0120239-.1018677-.0136719-.7919312-.0634766-1.7281494-.1420288-2.654541-.2420654l-.0437012-.0045776c-.7854004-.0859985-.8253784-.0886841-1.4224854.3206177.4370728.0304565.9033813.0524902,1.3586426.0737305.685791.0319214,1.3948975.0649414,2.0269165.1279297Z" fill="none"/>
  <path d="M14.2406006,6.585144c-.3673096-.1453857-.7469482-.2954102-1.1184082-.4536133-.0910034-.0386353-.166626-.085083-.2334595-.1260376-.0314941-.019165-.0715942-.0437622-.0993652-.0576172-.1363525.1265259-.3113403.1590576-.4391479.1828003l-.0281372.0054932c-.5244141.0995483-1.0860596-.0123901-1.5039673-.3002319-.3590698-.2473145-.5876465-.5963135-.6611938-1.0095825-.0228882-.1292114-.0340576-.2559204-.043457-.3790283-.0305176-.0088501-.0615845-.019165-.0928955-.0315552-.3815308-.1484985-.6208496-.4441528-.6914673-.8549194-.0379639-.2210083.0159302-.425415.1568604-.5988159.0969849-.1192627.2553711-.1922607.3676758-.2981567.1147461-.1082153.0222168-.2530518-.0224609-.3764038-.0075684-.0209351-.1070557-.2459717-.1040039-.2496948-.2515259.3018188-.5866699.6497192-.8255615.9630127-.2119751.2778931-.2437134.6067505-.2120972.9796753.0230713.2716064.1595459.5142822.3862915.6894531.2227783.1720581.399231.3986206.4683838.6714478.1433105.5652466.5181885,1.0221558,1.032959,1.2568359.4614258.210083.9675293.2039795,1.3887939-.0166016.0546265-.0285645.2471313-.1160278.4412231-.0405884.4109497.159729.9798584.3831177,1.4476318.569458.1370239.0545654.2905884.0430298.4182739-.0307617l.4940186-.2852783-.050354-.0201416c-.1661987-.0667725-.3093262-.1231689-.4761353-.1891479Z" fill="none"/>
  <g>
    <path d="M10.6651611,10.5891724c.0067139,1.0249023.0054932,2.0500488.0040283,3.0749512l-.0010986,1.0236206c0,.0220947-.0014648.0445557-.0087891.0897217l-.0046387.0296021c.052124-.0352783.1033936-.0713501.1546631-.1075439.1073608-.0760498.2185059-.1544189.3380737-.2260742.1176147-.0703735.1854858-.1531372.1846313-.3685303-.0022583-.6343384-.0010376-1.2684326.0002441-1.9025269.0014648-.6920776.0029297-1.3839722-.0004272-2.0761108-.0007935-.1864624.0477295-.3383789.1484375-.4650269-.194519.1263428-.3880615.2542114-.5829468.3799438-.131958.0848999-.2336426.3255005-.2321777.5479736Z" fill="none"/>
    <path d="M4.6258545,4.2932739c.2258301.022522.8261108.0821533.9515381-.0991821.0294189-.0425415.0621338-.0883179.0958862-.1350708-.0651855-.0082397-.1342773-.017334-.2103882-.02771-.0485229-.0067749-.0852661-.0120239-.1018677-.0136719-.7919312-.0634766-1.7281494-.1420288-2.654541-.2420654l-.0437012-.0045776c-.7854004-.0859985-.8253784-.0886841-1.4224854.3206177.4370728.0304565.9033813.0524902,1.3586426.0737305.685791.0319214,1.3948975.0649414,2.0269165.1279297Z" fill="none"/>
    <path d="M14.2406006,6.585144c-.3673096-.1453857-.7469482-.2954102-1.1184082-.4536133-.0910034-.0386353-.166626-.085083-.2334595-.1260376-.0314941-.019165-.0715942-.0437622-.0993652-.0576172-.1363525.1265259-.3113403.1590576-.4391479.1828003l-.0281372.0054932c-.5244141.0995483-1.0860596-.0123901-1.5039673-.3002319-.3590698-.2473145-.5876465-.5963135-.6611938-1.0095825-.0228882-.1292114-.0340576-.2559204-.043457-.3790283-.0305176-.0088501-.0615845-.019165-.0928955-.0315552-.3815308-.1484985-.6208496-.4441528-.6914673-.8549194-.0379639-.2210083.0159302-.425415.1568604-.5988159.0969849-.1192627.2553711-.1922607.3676758-.2981567.1147461-.1082153.0222168-.2530518-.0224609-.3764038-.0075684-.0209351-.1070557-.2459717-.1040039-.2496948-.2515259.3018188-.5866699.6497192-.8255615.9630127-.2119751.2778931-.2437134.6067505-.2120972.9796753.0230713.2716064.1595459.5142822.3862915.6894531.2227783.1720581.399231.3986206.4683838.6714478.1433105.5652466.5181885,1.0221558,1.032959,1.2568359.4614258.210083.9675293.2039795,1.3887939-.0166016.0546265-.0285645.2471313-.1160278.4412231-.0405884.4109497.159729.9798584.3831177,1.4476318.569458.1370239.0545654.2905884.0430298.4182739-.0307617l.4940186-.2852783-.050354-.0201416c-.1661987-.0667725-.3093262-.1231689-.4761353-.1891479Z" fill="none"/>
    <path d="M12.2362671,7.1682739c-.5930786.2995605-1.293396.3058472-1.9268188.0171509-.7304688-.3330078-1.2514038-.9940186-1.4182129-1.8045654-.0089111-.0432739-.0354614-.0803833-.0727539-.1040039-.4467773-.2825317-.666626-.7492065-.7720947-1.2420044-.0838623-.3920288.0174561-.7865601.1697998-1.1547852.1880493-.4544067.7263184-1.0466309,1.15271-1.296814l-.2628784-.2236328c-.1477661-.1077271-.361084-.15271-.5232544-.1043091-.2441406.072876-.3970337.4198608-.5369263.612854-.1793213.2473145-.3590088.4943848-.5384521.7415771-.3701172.5097656-.7404785,1.0194092-1.1051636,1.53302-.0986328.138916-.1968384.2780762-.2936401.4182129-.3416748.4943848-1.1255493.416626-1.5466309.3743896-.6151733-.0610962-1.3156738-.093689-1.993103-.1251831-.3656616-.0171509-.7390137-.0345459-1.1003418-.0565796-.1063843-.0064697-.1741333.1090088-.116333.1985474.2666626.413208.5309448.8446655.7891235,1.2657471.241333.3937378.4881592.7944946.7360229,1.1810913.1688843.2492065.3362427.4992676.5054932.7481079.0128174.0187378.0196533.0374146.0305176.0561523.1779785.2639771.0418701.6117554-.0728149.9448242-.2630005.7662354-.5218506,1.5341797-.7807617,2.302124l-.190979.56604-.1569824.5042114c-.0934448.303772.4400635.3842163.5411987.3571777l.2970581-.0794678c.9179688-.2449951,1.8361206-.4902344,2.7518311-.7435913.1304321-.0361328.3834229-.0831909.6533813-.0831909.2819824,0,.5824585.0510254.7826538.2193604.7019043.5901489,1.7799683,1.4835205,2.5551758,2.1254883.0908203.0752563.227478.0099487.227478-.1079712l-.0008545-3.614624c-.0025024-.3740234.1594849-.8577271.527832-1.0949097.7929077-.5118408,1.5827026-1.0291138,2.3723145-1.5462036l.2470093-.1617432c.1020508-.0668335.0859375-.2213135-.0273438-.2665405-.3042603-.12146-.6027832-.2397461-.9032593-.355957Z" fill="none"/>
    <g>
      <path d="M4.6258545,4.2932739c.2258301.022522.8261108.0821533.9515381-.0991821.0294189-.0425415.0621338-.0883179.0958862-.1350708-.0651855-.0082397-.1342773-.017334-.2103882-.02771-.0485229-.0067749-.0852661-.0120239-.1018677-.0136719-.7919312-.0634766-1.7281494-.1420288-2.654541-.2420654l-.0437012-.0045776c-.7854004-.0859985-.8253784-.0886841-1.4224854.3206177.4370728.0304565.9033813.0524902,1.3586426.0737305.685791.0319214,1.3948975.0649414,2.0269165.1279297Z" fill="none"/>
      <path d="M10.6651611,10.5891724c.0067139,1.0249023.0054932,2.0500488.0040283,3.0749512l-.0010986,1.0236206c0,.0220947-.0014648.0445557-.0087891.0897217l-.0046387.0296021c.052124-.0352783.1033936-.0713501.1546631-.1075439.1073608-.0760498.2185059-.1544189.3380737-.2260742.1176147-.0703735.1854858-.1531372.1846313-.3685303-.0022583-.6343384-.0010376-1.2684326.0002441-1.9025269.0014648-.6920776.0029297-1.3839722-.0004272-2.0761108-.0007935-.1864624.0477295-.3383789.1484375-.4650269-.194519.1263428-.3880615.2542114-.5829468.3799438-.131958.0848999-.2336426.3255005-.2321777.5479736Z" fill="none"/>
      <path d="M14.2406006,6.585144c-.3673096-.1453857-.7469482-.2954102-1.1184082-.4536133-.0910034-.0386353-.166626-.085083-.2334595-.1260376-.0314941-.019165-.0715942-.0437622-.0993652-.0576172-.1363525.1265259-.3113403.1590576-.4391479.1828003l-.0281372.0054932c-.5244141.0995483-1.0860596-.0123901-1.5039673-.3002319-.3590698-.2473145-.5876465-.5963135-.6611938-1.0095825-.0228882-.1292114-.0340576-.2559204-.043457-.3790283-.0305176-.0088501-.0615845-.019165-.0928955-.0315552-.3815308-.1484985-.6208496-.4441528-.6914673-.8549194-.0379639-.2210083.0159302-.425415.1568604-.5988159.0969849-.1192627.2553711-.1922607.3676758-.2981567.1147461-.1082153.0222168-.2530518-.0224609-.3764038-.0075684-.0209351-.1070557-.2459717-.1040039-.2496948-.2515259.3018188-.5866699.6497192-.8255615.9630127-.2119751.2778931-.2437134.6067505-.2120972.9796753.0230713.2716064.1595459.5142822.3862915.6894531.2227783.1720581.399231.3986206.4683838.6714478.1433105.5652466.5181885,1.0221558,1.032959,1.2568359.4614258.210083.9675293.2039795,1.3887939-.0166016.0546265-.0285645.2471313-.1160278.4412231-.0405884.4109497.159729.9798584.3831177,1.4476318.569458.1370239.0545654.2905884.0430298.4182739-.0307617l.4940186-.2852783-.050354-.0201416c-.1661987-.0667725-.3093262-.1231689-.4761353-.1891479Z" fill="none"/>
      <path d="M12.2362671,7.1682739c-.5930786.2995605-1.293396.3058472-1.9268188.0171509-.7304688-.3330078-1.2514038-.9940186-1.4182129-1.8045654-.0089111-.0432739-.0354614-.0803833-.0727539-.1040039-.4467773-.2825317-.666626-.7492065-.7720947-1.2420044-.0838623-.3920288.0174561-.7865601.1697998-1.1547852.1880493-.4544067.7263184-1.0466309,1.15271-1.296814l-.2628784-.2236328c-.1477661-.1077271-.361084-.15271-.5232544-.1043091-.2441406.072876-.3970337.4198608-.5369263.612854-.1793213.2473145-.3590088.4943848-.5384521.7415771-.3701172.5097656-.7404785,1.0194092-1.1051636,1.53302-.0986328.138916-.1968384.2780762-.2936401.4182129-.3416748.4943848-1.1255493.416626-1.5466309.3743896-.6151733-.0610962-1.3156738-.093689-1.993103-.1251831-.3656616-.0171509-.7390137-.0345459-1.1003418-.0565796-.1063843-.0064697-.1741333.1090088-.116333.1985474.2666626.413208.5309448.8446655.7891235,1.2657471.241333.3937378.4881592.7944946.7360229,1.1810913.1688843.2492065.3362427.4992676.5054932.7481079.0128174.0187378.0196533.0374146.0305176.0561523.1779785.2639771.0418701.6117554-.0728149.9448242-.2630005.7662354-.5218506,1.5341797-.7807617,2.302124l-.190979.56604-.1569824.5042114c-.0934448.303772.4400635.3842163.5411987.3571777l.2970581-.0794678c.9179688-.2449951,1.8361206-.4902344,2.7518311-.7435913.1304321-.0361328.3834229-.0831909.6533813-.0831909.2819824,0,.5824585.0510254.7826538.2193604.7019043.5901489,1.7799683,1.4835205,2.5551758,2.1254883.0908203.0752563.227478.0099487.227478-.1079712l-.0008545-3.614624c-.0025024-.3740234.1594849-.8577271.527832-1.0949097.7929077-.5118408,1.5827026-1.0291138,2.3723145-1.5462036l.2470093-.1617432c.1020508-.0668335.0859375-.2213135-.0273438-.2665405-.3042603-.12146-.6027832-.2397461-.9032593-.355957Z" fill="none"/>
      <path d="M.3065186,4.5216675c.0177612.1688232.0799561.3429565.1972046.5170898l.0922241.1367798c.5796509.8608398,1.1610107,1.7206421,1.7431641,2.5797729.1332397.2075806.2667847.4125977.401001.6088257l.0567627.081543c.0174561.0249023.0440674.0629272.0737915.1071777-.0007324.0048218-.0024414.0134888-.0089111.03125-.2290039.6419067-.4336548,1.267395-.6313477,1.8723145-.1834106.5609741-.3729248,1.1410522-.5817871,1.7325439-.1532593.43396-.0524292.7455444.0929565.9541016.0128174.026001.0289917.0505371.0488281.0726929.007019.0077515.0158081.0130005.0233765.0199585.0075684.0085449.0148926.0184326.0224609.0264893.262207.2785645.6097412.3626099,1.0322266.2497559.4776001-.1275024.9553833-.2531738,1.4334106-.3787842.729248-.1916504,1.4587402-.3832397,2.1949463-.5836792.0054932.0058594.0109253.0119629.0166016.0180664l3.140686,2.6895752.0353394.0300293c.2371826.2006836.4519043.300293.675293.300293.2000122,0,.4067383-.0800781.6422729-.2393188.0588379-.0397339.1168213-.0806885.1750488-.1216431.1018677-.0720825.1981201-.1401367.2966309-.1992188.3326416-.1987305.5003052-.5099487.4988403-.9248657l-.0002441-3.9790649c-.0001831-.0462036.0059204-.0600586.0056763-.0600586.0002441-.0002441.0090332-.0136719.052124-.0411987,1.2677612-.8116455,2.3035889-1.4829102,3.2598267-2.1130371.2714233-.178833.4296875-.4765625.4229126-.7960815-.006897-.3309326-.1853027-.6330566-.4771118-.8081055-.0809326-.0485229-.1622314-.0811157-.2340698-.1096802l-.0252075-.0100708c-.1674805-.0674438-.3355713-.1338501-.503418-.2002563-.315918-.124939-.6356812-.2410889-.9455566-.3807373-.270752-.1220093-.5753784-.3737793-.8894653-.2979736-.1367798.03302-.2251587.135437-.3512573.1867676-.34729.1412964-.8096924.0164795-1.107605-.1885986-.1489868-.1027222-.3378296-.2884521-.3918457-.5908203-.0274048-.1533203-.0377197-.3088989-.0466309-.4642334-.0062256-.1085205.03125-.3021851-.0960083-.3496094-.0367432-.0136719-.0765381-.0161743-.1155396-.0205078-.0026855-.0003052-.0053101-.0006104-.0079346-.0009155-.3981934-.0461426-.506897-.5735474-.168396-.788269.0668945-.0424194.1268921-.0934448.170105-.1688232.0874023-.1526489.0783691-.3386841.0227661-.5005493-.0296021-.0869751-.0600586-.18573-.0926514-.2910156-.2237549-.723999-.5656128-1.8132324-1.4560547-1.7102661-1.0875854.0258789-2.4138794,2.1463013-2.8828125,2.9594116-.0263672.0457153-.0754395.071106-.1279907.0662231-.107605-.0099487-.2546387-.02771-.4404297-.0532227-.0671997-.0092163-.1168213-.015564-.1365356-.0172119-.7891846-.0632324-1.7197266-.1414185-2.6383667-.2406006l-.043457-.0048218c-1.0142212-.1099243-1.1055908-.086792-1.9527588.4958496-.2556152.1757812-.4093018.3914795-.4645386.6315918M2.6627808,3.7709961l.0437012.0045776c.9263916.1000366,1.8626099.1785889,2.654541.2420654.0166016.0016479.0533447.006897.1018677.0136719.0761108.010376.1452026.0194702.2103882.02771-.0337524.0467529-.0664673.0925293-.0958862.1350708-.1254272.1813354-.725708.1217041-.9515381.0991821-.632019-.0629883-1.3411255-.0960083-2.0269165-.1279297-.4552612-.0212402-.9215698-.0432739-1.3586426-.0737305.5971069-.4093018.637085-.4066162,1.4224854-.3206177ZM11.3318481,10.1262817c.0033569.6921387.0018921,1.3840332.0004272,2.0761108-.0012817.6340942-.0025024,1.2681885-.0002441,1.9025269.0008545.2153931-.0670166.2981567-.1846313.3685303-.1195679.0716553-.2307129.1500244-.3380737.2260742-.0512695.0361938-.1025391.0722656-.1546631.1075439l.0046387-.0296021c.0073242-.045166.0087891-.067627.0087891-.0897217l.0010986-1.0236206c.0014648-1.0249023.0026855-2.0500488-.0040283-3.0749512-.0014648-.2224731.1002197-.4630737.2321777-.5479736.1948853-.1257324.3884277-.2536011.5829468-.3799438-.100708.1266479-.149231.2785645-.1484375.4650269ZM13.1668701,7.7907715l-.2470093.1617432c-.7896118.5170898-1.5794067,1.0343628-2.3723145,1.5462036-.3683472.2371826-.5303345.7208862-.527832,1.0949097l.0008545,3.614624c0,.1179199-.1366577.1832275-.227478.1079712-.7752075-.6419678-1.8532715-1.5353394-2.5551758-2.1254883-.2001953-.168335-.5006714-.2193604-.7826538-.2193604-.2699585,0-.5229492.0470581-.6533813.0831909-.9157104.2533569-1.8338623.4985962-2.7518311.7435913l-.2970581.0794678c-.1011353.0270386-.6346436-.0534058-.5411987-.3571777l.1569824-.5042114.190979-.56604c.2589111-.7679443.5177612-1.5358887.7807617-2.302124.1146851-.3330688.2507935-.6808472.0728149-.9448242-.0108643-.0187378-.0177002-.0374146-.0305176-.0561523-.1692505-.2488403-.3366089-.4989014-.5054932-.7481079-.2478638-.3865967-.4946899-.7873535-.7360229-1.1810913-.2581787-.4210815-.5224609-.8525391-.7891235-1.2657471-.0578003-.0895386.0099487-.2050171.116333-.1985474.3613281.0220337.7346802.0394287,1.1003418.0565796.6774292.0314941,1.3779297.0640869,1.993103.1251831.4210815.0422363,1.2049561.1199951,1.5466309-.3743896.0968018-.1401367.1950073-.2792969.2936401-.4182129.3646851-.5136108.7350464-1.0232544,1.1051636-1.53302.1794434-.2471924.3591309-.4942627.5384521-.7415771.1398926-.1929932.2927856-.539978.5369263-.612854.1621704-.0484009.3754883-.003418.5232544.1043091l.2628784.2236328c-.4263916.2501831-.9646606.8424072-1.15271,1.296814-.1523438.3682251-.2536621.7627563-.1697998,1.1547852.1054688.4927979.3253174.9594727.7720947,1.2420044.0372925.0236206.0638428.06073.0727539.1040039.1668091.8105469.6877441,1.4715576,1.4182129,1.8045654.6334229.2886963,1.3337402.2824097,1.9268188-.0171509.3004761.1162109.598999.2344971.9032593.355957.1132812.0452271.1293945.199707.0273438.2665405ZM14.2730713,7.0797119c-.1276855.0737915-.28125.0853271-.4182739.0307617-.4677734-.1863403-1.0366821-.409729-1.4476318-.569458-.1940918-.0754395-.3865967.0120239-.4412231.0405884-.4212646.2205811-.9273682.2266846-1.3887939.0166016-.5147705-.2346802-.8896484-.6915894-1.032959-1.2568359-.0691528-.2728271-.2456055-.4993896-.4683838-.6714478-.2267456-.1751709-.3632202-.4178467-.3862915-.6894531-.0316162-.3729248.0001221-.7017822.2120972-.9796753.2388916-.3132935.5740356-.6611938.8255615-.9630127-.0030518.0037231.0964355.2287598.1040039.2496948.0446777.1233521.137207.2681885.0224609.3764038-.1123047.105896-.2706909.178894-.3676758.2981567-.1409302.1734009-.1948242.3778076-.1568604.5988159.0706177.4107666.3099365.7064209.6914673.8549194.031311.0123901.0623779.0227051.0928955.0315552.0093994.1231079.0205688.2498169.043457.3790283.0735474.413269.302124.7622681.6611938,1.0095825.4179077.2878418.9795532.3997803,1.5039673.3002319l.0281372-.0054932c.1278076-.0237427.3027954-.0562744.4391479-.1828003.027771.013855.0678711.0384521.0993652.0576172.0668335.0409546.1424561.0874023.2334595.1260376.37146.1582031.7510986.3082275,1.1184082.4536133.1668091.065979.3099365.1223755.4761353.1891479l.050354.0201416-.4940186.2852783Z" fill="#ec1b33"/>
    </g>
  </g>
</svg>