<?xml version="1.0" encoding="UTF-8"?>
<svg id="Capa_2" xmlns="http://www.w3.org/2000/svg" version="1.1" xmlns:xlink="http://www.w3.org/1999/xlink" viewBox="0 0 768 400">
  <!-- Generator: Adobe Illustrator 29.0.0, SVG Export Plug-In . SVG Version: 2.1.0 Build 186)  -->
  <defs>
    <style>
      .st0 {
        fill: none;
      }

      .st1 {
        fill: #e6244a;
      }

      .st2 {
        fill: #e9544b;
      }

      .st3 {
        clip-path: url(#clippath);
      }
    </style>
    <clipPath id="clippath">
      <polygon class="st0" points="11.2 -866 785.5 -863.7 1018 -435.8 10.8 -435.8 11.2 -866"/>
    </clipPath>
  </defs>
  <g class="st3">
    <path class="st2" d="M721.6-390.8c-9.5-5.7-19.1-9.5-27.6-12.9l-3-1.2c-19.7-8-39.5-15.8-59.3-23.6-37.2-14.7-74.9-28.4-111.4-44.9-31.9-14.4-67.8-44-104.8-35.1-16.1,3.9-26.5,15.9-41.4,22-40.9,16.7-95.4,1.9-130.5-22.2-17.6-12.1-39.8-34-46.2-69.6-3.2-18.1-4.5-36.4-5.5-54.7-.7-12.8,3.7-35.6-11.3-41.2-4.4-1.6-9-1.9-13.6-2.4-.3,0-.6,0-.9-.1-46.9-5.5-59.7-67.6-19.8-92.9,7.9-5,14.9-11,20-19.9,10.3-18,9.2-39.9,2.7-59-3.5-10.3-7.1-21.9-10.9-34.3-26.3-85.3-66.6-213.6-171.5-201.4-128.2,3-284.4,252.8-339.6,348.7-3.1,5.4-8.9,8.4-15.1,7.8-12.7-1.2-30-3.2-51.9-6.3-7.9-1.1-13.8-1.8-16.1-2-93-7.4-202.6-16.7-310.8-28.4l-5.1-.6c-119.5-12.9-130.3-10.2-230,58.4-30.1,20.7-48.2,46.1-54.7,74.4-5,9.9-5.1,21.2-1,31.2,2.1,19.9,9.4,40.4,23.2,60.9l10.8,16.1c68.3,101.4,136.8,202.7,205.4,304,15.7,24.5,31.4,48.6,47.2,71.7l6.7,9.6c2,2.9,5.2,7.4,8.7,12.6-.1.6-.3,1.6-1,3.7-27,75.6-51.1,149.3-74.4,220.6-21.6,66.1-43.9,134.4-68.6,204.1-18,51.1-6.2,87.8,11,112.4,1.5,3,3.4,6,5.8,8.5.8.9,1.8,1.5,2.8,2.4.9,1,1.7,2.1,2.6,3.1,30.9,32.8,71.9,42.7,121.6,29.5,56.2-15,112.5-29.8,168.9-44.6,85.9-22.6,171.9-45.1,258.6-68.8.6.7,1.3,1.4,1.9,2.1L63.3,663.9l4.1,3.6c27.9,23.6,53.3,35.4,79.6,35.4s47.9-9.4,75.7-28.2c6.9-4.7,13.8-9.5,20.6-14.3,12-8.5,23.3-16.5,35-23.5,39.2-23.4,58.9-60.1,58.8-109V59.1c0-5.5.7-7.1.7-7.1,0,0,1-1.6,6.1-4.9,149.4-95.6,271.4-174.7,384-249,32-21.1,50.6-56.1,49.8-93.8-.8-38.9-21.8-74.5-56.2-95.1Z"/>
  </g>
  <path class="st1" d="M778.7,400.4v-202.8c-80.1,1.4-159.3-16.7-225.1-62.6C406.1,32.2,226.6,1.4,59.3,50.6c-23,6.8-45.3,15-66.6,24.5v325.4h786Z"/>
</svg>