<?xml version="1.0" encoding="UTF-8"?>
<svg id="Section_3" xmlns="http://www.w3.org/2000/svg" version="1.1" viewBox="0 0 363.5 241.2">
  <!-- Generator: Adobe Illustrator 29.0.0, SVG Export Plug-In . SVG Version: 2.1.0 Build 186)  -->
  <defs>
    <style>
      .st0 {
        fill: #455435;
      }

      .st1 {
        fill: #253318;
      }

      .st2 {
        fill: #fff;
      }

      .st3 {
        stroke: #231f20;
        stroke-miterlimit: 10;
      }

      .st3, .st4 {
        fill: none;
        stroke-linecap: round;
        stroke-width: 3px;
      }

      .st5 {
        fill: #a01c29;
      }

      .st6 {
        fill: #c92027;
      }

      .st4 {
        stroke: #826628;
        stroke-linejoin: round;
      }

      .st7 {
        fill: #d2af5d;
      }

      .st8 {
        fill: #826628;
      }

      .st9 {
        fill: #ee223f;
      }
    </style>
  </defs>
  <path class="st2" d="M60.6,210.7s-8.2-5.5-14.2-1.8"/>
  <path class="st3" d="M60.6,210.7s-8.2-5.5-14.2-1.8"/>
  <path class="st6" d="M138.6,66.8s-56.6-26.9-93.9,51.1C7.4,195.9,9.2,201.2,29.2,214.5c20.1,13.3,144.7-11.6,161.1-73.8,16.3-62.2-51.7-73.9-51.7-73.9"/>
  <path class="st9" d="M134.6,61.5s-56.6-26.9-93.9,51.1C3.4,190.6,5.2,195.9,25.2,209.2c20.1,13.3,144.7-11.6,161.1-73.8,16.4-62.2-51.7-73.9-51.7-73.9"/>
  <path class="st5" d="M134.5,61.7c-2.5-1.1-5.1-1.9-7.7-2.5-2.6-.7-5.3-1.1-8-1.4-5.4-.6-10.8-.5-16.1.3-5.3.8-10.6,2.3-15.5,4.4s-9.6,5-13.9,8.2c-1.1.8-2.2,1.6-3.2,2.5s-2.1,1.7-3,2.7l-2.9,2.8c-1,.9-1.8,2-2.7,3-1.9,2-3.5,4.1-5.2,6.2-.8,1-1.6,2.2-2.4,3.3-.8,1.1-1.6,2.2-2.3,3.3-2.9,4.5-5.7,9.2-8.1,14-2.5,4.8-4.7,9.7-7,14.6-4.6,9.8-9.1,19.7-13.4,29.6-2.1,5-4.2,10-6,15.1-1.8,5.1-3.5,10.2-4.5,15.5-.5,2.6-.7,5.3-.6,7.8.2,2.6.9,5.1,2.2,7.2,1.3,2.2,3.2,4,5.3,5.6s4.3,3.2,6.5,4.6c1.1.6,2.3,1.1,3.5,1.4,1.2.4,2.5.6,3.8.8,2.6.4,5.3.6,7.9.7,5.4,0,10.7-.2,16.1-.8,10.7-1.2,21.3-3.3,31.7-6.1,10.4-2.8,20.6-6.3,30.6-10.4,9.9-4.2,19.5-9.1,28.5-15,4.5-2.9,8.8-6.1,12.9-9.6,4.1-3.5,7.9-7.2,11.2-11.4,3.4-4.1,6.4-8.5,8.7-13.3,1.2-2.4,2.1-4.8,3-7.3.8-2.5,1.4-5.1,2-7.7,1-5.2,1.6-10.6,1.3-15.9-.2-5.3-1.3-10.6-3.2-15.5-1.9-4.9-4.7-9.6-8.2-13.6-3.5-4.1-7.6-7.6-12-10.6-4.4-3.1-9.2-5.5-14.2-7.7-4.6-2-9.8-3.7-15.1-4.8M134.6,61.4c5.3.9,10.6,2.5,15.7,4.4,5.1,2,10,4.4,14.6,7.3,4.6,3,8.9,6.5,12.6,10.6,3.7,4.1,6.7,8.8,8.8,14,2.1,5.1,3.3,10.6,3.6,16.2.3,5.5-.2,11.1-1.2,16.5-.6,2.7-1.1,5.4-2,8-.9,2.6-1.8,5.3-3,7.7-2.3,5-5.4,9.7-8.9,14-3.5,4.3-7.4,8.2-11.6,11.8-4.2,3.6-8.6,6.8-13.2,9.9-9.2,6-19,10.9-29.1,15.1-10.1,4.1-20.5,7.6-31,10.3-10.6,2.7-21.3,4.8-32.2,5.9-5.4.6-10.9.8-16.4.7-2.7,0-5.5-.3-8.2-.8-1.4-.3-2.7-.5-4.1-.9-1.4-.4-2.7-.9-4-1.7-1.2-.8-2.3-1.5-3.4-2.3-1.1-.8-2.2-1.6-3.3-2.5-2.2-1.7-4.2-3.7-5.7-6.2-.8-1.2-1.3-2.6-1.8-3.9-.2-.7-.4-1.4-.5-2.1s-.2-1.4-.2-2.1c-.2-2.8,0-5.6.6-8.3,1-5.4,2.8-10.6,4.6-15.7,1.9-5.1,4-10.1,6.1-15.1,4.3-10,8.9-19.8,13.6-29.6,2.4-4.9,4.6-9.8,7.2-14.6,2.5-4.8,5.3-9.5,8.3-14.1.7-1.2,1.6-2.2,2.4-3.3.8-1.1,1.6-2.2,2.4-3.3,1.7-2.1,3.4-4.3,5.3-6.2.9-1,1.8-2,2.8-3l2.9-2.8c1-.9,2.1-1.8,3.1-2.7,1-.9,2.1-1.7,3.2-2.5,4.4-3.3,9.1-6,14.1-8.2,5-2.1,10.3-3.6,15.7-4.3,5.4-.7,10.9-.8,16.3,0,2.7.3,5.4.8,8,1.5,2.8.4,5.5,1.3,7.9,2.4"/>
  <path class="st2" d="M74.2,194s7.5-.8,8.3-3.8"/>
  <path class="st7" d="M74.2,196c-1,0-1.9-.8-2-1.8,0-1.1.7-2.1,1.8-2.2,3.3-.3,6.4-1.5,6.6-2.3.3-1.1,1.3-1.7,2.4-1.5,1.1.3,1.7,1.4,1.5,2.4-1,4.1-7.9,5.1-10,5.3-.1,0-.2,0-.3,0"/>
  <path class="st2" d="M53.1,155.2s-3,3-2.2,4.9"/>
  <path class="st7" d="M50.9,162.1c-.8,0-1.6-.5-1.9-1.3-1.2-2.9,1.7-6.1,2.7-7,.8-.8,2-.8,2.8,0,.8.8.8,2,0,2.8-.9.9-1.8,2.4-1.8,2.8.4,1,0,2.1-1.1,2.6-.2,0-.5,0-.7,0"/>
  <path class="st2" d="M99,159s4.3-.8,5-3.8"/>
  <path class="st7" d="M99,160.9c-1,0-1.8-.7-2-1.7-.2-1.1.5-2.1,1.6-2.3.8,0,3.1-.9,3.5-2.3.3-1.1,1.4-1.7,2.4-1.5,1.1.3,1.7,1.4,1.5,2.4-.8,3.4-4.6,4.9-6.6,5.3,0,0-.2,0-.4,0"/>
  <path class="st2" d="M96,74.4s-4.3,1.7-5.4,3.4"/>
  <path class="st7" d="M90.5,79.8c-.4,0-.8,0-1.1-.4-.9-.6-1.1-1.9-.5-2.8,1.4-2.1,5.5-3.8,6.3-4.1,1-.4,2.2,0,2.6,1.1s0,2.2-1.1,2.6c-1.8.7-4.1,2-4.5,2.7-.4.6-1,.9-1.7.9"/>
  <path class="st2" d="M85.2,118.7s-4.3,1.7-5.4,3.4"/>
  <path class="st7" d="M79.8,124.1c-.4,0-.8,0-1.1-.4-.9-.6-1.1-1.9-.5-2.8,1.4-2.1,5.5-3.8,6.3-4.1,1-.4,2.2,0,2.6,1.1.4,1,0,2.2-1.1,2.6-1.8.7-4.1,2-4.6,2.7-.3.6-1,.9-1.6.9"/>
  <path class="st2" d="M160.7,132.3s4.3-.8,5-3.8"/>
  <path class="st7" d="M160.7,134.3c-1,0-1.8-.7-2-1.7-.2-1.1.5-2.1,1.6-2.3.8,0,3.1-.9,3.5-2.3.3-1.1,1.3-1.7,2.4-1.5,1.1.3,1.7,1.4,1.5,2.4-.8,3.4-4.6,4.9-6.6,5.3-.2,0-.3,0-.4,0"/>
  <path class="st2" d="M67.9,100.1s.8-4.3,3.8-5"/>
  <path class="st7" d="M67.9,102.1h-.4c-1.1-.2-1.8-1.2-1.6-2.3.4-2.1,1.9-5.8,5.3-6.6,1.1-.3,2.1.4,2.4,1.5.3,1.1-.4,2.1-1.5,2.4-1.4.3-2.2,2.7-2.3,3.4,0,.9-.9,1.6-1.9,1.6"/>
  <path class="st2" d="M134.9,152.6s3.9-1.9,3.8-5"/>
  <path class="st7" d="M134.9,154.6c-.7,0-1.4-.4-1.8-1.1-.5-1-.1-2.2.9-2.7.7-.4,2.7-1.7,2.7-3.2s.8-2,1.9-2.1c1.1,0,2,.8,2.1,1.9.1,3.5-3,6-4.9,6.9-.3.2-.6.3-.9.3"/>
  <path class="st2" d="M51.8,189.4s4.3-.8,5-3.8"/>
  <path class="st7" d="M51.8,191.3c-1,0-1.8-.7-2-1.6-.2-1.1.5-2.1,1.6-2.3.8,0,3.1-.9,3.5-2.3.3-1.1,1.3-1.7,2.4-1.5,1.1.3,1.7,1.4,1.5,2.4-.8,3.4-4.6,4.9-6.6,5.3h-.4"/>
  <path class="st2" d="M99.7,100.1s.8-4.3,3.8-5"/>
  <path class="st7" d="M99.7,102.1h-.4c-1.1-.2-1.8-1.2-1.6-2.3.4-2.1,1.9-5.8,5.3-6.6,1.1-.3,2.1.4,2.4,1.5.3,1.1-.4,2.1-1.5,2.4-1.4.3-2.2,2.7-2.3,3.4-.2.9-1,1.6-1.9,1.6"/>
  <path class="st2" d="M49.9,134.8s.8-4.3,3.8-5"/>
  <path class="st7" d="M49.9,136.8h-.4c-1.1-.2-1.8-1.2-1.6-2.3.4-2.1,1.9-5.8,5.3-6.6,1.1-.3,2.2.4,2.4,1.5.3,1.1-.4,2.1-1.5,2.4-1.5.3-2.2,2.8-2.3,3.4,0,1-1,1.6-1.9,1.6"/>
  <path class="st2" d="M116.6,173.1s4.3-.8,5-3.8"/>
  <path class="st7" d="M116.6,175.1c-1,0-1.8-.7-2-1.7-.2-1.1.5-2.1,1.6-2.3.8,0,3.1-.9,3.5-2.3.3-1.1,1.3-1.7,2.4-1.5,1.1.3,1.7,1.4,1.5,2.4-.8,3.4-4.6,4.9-6.6,5.3,0,0-.3,0-.4,0"/>
  <path class="st2" d="M108.5,131s1.4-1.1,3-3.8"/>
  <path class="st7" d="M108.5,133c-.6,0-1.2-.3-1.6-.8-.7-.9-.5-2.1.4-2.8,0,0,1.2-1,2.5-3.2.6-.9,1.8-1.3,2.7-.7.9.6,1.3,1.8.7,2.7-1.7,2.9-3.3,4.2-3.5,4.3-.3.4-.7.5-1.2.5"/>
  <path class="st2" d="M76.9,150.1s1.4-1.1,3-3.8"/>
  <path class="st7" d="M76.9,152.1c-.6,0-1.2-.3-1.6-.8-.7-.9-.5-2.1.4-2.8,0,0,1.2-1,2.5-3.2.6-.9,1.8-1.3,2.7-.7.9.6,1.3,1.8.7,2.7-1.7,2.9-3.3,4.2-3.5,4.3-.4.4-.8.5-1.2.5"/>
  <path class="st2" d="M74.3,173.1s4.3-.8,5-3.8"/>
  <path class="st7" d="M74.3,175.1c-1,0-1.8-.7-2-1.7-.2-1.1.5-2.1,1.6-2.3.8,0,3.1-.9,3.5-2.3.3-1.1,1.3-1.7,2.4-1.5,1.1.3,1.7,1.4,1.5,2.4-.8,3.4-4.6,4.9-6.6,5.3,0,0-.2,0-.4,0"/>
  <path class="st8" d="M170.3,63.5l10.6-26c1.5-3.7,6.2-5,9.4-2.5,2.5,1.9,3.1,5.4,1.4,8.1l-16.6,26.2"/>
  <path class="st4" d="M170.3,63.5l10.6-26c1.5-3.7,6.2-5,9.4-2.5,2.5,1.9,3.1,5.4,1.4,8.1l-16.6,26.2"/>
  <path class="st2" d="M123,78.1s1.9-3.9,5-3.9"/>
  <path class="st7" d="M123,80.1c-.3,0-.6,0-.9-.2-1-.5-1.4-1.7-.9-2.7.9-1.9,3.3-5.1,6.8-5,1.1,0,2,.9,1.9,2,0,1.1-.9,2-2,1.9h0c-1.5,0-2.8,2.1-3.1,2.7-.3.8-1,1.3-1.8,1.3"/>
  <path class="st0" d="M194,74c-9-7.9-14.8-10.5-18.2-9.5-.1-3.9-2.2-9.5-7.1-17.3-17.7-28.3-62.2,4.5-62.2,4.5,0,0,23.1,11.8,42.6,17.5-11.6,12.6-21.7,32.8-21.7,32.8,0,0,37,16.4,49.5,2.2,5,17.5,11.5,34.2,11.5,34.2,0,0,35.1-38.4,5.6-64.4"/>
  <path class="st1" d="M193.9,74.1c-2.7-2.3-5.4-4.6-8.3-6.5-1.5-.9-3-1.8-4.7-2.4-.8-.3-1.7-.6-2.5-.7-.9,0-1.7,0-2.6,0h-.2c0,0,0,0,0,0-.1-1.8-.5-3.6-1.1-5.4-.6-1.7-1.4-3.4-2.2-5.1-.8-1.6-1.7-3.3-2.7-4.8-.9-1.6-2-3.1-3.1-4.5-2.3-2.8-5.3-5.1-8.6-6.5-3.4-1.4-7-2-10.7-1.9-7.3,0-14.5,2.4-21.2,5.3-6.7,3-13.2,6.6-19.1,10.9v-1.5c6.8,3.4,13.8,6.6,20.8,9.5,7.1,2.9,14.3,5.6,21.6,7.7l1.7.5-1.2,1.3c-2.2,2.4-4.2,4.9-6.1,7.6-1.9,2.6-3.8,5.3-5.5,8.1-1.8,2.8-3.4,5.6-5.1,8.4-1.6,2.8-3.2,5.7-4.6,8.6l-.6-1.8c3.9,1.6,8,3.1,12.1,4.3,4.1,1.2,8.3,2.2,12.5,2.8,2.1.3,4.2.5,6.3.6s4.2,0,6.2-.3c4.1-.6,8-2.1,10.6-5l1.9-2.1.8,2.7c1.6,5.8,3.4,11.5,5.3,17.2,1.9,5.7,3.8,11.4,5.9,17l-2.2-.4c2-2.1,3.8-4.5,5.5-6.9s3.4-4.9,4.8-7.5c2.9-5.2,5.3-10.7,6.6-16.5.6-2.9.9-5.9.9-8.9-.1-3-.6-5.9-1.5-8.8-1.5-6-5.3-10.9-9.7-15M194.1,73.9c4.5,4,8.3,9,10.3,14.8s1.6,5.9,1.8,8.9c.2,3.1-.1,6.1-.6,9.1-1,6-3.3,11.8-6,17.2-2.8,5.4-6.1,10.5-10.2,15.3l-1.4,1.6-.8-2c-1.1-2.8-2.2-5.6-3.3-8.4-1.1-2.8-2.1-5.7-3.1-8.5-2-5.7-3.8-11.5-5.5-17.3l2.7.6c-1.6,1.8-3.6,3.2-5.8,4.2-2.2.9-4.4,1.5-6.7,1.8-2.3.3-4.5.3-6.8.3-2.2,0-4.5-.3-6.7-.7-4.4-.7-8.7-1.8-12.9-3-4.2-1.3-8.3-2.8-12.4-4.6l-1.3-.6.6-1.2c1.5-3,3.1-5.8,4.8-8.7,1.7-2.8,3.4-5.7,5.2-8.4,1.8-2.8,3.7-5.5,5.7-8.1s4.1-5.2,6.4-7.7l.5,1.8c-7.4-2.2-14.6-5-21.8-8-7.1-3-14.1-6.3-21-9.8l-1.3-.6,1.2-.8c6.1-4.3,12.7-7.9,19.5-10.8,3.4-1.4,7-2.7,10.6-3.6,3.6-.9,7.4-1.5,11.1-1.4,3.7,0,7.5.7,11,2.2s6.5,3.9,8.8,6.9c1.1,1.5,2.2,3.1,3.1,4.7.9,1.6,1.8,3.2,2.6,4.9,1.6,3.3,3,6.9,3.2,10.6h-.2c.9-.4,1.8-.3,2.7-.2s1.7.4,2.6.7c1.7.6,3.2,1.5,4.7,2.5,3.3,1.7,6.1,4,8.7,6.3"/>
  <path class="st6" d="M233.4,76.2s-44,44.7,17.6,105.4c61.5,60.8,70.4,64.3,86.2,46.2,27.6-31.6,36.3-140.5-17.1-176.3-53.4-35.9-86.7,24.7-86.7,24.7"/>
  <path class="st9" d="M233.4,69.5s-44,44.7,17.6,105.4c61.5,60.8,70.4,64.3,86.2,46.2,27.6-31.6,36.3-140.5-17.1-176.3-53.4-35.8-86.7,24.7-86.7,24.7"/>
  <path class="st5" d="M233.5,69.6c-1.9,2-3.5,4.2-4.9,6.5-1.5,2.3-2.8,4.7-4,7.1-2.4,4.9-4,10.1-5,15.5-2,10.7-1,21.9,2.5,32.1,1.7,5.1,3.9,10.1,6.6,14.8l1,1.8,1.1,1.7,2.2,3.4,2.4,3.3c.8,1.1,1.6,2.2,2.4,3.3,1.7,2.1,3.4,4.3,5.2,6.3l2.7,3.1c.9,1,1.9,2,2.8,2.9l2.8,2.9,2.9,2.9,5.9,5.7c7.8,7.6,15.7,15.2,23.8,22.5,4,3.7,8.1,7.3,12.4,10.7,4.2,3.4,8.6,6.7,13.2,9.5,2.3,1.3,4.7,2.5,7.2,3.3,2.5.8,5.1,1.1,7.6.5,2.5-.6,4.7-1.9,6.7-3.6,2-1.7,3.9-3.7,5.6-5.7,3.4-4.1,6.2-8.8,8.4-13.7,2.2-4.9,4.1-10,5.7-15.2,1.5-5.2,2.8-10.5,3.8-15.8.6-2.7.9-5.3,1.3-8,.3-2.7.7-5.4.9-8.1,1-10.8,1.2-21.7.4-32.5-.8-10.8-2.6-21.5-5.5-31.9-.8-2.6-1.5-5.2-2.5-7.7l-1.4-3.8-1.6-3.7-.8-1.9-.9-1.8-1.8-3.6-2-3.5-1-1.7-1.1-1.7-2.3-3.3-2.5-3.1c-.4-.5-.8-1.1-1.3-1.6l-1.4-1.5c-.9-1-1.8-2-2.8-2.9l-3-2.7c-.5-.4-1-.9-1.5-1.3l-1.6-1.2c-1.1-.8-2.1-1.6-3.2-2.4l-3.4-2.2c-4.6-2.7-9.5-5.1-14.6-6.7-5.1-1.5-10.5-2.3-15.8-2.2-5.3,0-10.7,1.2-15.7,3.1s-9.7,4.7-14.1,7.9c-4.4,3.2-8.3,6.9-12,11-3.6,4.2-6.9,8.5-9.8,13.2M233.3,69.4c2.6-4.8,5.9-9.3,9.4-13.4,3.6-4.2,7.5-8.1,11.8-11.5,4.4-3.4,9.1-6.3,14.3-8.4,5.1-2.1,10.7-3.4,16.2-3.6,5.6-.3,11.2.5,16.6,2,5.4,1.6,10.4,4,15.2,6.7l3.5,2.2c1.2.7,2.3,1.6,3.4,2.4l1.7,1.2c.6.4,1.1.9,1.6,1.3l3.1,2.8c1,1,1.9,2,2.9,3l1.4,1.5c.5.5.9,1.1,1.3,1.6l2.6,3.2,2.4,3.4,1.2,1.7,1.1,1.8,2.1,3.6,1.9,3.7.9,1.9.8,1.9,1.7,3.8,1.4,3.9c1,2.6,1.7,5.2,2.6,7.9,3,10.6,4.7,21.6,5.5,32.6.8,11,.5,22-.6,33-.3,2.7-.7,5.5-1,8.2-.5,2.7-.8,5.4-1.4,8.1-1,5.4-2.4,10.7-4,16-1.6,5.3-3.6,10.4-5.9,15.4s-5.2,9.8-8.8,14.1c-1.8,2.1-3.7,4.1-5.9,5.9-2.2,1.8-4.7,3.3-7.6,4-2.9.7-5.9.2-8.6-.6-2.7-.9-5.2-2.1-7.6-3.5-4.8-2.9-9.1-6.2-13.4-9.7-4.2-3.5-8.3-7.1-12.4-10.8-8.1-7.4-15.9-15-23.7-22.7l-5.8-5.8-2.9-2.9-2.8-3c-.9-1-1.9-2-2.8-3l-2.7-3.1c-1.8-2-3.5-4.2-5.2-6.4-.9-1.1-1.6-2.2-2.4-3.3l-2.4-3.4-2.2-3.5-1.1-1.8-1-1.8c-2.7-4.8-4.9-9.9-6.6-15.1-3.4-10.4-4.4-21.7-2.3-32.5,1.1-5.4,2.8-10.6,5.2-15.6,1.2-2.5,2.5-4.9,4.1-7.1,1.7-2.1,3.3-4.3,5.2-6.3"/>
  <path class="st7" d="M338.9,169.9s1.8-7.4-.9-9.1"/>
  <path class="st7" d="M338.9,171.8c-.2,0-.3,0-.5,0-1.1-.3-1.7-1.3-1.5-2.4.8-3.2.6-6.5,0-6.9-.9-.6-1.2-1.8-.6-2.8.6-.9,1.8-1.2,2.8-.6,3.5,2.3,2.2,9.2,1.7,11.2-.1,1-1,1.6-1.9,1.6"/>
  <path class="st7" d="M295.3,177.2s1.9,3.8,3.9,3.7"/>
  <path class="st7" d="M299.1,182.9c-3,0-5.1-3.7-5.6-4.8-.5-1-.1-2.2.9-2.7s2.2,0,2.7.9c.6,1.2,1.6,2.5,2.1,2.6,1.1,0,2,.8,2,1.9s-.8,2-1.9,2.1h-.2"/>
  <path class="st7" d="M313.9,134.9s.7-4.3-1.9-6"/>
  <path class="st7" d="M313.9,136.9h-.3c-1.1-.2-1.8-1.2-1.7-2.3.1-.8.2-3.2-1-4-.9-.6-1.2-1.8-.6-2.8.6-.9,1.8-1.2,2.8-.6,2.9,1.9,3.1,5.9,2.8,8-.2,1-1,1.7-2,1.7"/>
  <path class="st7" d="M233,110.2s.2,4.6,1.4,6.3"/>
  <path class="st7" d="M234.5,118.5c-.6,0-1.2-.3-1.6-.8-1.4-2-1.8-6.1-1.8-7.3-.1-1.1.8-2,1.9-2.1,1.1,0,2,.8,2.1,1.9.1,1.9.6,4.5,1.1,5.2.7.9.5,2.1-.4,2.8-.5,0-.9.3-1.3.3"/>
  <path class="st7" d="M271.3,134.8s.2,4.6,1.4,6.3"/>
  <path class="st7" d="M272.7,143.1c-.6,0-1.2-.3-1.6-.8-1.5-2-1.8-6.5-1.8-7.3-.1-1.1.8-2,1.9-2.1s2,.8,2.1,1.9c.1,1.9.6,4.5,1.1,5.2.7.9.5,2.1-.4,2.8-.4.1-.8.3-1.3.3"/>
  <path class="st7" d="M308.9,68s.7-4.3-1.9-6"/>
  <path class="st7" d="M308.9,70h-.3c-1.1-.2-1.8-1.2-1.7-2.3.1-.8.2-3.2-1-4-.9-.6-1.2-1.8-.6-2.8.6-.9,1.8-1.2,2.8-.6,2.9,1.9,3.1,5.9,2.8,8-.2,1-1,1.7-2,1.7"/>
  <path class="st7" d="M248.1,145.1s-3.8-2.2-3.5-5.3"/>
  <path class="st7" d="M248.1,147.1c-.3,0-.7,0-1-.3-1.8-1-4.8-3.7-4.5-7.2.1-1.1,1.1-1.9,2.2-1.8,1.1,0,1.9,1.1,1.8,2.2-.1,1.5,1.9,3,2.5,3.3,1,.5,1.3,1.8.7,2.7-.4.7-1,1.1-1.7,1.1"/>
  <path class="st7" d="M319.6,99s-.5-4.3-3.5-5.2"/>
  <path class="st7" d="M319.6,101c-1,0-1.9-.7-2-1.7-.1-.8-.7-3.2-2.1-3.6-1.1-.3-1.6-1.4-1.3-2.5.3-1.1,1.4-1.6,2.5-1.3,3.3,1,4.6,4.8,4.9,6.9.1,1.1-.6,2.1-1.7,2.2h-.3"/>
  <path class="st7" d="M327.2,189.5s.7-4.3-1.9-6"/>
  <path class="st7" d="M327.2,191.5h-.3c-1.1-.2-1.8-1.2-1.7-2.3.1-.8.2-3.2-1-4-.9-.6-1.2-1.8-.6-2.8.6-.9,1.8-1.2,2.8-.6,2.9,1.9,3.1,5.9,2.8,8-.2,1-1,1.7-2,1.7"/>
  <path class="st7" d="M258.4,115.1s-3.8-2.2-3.5-5.3"/>
  <path class="st7" d="M258.4,117.1c-.3,0-.7,0-1-.3-1.8-1-4.8-3.7-4.5-7.2.1-1.1,1.1-1.9,2.2-1.8,1.1,0,1.9,1.1,1.8,2.2-.1,1.5,1.9,3,2.5,3.3,1,.5,1.3,1.8.7,2.7-.3.7-1,1.1-1.7,1.1"/>
  <path class="st7" d="M275.1,173.5s-3.8-2.2-3.5-5.3"/>
  <path class="st7" d="M275,175.5c-.3,0-.7,0-1-.3-1.8-1-4.8-3.7-4.5-7.2.1-1.1,1.1-1.9,2.2-1.8,1.1,0,1.9,1.1,1.8,2.2-.1,1.4,1.8,2.9,2.5,3.3.9.6,1.3,1.8.7,2.7-.3.7-1,1.1-1.7,1.1"/>
  <path class="st7" d="M333,122.9s.7-4.3-1.9-6"/>
  <path class="st7" d="M333,124.9h-.3c-1.1-.2-1.8-1.2-1.7-2.3.1-.8.2-3.2-1-4-.9-.6-1.2-1.8-.6-2.8.6-.9,1.8-1.2,2.8-.6,2.9,1.9,3.1,5.9,2.8,8,0,1-1,1.7-2,1.7"/>
  <path class="st7" d="M290.6,116.8s-.6-1.7-2.6-4.1"/>
  <path class="st7" d="M290.6,118.8c-.8,0-1.6-.5-1.9-1.3,0,0-.6-1.5-2.2-3.5-.7-.8-.6-2.1.3-2.8.8-.7,2.1-.6,2.8.2,2.2,2.6,2.9,4.5,2.9,4.7.3,1-.2,2.2-1.3,2.5-.2.2-.4.2-.6.2"/>
  <path class="st7" d="M298.3,153s-.6-1.7-2.6-4.1"/>
  <path class="st7" d="M298.3,155c-.8,0-1.6-.5-1.9-1.3,0,0-.6-1.5-2.2-3.5-.7-.8-.6-2.1.2-2.8.8-.7,2.1-.6,2.8.2,2.2,2.6,2.9,4.5,2.9,4.7.3,1-.2,2.2-1.3,2.5-.1.2-.3.2-.5.2"/>
  <path class="st7" d="M302.8,203.5s1.1,1.5,3.7,3.1"/>
  <path class="st7" d="M306.5,208.6c-.4,0-.7,0-1.1-.3-2.9-1.8-4.1-3.5-4.2-3.7-.6-.9-.4-2.1.5-2.8.9-.6,2.1-.4,2.8.4,0,0,1,1.3,3.1,2.6.9.6,1.2,1.8.6,2.8-.4.7-1.1,1-1.7,1"/>
  <path class="st7" d="M319.2,162.9s.7-4.3-1.9-6"/>
  <path class="st7" d="M319.2,164.9h-.3c-1.1-.2-1.8-1.2-1.7-2.3.1-.8.2-3.2-1-4-.9-.6-1.2-1.8-.6-2.8.6-.9,1.8-1.2,2.8-.6,2.9,1.9,3.1,5.9,2.8,8-.2,1-1,1.7-2,1.7"/>
  <path class="st8" d="M256.2,37.3l-23.3-24c-2.1-3.4-.4-7.9,3.5-9,3-.9,6.2.7,7.4,3.6l14.2,21.3"/>
  <path class="st4" d="M256.2,37.3l-23.3-24c-2.1-3.4-.4-7.9,3.5-9,3-.9,6.2.7,7.4,3.6l14.2,21.3"/>
  <path class="st1" d="M266.3,16c-3.1,1.8-6.1,3.6-8.8,5.8-1.4,1.1-2.7,2.3-3.8,3.6-.6.7-1.1,1.4-1.5,2.2-.4.8-.7,1.6-.7,2.5v.2h-.2c-1.7-.6-3.6-.8-5.4-.8s-3.7.2-5.5.4c-1.8.2-3.6.6-5.4,1-1.8.4-3.6.9-5.3,1.4-3.4,1.2-6.6,3.3-9,6-2.4,2.7-4.2,6-5.3,9.4-2.3,7-2.5,14.4-1.9,21.7.6,7.3,2,14.6,4,21.6l-1.4-.4c5.5-5.4,10.7-11,15.8-16.7,5.1-5.7,10-11.7,14.4-17.9l1-1.4.8,1.5c1.6,2.8,3.3,5.6,5.1,8.3,1.9,2.7,3.8,5.3,5.8,7.9,2,2.6,4.1,5.1,6.3,7.5,2.2,2.4,4.4,4.9,6.6,7.2h-1.9c2.8-3.2,5.5-6.6,8-10.1s4.8-7.1,6.7-10.9c1-1.9,1.9-3.8,2.6-5.8s1.4-4,1.8-6c.8-4,.7-8.2-1.2-11.6l-1.4-2.5,2.8.2c6,.3,12,.5,18,.6,6,0,12,0,18,0l-1.1,1.9c-1.4-2.5-3.1-5.1-4.8-7.5-1.7-2.4-3.6-4.8-5.5-7-3.9-4.4-8.4-8.5-13.5-11.6-2.5-1.5-5.2-2.8-8.1-3.7-2.8-.9-5.8-1.4-8.8-1.5-6-.1-11.9,1.8-17.2,4.6M266.2,15.8c5.3-3,11.2-4.9,17.3-4.9s6.1.4,9,1.2c2.9.8,5.8,2,8.4,3.5,5.4,2.9,10.1,7,14.3,11.3,4.2,4.4,8,9.2,11.1,14.6l1.1,1.8h-2.2c-3,.3-6,.4-9.1.4-3,0-6,0-9,0-6,0-12.1-.2-18.1-.5l1.4-2.3c1.2,2.1,1.9,4.5,2,6.8.2,2.4,0,4.7-.5,6.9-.4,2.2-1.2,4.4-2,6.5s-1.8,4.1-2.8,6.1c-2.1,3.9-4.5,7.6-7.1,11.2-2.6,3.6-5.3,7-8.4,10.2l-.9,1-1-1c-2.3-2.4-4.5-4.9-6.6-7.4-2.1-2.5-4.2-5.1-6.3-7.7-2-2.6-4-5.3-5.8-8-1.8-2.8-3.6-5.6-5.2-8.5h1.8c-4.5,6.4-9.5,12.3-14.7,18-5.2,5.7-10.5,11.3-16.1,16.6l-1,1-.4-1.4c-2-7.2-3.3-14.6-3.9-22-.2-3.7-.2-7.5.1-11.2s1-7.4,2.3-11c1.3-3.5,3.1-6.9,5.7-9.7,2.6-2.8,5.8-4.8,9.4-6,1.8-.6,3.6-1,5.4-1.4s3.7-.7,5.5-.9c3.7-.4,7.5-.6,11.1.4h-.2c0-.8.4-1.7.8-2.5.4-.8.9-1.5,1.5-2.2,1.2-1.4,2.5-2.5,3.9-3.6,3.1-1.8,6.1-3.7,9.2-5.4"/>
  <path class="st0" d="M266.3,15.9c-10.4,5.9-14.8,10.5-15,14.1-3.7-1.2-9.7-1-18.7,1-32.5,7.5-16.1,60.3-16.1,60.3,0,0,18.7-18,30.5-34.6,8.1,15.1,23.9,31.2,23.9,31.2,0,0,27.6-29.6,18.3-46.1,18.2,1,36.1.3,36.1.3,0,0-24.8-45.5-59-26.2"/>
</svg>