<?xml version="1.0" encoding="UTF-8"?>
<svg id="Section_3" xmlns="http://www.w3.org/2000/svg" version="1.1" viewBox="0 0 261.1 241.2">
  <!-- Generator: Adobe Illustrator 29.0.0, SVG Export Plug-In . SVG Version: 2.1.0 Build 186)  -->
  <defs>
    <style>
      .st0 {
        fill: #d7e02f;
      }

      .st1, .st2, .st3 {
        fill: none;
      }

      .st4 {
        fill: #b8d433;
      }

      .st2 {
        stroke-linecap: round;
      }

      .st2, .st5, .st3 {
        stroke-miterlimit: 10;
        stroke-width: 3px;
      }

      .st2, .st3 {
        stroke: #231f20;
      }

      .st5 {
        fill: #f4f3b9;
        stroke: #221f1f;
      }

      .st6 {
        fill: #f4f3b7;
      }
    </style>
  </defs>
  <path class="st4" d="M11.4,185.4c.9,4.6-1.8-4.5,0,0,19.9,49.9,91,68.4,158.9,41.4,67.9-27.1,97.4-86.7,86.8-139.4-7.2-36.1-15-53.5-26.6-65.6L11.4,185.4Z"/>
  <g>
    <path class="st3" d="M225,10.3c11.6,12.2,19.3,29.5,26.6,65.6,10.6,52.7-18.9,112.3-86.8,139.4-67.9,27.1-139,8.5-158.9-41.4-1.8-4.5.9,4.6,0,0"/>
    <ellipse class="st5" cx="117.2" cy="95.2" rx="137.5" ry="48.5" transform="translate(-33.7 89.7) rotate(-37)"/>
    <path class="st2" d="M240.3,117.7c-5.2,22-16.9,43.4-35.6,61.6"/>
    <g>
      <g>
        <ellipse class="st0" cx="116" cy="95" rx="116.6" ry="38.3" transform="translate(-33.7 86.7) rotate(-36.1)"/>
        <path class="st6" d="M134.2,124.3c.2,0,.2-.2.5-.2,1.9,0,5.5.7,4.1,5.6,0,0-.2.5-.3.6-1.7,1.2-3.3,2.4-5.1,3.6-1.7,1.2-3.4,2.4-5.2,3.5-4.6,3.1-9.4,6.1-14.2,9s-9.7,5.6-14.6,8.3c-9.9,5.3-20.2,9.9-31,13.5-5.4,1.8-10.9,3.4-16.5,4.5-1.4.3-2.9.5-4.3.7-1.4.2-2.9.4-4.4.5l-2.2.2h-2.2c-.7,0-1.5,0-2.2,0-.8,0-1.5,0-2.3-.2-3-.3-6.2-1.1-9.2-2.6-3-1.5-5.8-4.1-7.5-7.2-1.7-3.2-2.2-6.7-2.1-9.9,0-3.3.7-6.3,1.5-9.1,1.8-5.7,4.3-11,7.2-15.9s6.2-9.6,9.6-14.1c6.9-9,14.6-17.2,22.8-25,16.2-15.5,34-29.3,52.8-41.4,9.5-6,19.2-11.6,29.3-16.5,10.1-4.9,20.5-9.3,31.5-12.5,5.5-1.6,11.1-2.8,16.9-3.3,2.9-.2,5.9-.4,8.9-.2,3,.2,6.1.8,9.2,2.1,3,1.3,6,3.4,8,6.4,2,2.9,2.9,6.5,3,9.7.2,3.3-.3,6.4-1.1,9.3l-.3,1.1-.3,1c-.2.7-.5,1.4-.7,2.1-.6,1.4-1,2.8-1.7,4.1-2.4,5.3-5.3,10.3-8.5,15-3.2,4.7-6.7,9.2-10.3,13.5-7.2,8.7-15.1,16.7-23.4,24.3l-1.5,1.4-1.1,1-.3.3-.7.6-1.4,1.2c-.9.8-1.8,1.6-2.8,2.4,0,0-.6.4-1.5,1.1-1,.7-2.3,1.7-3.9,2.8s-3.4,2.3-5.3,3.5c-1.8,1.2-3.7,2.3-5.5,3.3-5.9,3.4-8,4-7.8,2.9.2-1,2.5-3.5,5.6-6.4-.2,0,.6-.6,2-1.9,1.4-1.2,3.2-2.9,5.1-4.6,3.7-3.4,7.4-7,7.4-7,.9-.7,1.8-1.5,2.6-2.3l1.4-1.2.3-.3.9-.8,1.5-1.4c2-1.8,3.9-3.7,5.9-5.5,7.7-7.5,15-15.4,21.6-23.8,3.3-4.2,6.3-8.6,9-13.1,2.7-4.5,5-9.2,6.4-14,.7-2.4,1.2-4.8,1.3-7.1s-.2-4.5-1.1-6.2-2.2-3.2-4.1-4.2c-1.8-1-4.1-1.7-6.4-2-1.2-.2-2.4-.2-3.7-.3-1.3,0-2.5,0-3.7,0-.6,0-1.3,0-1.9.2l-1.9.2c-1.3,0-2.5.4-3.8.6-5.2.9-10.3,2.3-15.3,4-10.1,3.3-19.9,7.7-29.4,12.7-9.5,4.9-18.9,10.4-27.8,16.4-9,6-17.7,12.3-26.2,19-2.1,1.7-4.2,3.4-6.3,5.1-2.1,1.8-4.1,3.5-6.1,5.3-4.1,3.6-8,7.2-11.9,11-7.6,7.6-14.9,15.5-21.2,24-3.2,4.3-6.1,8.7-8.7,13.2-2.5,4.5-4.7,9.3-5.8,14.1-.6,2.4-.9,4.8-.6,6.9.2,2.2.8,4.1,2,5.6,1.2,1.5,2.9,2.7,4.9,3.5s4.5,1.2,6.8,1.4c4.9.4,10.1-.3,15.2-1.4,5.1-1,10.2-2.5,15.3-4.3,5-1.8,9.9-3.7,14.9-6,4.9-2.1,9.7-4.5,14.5-7.1,4.8-2.5,9.5-5.2,14.1-8,4.6-2.8,9.1-5.6,13.7-8.7,1.7-1.1,3.3-2.2,5-3.4,1.4-1,3-2.2,4.7-3.4Z"/>
      </g>
      <g>
        <g>
          <line class="st1" x1="115.9" y1="95" x2="138.5" y2="125.9"/>
          <path class="st6" d="M113.5,97.9c0,0,0,0,0-.2.5-1.1,2.1-3.4,5.6-4.1h.4c.2.3,15.8,21.7,15.8,21.7,0,0,1.9,3.9,2.8,7,1.8,5.1-.8,4.4-3.3,2.3,0,.4-5.6-5.3-5.6-5.3,0,0-15.4-21-15.6-21.3Z"/>
        </g>
        <g>
          <line class="st1" x1="115.9" y1="95" x2="198.4" y2="68.2"/>
          <path class="st6" d="M119.5,97.7c-.2,0-.2,0-.5,0-1.9-.5-4.9-2.3-2.2-6.6,0,0,.3-.4.5-.5l11.7-3.8,35.9-11.6,6.5-2.1s11-2.8,18.9-4.1c13.3-2.6,8.7.6,1,4,.9,0-18.5,7.5-18.5,7.5l-5.6,1.8-35.9,11.6-11.8,3.9Z"/>
        </g>
        <g>
          <line class="st1" x1="115.9" y1="95" x2="210" y2="26.2"/>
          <path class="st6" d="M120.2,96.4c-.2,0-.2.2-.5.2-1.9,0-5.4-.6-4.1-5.6,0,0,.2-.5.3-.6l9.9-7.2,54.6-39.8,5.6-4.1s9.5-6,16.6-9.8c11.8-6.7,8.4-2.1,2.2,3.5.8-.4-15.3,12.9-15.3,12.9l-4.8,3.5-54.5,39.9-10.1,7.1Z"/>
        </g>
        <g>
          <line class="st1" x1="115.9" y1="95" x2="166.5" y2="24.5"/>
          <path class="st6" d="M120.4,95c0,.2-.2.2-.4.3-1.8.7-5.4,1-5.7-4,0,0,0-.5,0-.6l7.2-10,22-30.6,4-5.6s7.2-8.8,12.7-14.5c9.1-10,7.3-4.7,3.2,2.6.6-.6-10.5,17-10.5,17l-3.4,4.8-22,30.6-7.1,9.9Z"/>
        </g>
        <g>
          <line class="st1" x1="115.9" y1="95" x2="93.4" y2="64.1"/>
          <path class="st6" d="M118.3,92c0,0,0,0,0,.2-.5,1.1-2.1,3.4-5.6,4.1h-.4c-.2-.3-15.8-21.7-15.8-21.7,0,0-1.9-3.9-2.8-7-1.8-5.1.8-4.4,3.3-2.3,0-.4,5.6,5.3,5.6,5.3,0,0,15.4,21,15.6,21.3Z"/>
        </g>
        <g>
          <line class="st1" x1="115.9" y1="95" x2="33.4" y2="121.7"/>
          <path class="st6" d="M112.3,92.2c.2,0,.2,0,.5,0,1.9.5,4.9,2.3,2.2,6.6,0,0-.3.4-.5.5l-11.7,3.8-35.9,11.6-6.5,2.1s-11,2.8-18.9,4.1c-13.3,2.6-8.7-.6-1-4-.9,0,18.5-7.5,18.5-7.5l5.6-1.8,35.9-11.6,11.8-3.9Z"/>
        </g>
        <g>
          <line class="st1" x1="115.9" y1="95" x2="21.8" y2="163.7"/>
          <path class="st6" d="M111.6,93.5c.2,0,.2-.2.5-.2,1.9,0,5.4.6,4.1,5.6,0,0-.2.5-.3.6l-9.9,7.2-54.6,39.8-5.6,4.1s-9.5,6-16.6,9.8c-11.8,6.7-8.4,2.1-2.2-3.5-.8.4,15.3-12.9,15.3-12.9l4.8-3.5,54.5-39.9,10.1-7.1Z"/>
        </g>
        <g>
          <line class="st1" x1="115.9" y1="95" x2="65.3" y2="165.4"/>
          <path class="st6" d="M111.3,94.9c0-.2.2-.2.4-.3,1.8-.7,5.4-1,5.7,4,0,0,0,.5,0,.6l-7.2,10-22,30.6-4,5.6s-7.2,8.8-12.7,14.5c-9.1,10-7.3,4.7-3.2-2.6-.6.6,10.5-17,10.5-17l3.4-4.8,22-30.6,7.1-9.9Z"/>
        </g>
      </g>
    </g>
  </g>
</svg>