<?xml version="1.0" encoding="UTF-8"?>
<svg id="Section_3" xmlns="http://www.w3.org/2000/svg" version="1.1" viewBox="0 0 300 300">
  <!-- Generator: Adobe Illustrator 29.0.0, SVG Export Plug-In . SVG Version: 2.1.0 Build 186)  -->
  <defs>
    <style>
      .st0 {
        fill: #f9f4e9;
      }

      .st1 {
        fill: #ef564a;
      }
    </style>
  </defs>
  <circle class="st1" cx="150" cy="149.9" r="146"/>
  <g id="_x31_15_x2C__Fruit_x2C__Food_x2C__Lemon">
    <g>
      <path class="st0" d="M182.4,119.3c-1.6,1.6-1.6,4.2,0,5.8,16.3,16.3,18.9,40.7,5.4,53.8-1.6,1.6-1.6,4.2,0,5.8s4.2,1.6,5.8,0c16.3-16.3,13.8-45.8-5.4-65.3-1.6-1.7-4.2-1.7-5.8-.1Z"/>
      <path class="st0" d="M120,140.7c0-2.2-1.6-4.2-3.8-4.2s-4.2,1.6-4.2,3.8c0,13.8,5.8,27.5,16.3,38.1,1.6,1.6,4.2,1.6,5.8,0,1.6-1.6,1.6-4.2,0-5.8-9-8.5-14.1-20.4-14.1-31.9Z"/>
      <path class="st0" d="M225.4,148.1c-7-36.8-41.6-67.3-79.1-67.3s-19.5,2.2-27.5,6.7c-6.1-3.8-14.4-3.2-19.9,2.2-5.4,5.4-6.1,13.5-2.2,19.9-6.1,11.9-8,26.3-5.4,40.7,7,36.8,42,67.3,79.1,67.3s19.5-2.2,27.5-6.7c6.1,3.8,14.4,3.2,19.9-2.2,5.4-5.4,6.1-13.5,2.2-19.9,6.3-11.9,8.2-26.3,5.4-40.7ZM211.9,187.2c-1,1.6-.6,3.5.6,4.8,2.9,3.2,2.9,8-.3,11.2-3.2,3.2-8,3.2-11.2.3-1.3-1.3-3.2-1.3-4.8-.6-7.4,4.5-16.3,6.7-25.9,6.7-17.9,0-36.2-8-50.3-22.1-22.1-22.1-28.5-54.1-15.4-76.2,1-1.6.6-3.5-.6-4.8-2.9-3.2-2.9-8,.3-11.2,3.2-3.2,8-3.2,11.2-.3,1.3,1.3,3.2,1.3,4.8.6,7.4-4.5,16.3-6.7,25.9-6.7,17.9,0,36.2,8,50.3,22.1,22.1,22,28.5,54.1,15.4,76.2Z"/>
      <path class="st0" d="M144.3,181.7c2.3,0,4.2,1.9,4.2,4.2s-1.9,4.2-4.2,4.2-4.2-1.9-4.2-4.2,1.9-4.2,4.2-4.2Z"/>
    </g>
  </g>
</svg>