<?xml version="1.0" encoding="UTF-8"?>
<svg id="Capa_1" xmlns="http://www.w3.org/2000/svg" version="1.1" viewBox="0 0 1920 1080">
  <!-- Generator: Adobe Illustrator 29.0.0, SVG Export Plug-In . SVG Version: 2.1.0 Build 186)  -->
  <defs>
    <style>
      .st0 {
        fill: #770e0e;
      }

      .st1 {
        fill: #b8d432;
      }

      .st2 {
        fill: #4af0e7;
      }

      .st3 {
        fill: #ff0c38;
      }

      .st4 {
        fill: #067e3e;
      }

      .st5 {
        fill: #c5ef8e;
      }

      .st6 {
        fill: #d7df2d;
      }

      .st7 {
        fill: #f8f3e8;
      }

      .st8 {
        fill: #e6224a;
      }

      .st9, .st10 {
        fill: #fff;
      }

      .st11, .st12 {
        fill: #fece2e;
      }

      .st13 {
        stroke-linejoin: round;
      }

      .st13, .st14, .st15, .st16, .st12, .st17, .st18, .st19, .st10 {
        stroke-width: 3px;
      }

      .st13, .st15, .st16 {
        stroke: #826515;
      }

      .st13, .st16, .st10 {
        stroke-linecap: round;
      }

      .st13, .st20 {
        fill: #826515;
      }

      .st21, .st14 {
        fill: #29242b;
      }

      .st22, .st15, .st16, .st19 {
        fill: none;
      }

      .st23 {
        fill: #dbc697;
      }

      .st24 {
        fill: #af4e0c;
      }

      .st14, .st15, .st16, .st12, .st17, .st18, .st19, .st10 {
        stroke-miterlimit: 10;
      }

      .st14, .st17, .st18, .st19, .st10 {
        stroke: #231f20;
      }

      .st25 {
        fill: #ffff9d;
      }

      .st26 {
        fill: #231f20;
      }

      .st27 {
        fill: #445434;
      }

      .st28 {
        fill: #f7f6e4;
      }

      .st29 {
        fill: #4ae0e7;
      }

      .st30, .st18 {
        fill: #262625;
      }

      .st31 {
        fill: #fa7a53;
      }

      .st32 {
        fill: #5c8708;
      }

      .st12 {
        stroke: #443338;
      }

      .st33 {
        fill: #514943;
      }

      .st34 {
        fill: #462e24;
      }

      .st17, .st35 {
        fill: #f2ece2;
      }

      .st36 {
        fill: #cb1925;
      }

      .st37 {
        fill: #de2a35;
      }

      .st38 {
        fill: #a5a52f;
      }

      .st39 {
        fill: #f5f5be;
      }

      .st40 {
        fill: #d1af5d;
      }

      .st41 {
        fill: #9d512d;
      }

      .st42 {
        fill: #513824;
      }

      .st43 {
        fill: #201d21;
      }

      .st44 {
        fill: #445629;
      }

      .st45 {
        fill: #161414;
      }

      .st46 {
        fill: #f4cc92;
      }

      .st47 {
        fill: #f4f3b7;
      }

      .st48 {
        fill: #dd4a17;
      }

      .st49 {
        fill: #e6e6e6;
      }

      .st50 {
        fill: #e2ca20;
      }
    </style>
  </defs>
  <rect class="st8" x="-118.5" y="-7" width="2069.8" height="1091"/>
  <path class="st25" d="M619.6,679.2c3.4-27.9,8.9-55.8,10.6-83.9,1.4-23.8-1.6-49-11.4-70.5-9-19.6-24.4-32-37.1-48.4-6.7-8.6-11.8-18.4-12.9-29.8-1.2-12.3,1.4-24.6,2.6-36.8,1.1-11.1,1.3-22.4-2-33.1-3.2-10.3-9.4-18.8-15.6-27.1-6.9-9.3-12.8-18.7-17.6-29.7-1.5-3.5-2.7-7-3.5-10.4,0,0,0,0,0,0h-83.3c-.8,3.4-2,6.9-3.5,10.4-1,2.4-2.1,4.7-3.3,6.9-.9-.4-1.8-.7-2.6-1.1-.6-.2-.9.6-.5,1,.7.7,1.5,1.3,2.2,1.9-3.9,7.4-8.3,14.2-13.4,20.9-6.1,8.3-12.4,16.8-15.6,27.1-3.3,10.7-3.1,22-2,33.1,1.2,12.2,3.8,24.5,2.6,36.8-1.1,11.4-6.2,21.2-12.9,29.8-12.7,16.3-28.1,28.7-37.1,48.4-9.8,21.4-12.9,46.7-11.4,70.5,1.7,28.1,7.2,56,10.6,83.9,3.4,27.9,5.5,56.2,6.5,84.4.2,6.5.4,13.1.3,19.6-.3.1-.7.3-1,.4-.2,0-.2.3,0,.4.3.5.7,1,1,1.5-.3,8.7-1.1,17.4-3.3,25.9-3.4,13.5-8.8,26.1-11.1,39.9-2.9,17.2,2.8,42.3,19.9,46.5,10.4,8.3,24.4,11,37.4,12.6,25.3,3.1,50.9,5.1,76.3,5.8,23.9.7,48,.4,71.8-2.2,13.4-1.4,35.4-4.1,46.3-16.1,17.6-3.7,23.5-29.2,20.6-46.7-2.3-13.8-7.8-26.5-11.1-39.9-3.9-15.6-3.6-31.9-3-47.9,1-28.2,3.1-56.4,6.5-84.4Z"/>
  <g>
    <path class="st11" d="M1425.5,807.9s-80.4-94-232.9,65.7c-152.5,159.7-174.2,156.3-141.6,205,32.6,48.7,278.5,65.7,370.6-72.5,92-138.2,4-198.1,4-198.1Z"/>
    <path class="st20" d="M1273.7,1055.6c-37,19.6-80.5,29.5-122.1,22.6,0,0,0-.3,0-.3,20.9.3,41.7-.4,62.4-3.6,10.3-1.7,20.5-4.1,30.4-7.3,10-3.1,19.7-7,29.1-11.7,0,0,.1.3.1.3h0Z"/>
  </g>
  <g>
    <path class="st31" d="M802.8,402.3c-3,23.9,2.9,50.6,25.4,98.5,32.9,69.9,81.1,92.1,219.5,86.8,104.9-4,167.8-109,148.1-183.7-1.8-6.7,3,6.1,0,0"/>
    <ellipse class="st9" cx="1000" cy="408.5" rx="69.7" ry="197.6" transform="translate(583.1 1404.9) rotate(-89.5)"/>
    <path class="st9" d="M872.4,458.2c2.3-11.5,15.6-70,55.2-113.4,14.6-16,31.3-28.4,49.6-36.7,20.4-9.2,33.1-21.5,37.6-36.4,5.6-18.4-2.9-34.9-6.8-41.2-.3-.5,0-1,0-1.2.2-.2.5-.5,1-.3,11.8,3.9,31.6,15.5,31.6,49.3,0,31.7,9,50.7,32,67.8,12.2,9.1,28.7,17.8,45.9,26.7,47.4,24.5,43.7,66.8,42.6,74.4-36.8,18.4-97.2,29-161.7,28.5-46.7-.4-91.7-6.6-127-17.6Z"/>
    <g>
      <path class="st9" d="M1109.3,370.8s-55.5-14-58.2,23.6c-2.7,37.6-74.9,18.7-74.9,18.7"/>
      <path class="st23" d="M1109.2,371c-19.8-4.1-53.4-5.2-56.8,21-.9,36.1-52.9,28.5-76.3,21.2-.2,0-.1-.3,0-.3,13.1,2.3,26.3,3.8,39.3,3.4,12-.6,27.5-2.7,32.8-15.1,1.3-2.9,1.5-6.3,1.9-9.4.6-3.4,1.6-6.7,3.3-9.7,7.1-12.4,23-14.7,36-14.1,6.7.3,13.3,1.2,19.7,2.8,0,0,.1.1.1.2,0,0-.1.1-.2.1h0Z"/>
    </g>
    <path class="st23" d="M1029,337.4c-21.8,19.4-55.7,33.3-83.3,18-4-2.2-7.9-5.1-11.3-8.2-1.7-1.5-3.2-3.3-4.8-5-.1-.1,0-.3.2-.2,7.2,5.7,14.8,10.7,23.3,13.6,22.4,8.2,44.9,1.7,64.5-10.4,3.9-2.4,7.7-5,11.2-8,.1-.1.4,0,.2.2h0Z"/>
  </g>
  <g>
    <path class="st2" d="M931.9-54.4l20.9-26.9c10-12.8,30.5-5.3,29.9,10.9l-1.5,41.6c-.4,10.9,9.5,19.2,20.2,16.9l53.5-11.5c11.8-2.5,20,11.6,11.9,20.5l-17.1,19c-17.2,19-11.9,49.2,10.8,61.2l11,5.8c14.3,7.6,10.5,29.1-5.5,31.3l-41.2,5.7c-10.8,1.5-17.3,12.7-13.2,22.8l7.8,19.2c6.8,16.7-11.8,32.3-27.1,22.7l-14.2-8.9c-13.1-8.2-30.5-1.9-35.2,12.8l-12.8,39.6c-5,15.4-26.8,15.4-31.8,0l-10.3-31.9c-4.6-14.2-21.4-20.3-34-12.4l-28.4,17.8c-13.7,8.6-30.5-5.4-24.3-20.4l25.5-46.7c4.1-10.1-2.4-21.3-13.2-22.8l-33.8,4.8c-16.2-2.2-20-23.9-5.6-31.6l25.6-13.5c10.1-5.3,12.4-18.7,4.8-27.1l-34.1-37.7c-10.9-12,0-30.9,15.9-27.5l22.5,4.8c14,3,25.1-6.3,24.5-20.6l-1.1-29.1c-.9-23.5,28.8-34.3,43.2-15.7l20.9,26.9c9,11.6,26.5,11.6,35.5,0Z"/>
    <path class="st2" d="M926.7-84.7c-3.8,4.5-6.1,8-6.8,2.2-2.7-22.7-1.1-82,35.5-61.3,6.5,3.7,12.1,14.8-8,34.2-7.3,7-15.6,18.9-20.7,25Z"/>
    <path class="st2" d="M1048.1,149.8c-3.1-5-5.8-8.2,0-7.1,22.4,4.3,78.5,23.8,47.7,52.4-5.4,5-17.7,7.1-30.1-18s-13.3-20.6-17.5-27.3Z"/>
    <path class="st2" d="M867.3,220c-.9-5.8-1.1-10-4.7-5.3-13.9,18.2-42.9,69.9-.8,70.8,7.4.2,17.9-6.5,10.6-33.4-2.7-9.7-3.8-24.2-5-32Z"/>
    <path class="st29" d="M750.7,52.6c5.8,1,10,1.3,5.3,4.8-18.3,13.7-70.4,42.1-70.8,0,0-7.4,6.7-17.9,33.6-10.2,9.7,2.8,24.2,4,32,5.4Z"/>
  </g>
  <g>
    <path class="st2" d="M1691.5,368.7l20.9-26.9c10-12.8,30.5-5.3,29.9,10.9l-1.5,41.6c-.4,10.9,9.5,19.2,20.2,16.9l53.5-11.5c11.8-2.5,20,11.6,11.9,20.5l-17.1,19c-17.2,19-11.9,49.2,10.8,61.2l11,5.8c14.3,7.6,10.5,29.1-5.5,31.3l-41.2,5.7c-10.8,1.5-17.3,12.7-13.2,22.8l7.8,19.2c6.8,16.7-11.8,32.3-27.1,22.7l-14.2-8.9c-13.1-8.2-30.5-1.9-35.2,12.8l-12.8,39.6c-5,15.4-26.8,15.4-31.8,0l-10.3-31.9c-4.6-14.2-21.4-20.3-34-12.4l-28.4,17.8c-13.7,8.6-30.5-5.4-24.3-20.4l25.5-46.7c4.1-10.1-2.4-21.3-13.2-22.8l-33.8,4.8c-16.2-2.2-20-23.9-5.6-31.6l25.6-13.5c10.1-5.3,12.4-18.7,4.8-27.1l-34.1-37.7c-10.9-12,0-30.9,15.9-27.5l22.5,4.8c14,3,25.1-6.3,24.5-20.6l-1.1-29.1c-.9-23.5,28.8-34.3,43.2-15.7l20.9,26.9c9,11.6,26.5,11.6,35.5,0Z"/>
    <path class="st2" d="M1686.3,338.4c-3.8,4.5-6.1,8-6.8,2.2-2.7-22.7-1.1-82,35.5-61.3,6.5,3.7,12.1,14.8-8,34.2-7.3,7-15.6,18.9-20.7,25Z"/>
    <path class="st29" d="M1807.8,572.9c-3.1-5-5.8-8.2,0-7.1,22.4,4.3,78.5,23.8,47.7,52.4-5.4,5-17.7,7.1-30.1-18-4.5-9-13.3-20.6-17.5-27.3Z"/>
    <path class="st2" d="M1627,643c-.9-5.8-1.1-10-4.7-5.3-13.9,18.2-42.9,69.9-.8,70.8,7.4.2,17.9-6.5,10.6-33.4-2.7-9.7-3.8-24.2-5-32Z"/>
    <path class="st29" d="M1510.4,475.6c5.8,1,10,1.3,5.3,4.8-18.3,13.7-70.4,42.1-70.8,0,0-7.4,6.7-17.9,33.6-10.2,9.7,2.8,24.2,4,32,5.4Z"/>
  </g>
  <path class="st42" d="M499.3,420.2c44.2,15.2,92,21,138.4,15.2,64.5-8.1,126.3-40.3,163-95.2,17.8-26.6,26.7-55.8,31.7-87.1,4.9-30.8,9.1-64.3.5-94.9h0c-.3-6.9-2.4-5.8-2.4-13.5,0-93-99.9-153.1-226.3-153.1s-212,76.9-228.8,168.3c-11.5,62.6-10.1,95.5.7,122.4l123.3,137.7"/>
  <ellipse class="st7" cx="605.3" cy="110.6" rx="17.6" ry="13.5" transform="translate(-7.8 163.2) rotate(-15.3)"/>
  <ellipse class="st7" cx="677" cy="148.1" rx="17.6" ry="13.5" transform="translate(-15.1 183.4) rotate(-15.3)"/>
  <ellipse class="st7" cx="589.1" cy="165.9" rx="17.6" ry="13.5" transform="translate(-22.9 160.9) rotate(-15.3)"/>
  <path class="st1" d="M888.7,132.3c-2.2,6.4,1-6.8,0,0-11,76.4,64.3,150.5,168.2,165.5,103.9,15,183.4-38.1,208.1-111.3,16.9-50.1,19.6-77.3,13.9-100.8l-390.2,46.6Z"/>
  <g>
    <path class="st19" d="M1149.7,81.3"/>
    <path class="st22" d="M1280.3,67.4c5.7,23.4,2.9,50.6-13.9,100.8-24.6,73.2-104.2,126.3-208.1,111.3-103.9-15-179.2-89-168.2-165.5,1-6.8-2.2,6.4,0,0"/>
    <ellipse class="st47" cx="1085.2" cy="96.1" rx="197.6" ry="69.7" transform="translate(-3.6 134.3) rotate(-7.1)"/>
    <path class="st19" d="M877.3,190.7"/>
    <path class="st32" d="M1222.4,212.3c-22.8,25.2-54.5,45.7-88.5,51.2,0,0,0-.3,0-.3,16.2-5.8,32.1-12.1,47.3-20.2,7.5-4.1,14.7-8.8,21.6-14,6.9-5.1,13.4-10.8,19.4-17,0,0,.2.2.2.2h0Z"/>
    <g>
      <g>
        <path class="st6" d="M1089.6,149.2c-92,10-169.2-6.3-172.4-36.5-3.3-30.2,68.5-62.7,160.6-72.7,92-10,169.2,6.3,172.4,36.5,3.3,30.2-68.5,62.7-160.6,72.7Z"/>
        <path class="st39" d="M1085.9,144.9c.2,0,.3,0,.6.2,2.2,1.1,5.5,4.2,1,8.7,0,0-.5.4-.7.5-.3,0-6,.6-14.4,1.3-1.9.1-3.8.3-5.8.4-5.8.4-11.7.6-17.7.8-12,.3-24.5.2-37.2-.6-12.8-.8-25.9-2.2-39.1-4.8-6.6-1.3-13.3-2.9-19.9-5-6.6-2.1-13.3-4.6-19.7-8.1-3.2-1.8-6.3-3.8-9.3-6.3-2.9-2.5-5.7-5.4-7.9-9-2.2-3.6-3.5-8-3.4-12.3,0-4.4,1.3-8.6,3.2-12.2,1.9-3.6,4.3-6.8,7-9.6,2.6-2.8,5.5-5.3,8.5-7.6,5.9-4.6,12.3-8.4,18.9-11.9,13.1-6.8,26.9-12.1,40.9-16.5,14.1-4.4,28.4-8,42.8-10.8,28.9-5.7,58.2-8.9,87.1-9.5,14.5-.3,28.8,0,43,1.2,14.2,1.2,28.1,3.2,41.7,6.6,6.8,1.7,13.4,3.8,19.9,6.4,6.4,2.7,12.7,5.9,18.4,10.6,2.8,2.3,5.4,5.1,7.4,8.4,2,3.3,3.5,7.2,3.7,11.2.1,2,0,4-.3,5.9-.4,1.9-.9,3.7-1.7,5.5-.7,1.7-1.6,3.3-2.5,4.9-1,1.5-2,2.9-3.1,4.3-4.4,5.4-9.4,9.5-14.6,13.2-5.2,3.6-10.5,6.7-15.9,9.5-10.7,5.5-21.5,9.8-31.9,13.4-10.4,3.6-20.6,6.5-30.3,8.9-4.9,1.2-9.6,2.3-14.3,3.3-2.3.5-4.6.9-6.9,1.4-.4,0-.8.2-1.1.2-1.6.3-3.1.6-4.3.8-2.4.4-3.7.7-3.7.7,0,0-3.6.4-8.4.8-4.8.4-10.9.6-16,.6-8.5,0-11.2-.7-10.4-1.7.8-1,5-2.2,10-3.5-.6,0,5.6-1.2,11.8-2.6,6.2-1.4,12.5-2.9,12.5-2.9,0,0,1.3-.2,3.6-.7.6-.1,1.2-.2,1.9-.4,2.2-.4,4.6-.9,7.2-1.4,16.8-3.6,35.8-8.4,55.4-16,9.8-3.8,19.8-8.3,29.4-14.1,4.8-2.9,9.4-6.1,13.5-9.9,4.1-3.7,7.7-8,9.6-12.7,1.9-4.7,1.6-9.5-1.2-13.8-1.3-2.2-3.2-4.2-5.3-6-2.2-1.8-4.6-3.5-7.2-5-5.2-3-11.1-5.3-17.1-7.3-6.1-2-12.4-3.6-18.8-4.9-12.9-2.6-26.3-4.2-39.9-5-13.6-.8-27.5-.9-41.5-.4-27.9,1.1-56.3,4.5-84.1,10.4-13.9,3-27.7,6.6-41.1,11.1-13.4,4.5-26.4,9.8-38.4,16.5-6,3.4-11.7,7.1-16.6,11.5-2.5,2.2-4.7,4.5-6.6,6.9-1.9,2.5-3.4,5.1-4.2,7.7-1.7,5.3-.3,10.5,3.5,14.9,1.9,2.2,4.2,4.2,6.7,6,2.5,1.8,5.3,3.3,8.2,4.7,5.8,2.8,11.9,4.9,18.1,6.7,6.2,1.8,12.5,3.2,18.8,4.3,12.6,2.2,25.2,3.5,37.4,4.2,12.3.7,24.3.7,35.9.3,5.8-.2,11.5-.5,17.1-.9,1.2,0,2.5-.2,3.6-.3,8.1-.6,13.6-1.2,13.9-1.2Z"/>
      </g>
      <g>
        <g>
          <line class="st6" x1="1083.7" y1="94.6" x2="1089.6" y2="149.2"/>
          <path class="st39" d="M1079.2,96.5c0,0,0-.1.2-.3,1.2-1,4.4-2.7,8.7-1,0,0,.4.2.4.3,0,.5,4.1,38.3,4.1,38.3,0,0-.3,6.3-1.2,10.7-1.2,7.5-3.5,4.8-5.1.4-.2.5-2.9-10.7-2.9-10.7,0,0-4.1-37.3-4.1-37.8Z"/>
        </g>
        <g>
          <line class="st6" x1="1083.7" y1="94.6" x2="1205.6" y2="120.4"/>
          <path class="st39" d="M1085.9,99.8c-.2,0-.3,0-.5-.3-1.7-1.7-3.9-5.6,1.7-8.6.1,0,.6-.2.8-.2l15.1,3.2,61.7,13.1,8.4,1.8s13.7,3.9,23.1,7.3c16.1,5.4,9.1,6.1-1.4,5,1,.4-24.9-3.5-24.9-3.5l-7.2-1.5-61.7-13.1-15.1-3.2Z"/>
        </g>
        <g>
          <line class="st6" x1="1083.7" y1="94.6" x2="1250.2" y2="76.5"/>
          <path class="st39" d="M1087.4,98.9c-.2,0-.3,0-.6-.2-2.2-1.1-5.5-4.1-1.1-8.7,0,0,.5-.4.7-.5l15.4-1.7,113.8-12.4s14.2-.6,24.3-.2c17,.1,10.5,2.9.2,5.2,1.1,0-24.7,4.5-24.7,4.5l-112.6,12.2-15.4,1.7Z"/>
        </g>
        <g>
          <line class="st6" x1="1083.7" y1="94.6" x2="1197.2" y2="43.2"/>
          <path class="st39" d="M1088.6,97.5c-.2,0-.3.1-.6,0-2.4-.4-6.5-2.2-3.7-7.9,0-.1.3-.5.5-.6l14.1-6.4,57.4-26,7.9-3.6s13.3-5,23-7.8c16.2-5.2,10.9-.5,1.8,4.8,1.1-.3-22.1,11.9-22.1,11.9l-6.7,3.1-57.4,26-14.1,6.4Z"/>
        </g>
        <g>
          <line class="st6" x1="1083.7" y1="94.6" x2="1077.7" y2="40"/>
          <path class="st39" d="M1088.2,92.7c0,0,0,.1-.2.3-1.2,1-4.4,2.7-8.7,1,0,0-.4-.2-.4-.3,0-.5-4.1-38.3-4.1-38.3,0,0,.3-6.3,1.2-10.7,1.2-7.5,3.5-4.8,5.1-.4.2-.5,2.9,10.7,2.9,10.7,0,0,4.1,37.3,4.1,37.8Z"/>
        </g>
        <g>
          <line class="st6" x1="1083.7" y1="94.6" x2="961.7" y2="68.8"/>
          <path class="st39" d="M1081.4,89.4c.2,0,.3,0,.5.3,1.7,1.7,3.9,5.6-1.7,8.6-.1,0-.6.2-.8.2l-15.1-3.2-61.7-13.1-8.4-1.8s-13.7-3.9-23.1-7.3c-16.1-5.4-9.1-6.1,1.4-5-1-.4,24.9,3.5,24.9,3.5l7.2,1.5,61.7,13.1,15.1,3.2Z"/>
        </g>
        <g>
          <line class="st6" x1="1083.7" y1="94.6" x2="917.2" y2="112.7"/>
          <path class="st39" d="M1079.9,90.3c.2,0,.3,0,.6.2,2.2,1.1,5.5,4.1,1.1,8.7,0,0-.5.4-.7.5l-15.4,1.7-113.8,12.4s-14.2.6-24.3.2c-17-.1-10.5-2.9-.2-5.2-1.1,0,24.7-4.5,24.7-4.5l112.6-12.2,15.4-1.7Z"/>
        </g>
        <g>
          <line class="st6" x1="1083.7" y1="94.6" x2="970.1" y2="146"/>
          <path class="st39" d="M1078.8,91.7c.2,0,.3-.1.6,0,2.4.4,6.5,2.2,3.7,7.9,0,.1-.3.5-.5.6l-14.1,6.4-57.4,26-7.9,3.6s-13.3,5-23,7.8c-16.2,5.2-10.9.5-1.8-4.8-1.1.3,22.1-11.9,22.1-11.9l6.7-3.1,57.4-26,14.1-6.4Z"/>
        </g>
      </g>
    </g>
  </g>
  <g>
    <g>
      <g>
        <ellipse class="st45" cx="1163.1" cy="715.4" rx="54" ry="153.1" transform="translate(323.7 1792.4) rotate(-83.7)"/>
        <path class="st35" d="M1174.4,659.6h0c1.3-2.1,11.1-.6,10.9,1.6h0c-.3,2.1,8.5,3.6,10.6,1.9h0c2.3-1.9,11.8,0,10.5,2.1h0c-1.2,1.9,7.1,3.9,10.2,2.4h0c3.3-1.6,12.3.8,9.9,2.6h0c-2.2,1.7,5.6,4,9.4,2.8h0c4.2-1.3,12.4,1.4,9.1,3h0c-3.1,1.5,3.9,4.1,8.5,3.2h0c5-1,12.2,2.1,8,3.4h0c-3.9,1.2,2.1,4.1,7.3,3.5h0c5.6-.6,11.7,2.6,6.8,3.6h0c-4.6.9.3,3.9,6,3.7h0c6.1-.3,11,3.1,5.3,3.8h0c-5.2.6-1.5,3.7,4.5,3.8h0c6.5.1,9.9,3.6,3.8,3.8h0c-5.7.2-3.3,3.4,2.9,3.8h0c6.7.5,8.6,3.9,2.1,3.8h0c-6,0-5,3,1.3,3.7h0c6.8.8,7.1,4.2.4,3.7h0c-6.2-.4-6.6,2.5-.4,3.6h0c6.6,1.2,5.5,4.3-1.3,3.5h0c-6.2-.8-8,1.9-2.1,3.3h0c6.3,1.5,3.6,4.4-3,3.2h0c-6.1-1.1-9.2,1.4-3.8,3h0c5.9,1.8,1.7,4.3-4.6,2.8h0c-5.9-1.4-10.2.7-5.3,2.6h0c5.3,2-.2,4.1-6.1,2.4h0c-5.4-1.6-11,.1-6.7,2.1h0c4.6,2.2-2.1,3.8-7.4,1.9h0c-4.9-1.8-11.4-.5-8,1.6h0c3.8,2.3-4,3.5-8.6,1.3h0c-4.2-2-11.6-1.2-9,1h0c2.8,2.4-5.8,3-9.5.7h0c-3.5-2.1-11.5-1.8-9.8.4h0c1.8,2.4-7.4,2.5-10.3.1h0c-2.6-2.2-11.2-2.3-10.4-.2h0c.8,2.3-8.9,1.9-10.7-.5h0c-1.7-2.2-10.5-2.8-10.8-.8h0c-.3,2.2-10.1,1.3-10.9-1.1h0c-.7-2.2-9.6-3.2-10.8-1.3h0c-1.3,2.1-11.1.6-10.9-1.6h0c.3-2.1-8.5-3.6-10.6-1.9h0c-2.3,1.9-11.8,0-10.5-2.1h0c1.2-1.9-7.1-3.9-10.2-2.4h0c-3.3,1.6-12.3-.8-9.9-2.6h0c2.2-1.7-5.6-4-9.4-2.8h0c-4.2,1.3-12.4-1.4-9.1-3h0c3.1-1.5-3.9-4.1-8.5-3.2h0c-5,1-12.2-2.1-8-3.4h0c3.9-1.2-2.1-4.1-7.3-3.5h0c-5.6.6-11.7-2.6-6.8-3.6h0c4.6-.9-.3-3.9-6-3.7h0c-6.1.3-11-3.1-5.3-3.8h0c5.2-.6,1.5-3.7-4.5-3.8h0c-6.5-.1-9.9-3.6-3.8-3.8h0c5.7-.2,3.3-3.4-2.9-3.8h0c-6.7-.5-8.6-3.9-2.1-3.8h0c6,0,5-3-1.3-3.7h0c-6.8-.8-7.1-4.2-.4-3.7h0c6.2.4,6.6-2.5.4-3.6h0c-6.6-1.2-5.5-4.3,1.3-3.5h0c6.2.8,8-1.9,2.1-3.3h0c-6.3-1.5-3.6-4.4,3-3.2h0c6.1,1.1,9.2-1.4,3.8-3h0c-5.9-1.8-1.7-4.3,4.6-2.8h0c5.9,1.4,10.2-.7,5.3-2.6h0c-5.3-2,.2-4.1,6.1-2.4h0c5.4,1.6,11-.1,6.7-2.1h0c-4.6-2.2,2.1-3.8,7.4-1.9h0c4.9,1.8,11.4.5,8-1.6h0c-3.8-2.3,4-3.5,8.6-1.3h0c4.2,2,11.6,1.2,9-1h0c-2.8-2.4,5.8-3,9.5-.7h0c3.5,2.1,11.5,1.8,9.8-.4h0c-1.8-2.4,7.4-2.5,10.3-.1h0c2.6,2.2,11.2,2.3,10.4.2h0c-.8-2.3,8.9-1.9,10.7.5h0c1.7,2.2,10.5,2.8,10.8.8h0c.3-2.2,10.1-1.3,10.9,1.1h0c.7,2.2,9.6,3.2,10.8,1.3Z"/>
        <ellipse class="st21" cx="1167.5" cy="687.3" rx="54" ry="153.1" transform="translate(355.5 1771.9) rotate(-83.7)"/>
        <path class="st9" d="M1058.5,679.8s8.7,6.2,13.4,6.4"/>
        <path class="st9" d="M1180.3,662.4s-7.2-7.1-13.9-4.5"/>
        <path class="st9" d="M1227.9,719.6s9.9,2.1,14.1-3.7"/>
        <path class="st9" d="M1251.9,677.6s-1.8-9.9-8.7-11.6"/>
        <path class="st9" d="M1112.7,707.8s6.8,7.5,13.6,5.2"/>
        <path class="st9" d="M1166.2,694.5s9.5,3.4,14.5-1.8"/>
        <path class="st9" d="M1102.4,654.7s3.6,9.4,10.8,9.8"/>
        <path class="st9" d="M1166.1,719.9s9.1,4.4,14.6-.2"/>
        <path class="st9" d="M1060.6,653.6s-10.1.6-12.6,7.4"/>
        <path class="st9" d="M1208.4,691.8s9.9-2,11.5-9"/>
        <path class="st9" d="M1106.2,681s7.4,6.9,14,4"/>
        <path class="st9" d="M1145.7,643.7s-9.5-3.5-14.5,1.7"/>
        <path class="st9" d="M1212.8,654s-8.7-5-14.5-.8"/>
      </g>
      <path class="st9" d="M1274.7,701.3s9.2-4.2,9.1-11.4"/>
    </g>
    <g>
      <ellipse class="st21" cx="1220.7" cy="652.8" rx="54" ry="153.1" transform="translate(184.7 1570.9) rotate(-69.7)"/>
      <path class="st35" d="M1245.2,601.3h0c1.8-1.7,10.9,2.1,10.1,4.2h0c-.7,1.9,7.3,5.5,9.8,4.4h0c2.7-1.2,11.5,2.9,9.7,4.6h0c-1.7,1.6,6,5.5,9.3,4.8h0c3.6-.8,11.7,3.7,9,4.9h0c-2.5,1.1,4.4,5.2,8.5,5h0c4.4-.3,11.7,4.4,8.1,5.1h0c-3.3.7,2.8,4.9,7.5,5.1h0c5.1.2,11.4,4.9,7,5.2h0c-4.1.2,1.1,4.5,6.3,5.1h0c5.6.7,10.7,5.4,5.7,5.1h0c-4.7-.2-.6,3.9,4.9,5h0c6,1.2,9.9,5.7,4.3,4.9h0c-5.2-.7-2.3,3.2,3.5,4.8h0c6.3,1.7,8.8,5.9,2.7,4.6h0c-5.6-1.1-4,2.5,1.9,4.4h0c6.4,2.1,7.4,5.9,1.1,4.2h0c-5.8-1.5-5.6,1.7.3,3.9h0c6.4,2.4,5.9,5.8-.5,3.7h0c-5.9-1.9-7,.8-1.3,3.4h0c6.1,2.7,4.2,5.5-2.1,3.1h0c-5.9-2.3-8.2,0-2.9,2.7h0c5.8,3,2.5,5.1-3.7,2.4h0c-5.7-2.5-9.3-.9-4.4,2h0c5.3,3.1.7,4.6-5.1,1.6h0c-5.4-2.7-10.1-1.7-5.8,1.2h0c4.7,3.2-1.2,4-6.5.8h0c-4.9-2.9-10.7-2.5-7,.4h0c3.9,3.2-3,3.2-7.7,0h0c-4.3-3-11-3.3-8.1-.4h0c3.1,3.1-4.7,2.4-8.7-.8h0c-3.6-3-11-3.9-9-1.2h0c2.2,3-6.4,1.5-9.4-1.6h0c-2.8-2.9-10.8-4.5-9.7-2h0c1.2,2.7-7.8.6-10-2.3h0c-2-2.7-10.3-4.9-10.1-2.7h0c.2,2.5-9.1-.3-10.3-3h0c-1.1-2.5-9.5-5.3-10.3-3.3h0c-.8,2.1-10.1-1.2-10.3-3.7h0c-.2-2.3-8.5-5.5-10.2-3.9h0c-1.8,1.7-10.9-2.1-10.1-4.2h0c.7-1.9-7.3-5.5-9.8-4.4h0c-2.7,1.2-11.5-2.9-9.7-4.6h0c1.7-1.6-6-5.5-9.3-4.8h0c-3.6.8-11.7-3.7-9-4.9h0c2.5-1.1-4.4-5.2-8.5-5h0c-4.4.3-11.7-4.4-8.1-5.1h0c3.3-.7-2.8-4.9-7.5-5.1h0c-5.1-.2-11.4-4.9-7-5.2h0c4.1-.2-1.1-4.5-6.3-5.1h0c-5.6-.7-10.7-5.4-5.7-5.1h0c4.7.2.6-3.9-4.9-5h0c-6-1.2-9.9-5.7-4.3-4.9h0c5.2.7,2.3-3.2-3.5-4.8h0c-6.3-1.7-8.8-5.9-2.7-4.6h0c5.6,1.1,4-2.5-1.9-4.4h0c-6.4-2.1-7.4-5.9-1.1-4.2h0c5.8,1.5,5.6-1.7-.3-3.9h0c-6.4-2.4-5.9-5.8.5-3.7h0c5.9,1.9,7-.8,1.3-3.4h0c-6.1-2.7-4.2-5.5,2.1-3.1h0c5.9,2.3,8.2,0,2.9-2.7h0c-5.8-3-2.5-5.1,3.7-2.4h0c5.7,2.5,9.3.9,4.4-2h0c-5.3-3.1-.7-4.6,5.1-1.6h0c5.4,2.7,10.1,1.7,5.8-1.2h0c-4.7-3.2,1.2-4,6.5-.8h0c4.9,2.9,10.7,2.5,7-.4h0c-3.9-3.2,3-3.2,7.7,0h0c4.3,3,11,3.3,8.1.4h0c-3.1-3.1,4.7-2.4,8.7.8h0c3.6,3,11,3.9,9,1.2h0c-2.2-3,6.4-1.5,9.4,1.6h0c2.8,2.9,10.8,4.5,9.7,2h0c-1.2-2.7,7.8-.6,10,2.3h0c2,2.7,10.3,4.9,10.1,2.7h0c-.2-2.5,9.1.3,10.3,3h0c1.1,2.5,9.5,5.3,10.3,3.3h0c.8-2.1,10.1,1.2,10.3,3.7h0c.2,2.3,8.5,5.5,10.2,3.9Z"/>
      <ellipse class="st30" cx="1231.8" cy="626.6" rx="54" ry="153.1" transform="translate(216.5 1564.2) rotate(-69.7)"/>
      <path class="st9" d="M1127.9,593s6.9,8.1,11.4,9.5"/>
      <path class="st9" d="M1250.3,605.5s-5.2-8.6-12.4-7.7"/>
      <path class="st9" d="M1282.6,672.5s9.1,4.4,14.6-.2"/>
      <path class="st9" d="M1316,637.5s.7-10-5.7-13.4"/>
      <path class="st9" d="M1173.7,633.2s4.8,8.9,11.9,8.3"/>
      <path class="st9" d="M1228.8,633.3s8.4,5.6,14.5,1.8"/>
      <path class="st9" d="M1176.5,579.3s1.3,10,8.1,12.1"/>
      <path class="st9" d="M1222.6,657.9s7.7,6.5,14.2,3.3"/>
      <path class="st9" d="M1136.2,568.1s-9.9-1.8-14,4.1"/>
      <path class="st9" d="M1270.4,640.9s10.1.5,13.3-5.9"/>
      <path class="st9" d="M1173.9,605.7s5.5,8.4,12.6,7.3"/>
      <path class="st9" d="M1221.2,579s-8.3-5.6-14.4-1.8"/>
      <path class="st9" d="M1283.8,605.2s-7.3-7-13.9-4.3"/>
      <path class="st9" d="M1332.7,671s9.6-2.9,10.5-10.1"/>
    </g>
    <g>
      <ellipse class="st43" cx="1453.7" cy="216.6" rx="177.4" ry="62.6" transform="translate(85.4 753.2) rotate(-29.9)"/>
      <path class="st35" d="M1426,156.6h0c-.2-2.8,10-8.2,11.3-5.9h0c1.2,2.1,10.4-2.4,11.2-5.5h0c.9-3.3,11.1-8,11.3-5.2h0c.2,2.6,9.3-1.3,11.1-4.7h0c2-3.8,12-7.7,11.1-4.3h0c-.9,3.1,8,0,10.7-3.8h0c3-4.1,12.6-7.2,10.6-3.4h0c-1.8,3.5,6.5,1.1,10.1-2.8h0c4-4.3,12.8-6.4,9.8-2.3h0c-2.8,3.8,4.8,2.3,9.2-1.8h0c4.8-4.4,12.8-5.6,8.8-1.2h0c-3.7,4,3,3.4,8.1-.7h0c5.6-4.5,12.4-4.6,7.6-.1h0c-4.5,4.1,1.1,4.5,6.8.4h0c6.2-4.4,11.7-3.4,6.2,1h0c-5.1,4.1-.8,5.4,5.3,1.6h0c6.6-4.2,10.7-2.2,4.6,2.1h0c-5.7,4-2.6,6.2,3.7,2.6h0c6.9-3.8,9.5-1,2.9,3.2h0c-6.1,3.8-4.4,6.8,2,3.6h0c7-3.4,8.1.3,1.2,4.1h0c-6.4,3.6-6.1,7.3.3,4.6h0c6.9-3,6.4,1.6-.6,5h0c-6.5,3.2-7.7,7.6-1.5,5.4h0c6.7-2.4,4.6,2.8-2.4,5.8h0c-6.4,2.7-9,7.7-3.2,6h0c6.3-1.8,2.6,4-4.1,6.4h0c-6.2,2.2-10.2,7.6-4.8,6.6h0c5.8-1.1.6,5.1-5.7,6.8h0c-5.8,1.6-11,7.3-6.4,6.9h0c5.1-.4-1.4,6-7.1,7.1h0c-5.3,1-11.7,6.9-7.7,7.1h0c4.3.3-3.3,6.8-8.4,7.2h0c-4.7.4-12,6.2-8.9,7.1h0c3.3,1-5.2,7.4-9.5,7.2h0c-3.9-.3-12,5.5-9.9,7h0c2.3,1.6-7,7.9-10.3,6.9h0c-3.1-.9-11.7,4.6-10.6,6.7h0c1.3,2.3-8.6,8.1-10.9,6.5h0c-2.1-1.5-11.2,3.5-11,6.2h0c.2,2.8-10,8.2-11.3,5.9h0c-1.2-2.1-10.4,2.4-11.2,5.5h0c-.9,3.3-11.1,8-11.3,5.2h0c-.2-2.6-9.3,1.3-11.1,4.7h0c-2,3.8-12,7.7-11.1,4.3h0c.9-3.1-8,0-10.7,3.8h0c-3,4.1-12.6,7.2-10.6,3.4h0c1.8-3.5-6.5-1.1-10.1,2.8h0c-4,4.3-12.8,6.4-9.8,2.3h0c2.8-3.8-4.8-2.3-9.2,1.8h0c-4.8,4.4-12.8,5.6-8.8,1.2h0c3.7-4-3-3.4-8.1.7h0c-5.6,4.5-12.4,4.6-7.6.1h0c4.5-4.1-1.1-4.5-6.8-.4h0c-6.2,4.4-11.7,3.4-6.2-1h0c5.1-4.1.8-5.4-5.3-1.6h0c-6.6,4.2-10.7,2.2-4.6-2.1h0c5.7-4,2.6-6.2-3.7-2.6h0c-6.9,3.8-9.5,1-2.9-3.2h0c6.1-3.8,4.4-6.8-2-3.6h0c-7,3.4-8.1-.3-1.2-4.1h0c6.4-3.6,6.1-7.3-.3-4.6h0c-6.9,3-6.4-1.6.6-5h0c6.5-3.2,7.7-7.6,1.5-5.4h0c-6.7,2.4-4.6-2.8,2.4-5.8h0c6.4-2.7,9-7.7,3.2-6h0c-6.3,1.8-2.6-4,4.1-6.4h0c6.2-2.2,10.2-7.6,4.8-6.6h0c-5.8,1.1-.6-5.1,5.7-6.8h0c5.8-1.6,11-7.3,6.4-6.9h0c-5.1.4,1.4-6,7.1-7.1h0c5.3-1,11.7-6.9,7.7-7.1h0c-4.3-.3,3.3-6.8,8.4-7.2h0c4.7-.4,12-6.2,8.9-7.1h0c-3.3-1,5.2-7.4,9.5-7.2h0c3.9.3,12-5.5,9.9-7h0c-2.3-1.6,7-7.9,10.3-6.9h0c3.1.9,11.7-4.6,10.6-6.7h0c-1.3-2.3,8.6-8.1,10.9-6.5h0c2.1,1.5,11.2-3.5,11-6.2Z"/>
      <ellipse class="st30" cx="1438.7" cy="187.3" rx="177.4" ry="62.6" transform="translate(98 741.8) rotate(-29.9)"/>
      <path class="st9" d="M1331.6,255s12.4-.1,16.9-3.1"/>
      <path class="st9" d="M1433.5,155.2s-11.5-1.7-16,5.3"/>
      <path class="st9" d="M1517.1,176.2s10.6-4.8,10.6-13.1"/>
      <path class="st9" d="M1510.8,120.4s-8.4-8.1-16.1-4.9"/>
      <path class="st9" d="M1401.4,244s11.4,2.3,16.3-4.4"/>
      <path class="st9" d="M1442.3,195s11.2-3.3,12.3-11.5"/>
      <path class="st9" d="M1355.4,201.4s9.8,6.3,16.8,1.7"/>
      <path class="st9" d="M1459.6,218.7s11.5-2.1,13.5-10.2"/>
      <path class="st9" d="M1315.6,229s-9,7.5-6.7,15.5"/>
      <path class="st9" d="M1480,163.5s7.9-8.6,4.6-16.2"/>
      <path class="st9" d="M1377,223.4s11.6,1.4,15.8-5.8"/>
      <path class="st9" d="M1388.4,161.5s-11.2,3.3-12.3,11.5"/>
      <path class="st9" d="M1458.1,125.2s-11.6,1.3-14.1,9.2"/>
      <path class="st9" d="M1552.9,130.4s4.5-10.8-1.2-16.8"/>
    </g>
  </g>
  <g>
    <g>
      <g>
        <ellipse class="st21" cx="-157" cy="460.8" rx="177.4" ry="62.6" transform="translate(-609.4 281.1) rotate(-87.1)"/>
        <path class="st17" d="M-91.6,470h0c2.5,1.4,1.5,12.8-1.1,12.7h0c-2.4-.2-3.6,10-1.4,12.4h0c2.3,2.6.7,13.7-1.7,12.3h0c-2.3-1.3-4,8.5-2,11.9h0c2.1,3.7,0,14.2-2.3,11.7h0c-2.1-2.4-4.3,6.7-2.6,11.1h0c1.8,4.8-.8,14.4-2.9,10.7h0c-1.9-3.4-4.5,4.8-3.1,10h0c1.5,5.7-1.5,14.3-3.3,9.5h0c-1.7-4.4-4.5,2.8-3.5,8.7h0c1.1,6.5-2.2,13.7-3.7,8.1h0c-1.4-5.2-4.5.7-3.8,7.2h0c.7,7.1-2.9,12.9-4,6.4h0c-1-6-4.4-1.5-4.1,5.5h0c.3,7.5-3.4,11.7-4.2,4.6h0c-.7-6.5-4.1-3.6-4.2,3.7h0c0,7.8-3.9,10.3-4.3,2.7h0c-.3-7-3.8-5.6-4.2,1.7h0c-.5,7.9-4.3,8.5-4.2.7h0c0-7.2-3.3-7.4-4.2-.3h0c-.9,7.7-4.6,6.6-4.1-1.3h0c.5-7.3-2.8-9.1-4-2.2h0c-1.3,7.4-4.8,4.5-3.9-3.2h0c.8-7.2-2.2-10.6-3.7-4.1h0c-1.6,6.9-4.8,2.3-3.6-5.1h0c1.2-6.9-1.6-11.8-3.4-6h0c-1.9,6.3-4.8,0-3.2-6.9h0c1.5-6.4-.9-12.7-2.9-7.6h0c-2.2,5.5-4.6-2.2-2.7-8.5h0c1.8-5.8-.2-13.3-2.4-9.1h0c-2.4,4.5-4.3-4.4-2.1-9.8h0c2-5,.5-13.5-1.8-10.4h0c-2.5,3.4-3.9-6.5-1.5-11h0c2.2-4.2,1.2-13.5-1.2-11.4h0c-2.6,2.3-3.4-8.4-.9-11.9h0c2.3-3.2,1.9-13.1-.5-12.1h0c-2.6,1.1-2.8-10.2-.2-12.4h0c2.4-2.1,2.5-12.3.1-12.5h0c-2.6-.2-2.2-11.6.5-12.7h0c2.4-1,3.1-11.3.8-12.6h0c-2.5-1.4-1.5-12.8,1.1-12.7h0c2.4.2,3.6-10,1.4-12.4h0c-2.3-2.6-.7-13.7,1.7-12.3h0c2.3,1.3,4-8.5,2-11.9h0c-2.1-3.7,0-14.2,2.3-11.7h0c2.1,2.4,4.3-6.7,2.6-11.1h0c-1.8-4.8.8-14.4,2.9-10.7h0c1.9,3.4,4.5-4.8,3.1-10h0c-1.5-5.7,1.5-14.3,3.3-9.5h0c1.7,4.4,4.5-2.8,3.5-8.7h0c-1.1-6.5,2.2-13.7,3.7-8.1h0c1.4,5.2,4.5-.7,3.8-7.2h0c-.7-7.1,2.9-12.9,4-6.4h0c1,6,4.4,1.5,4.1-5.5h0c-.3-7.5,3.4-11.7,4.2-4.6h0c.7,6.5,4.1,3.6,4.2-3.7h0c0-7.8,3.9-10.3,4.3-2.7h0c.3,7,3.8,5.6,4.2-1.7h0c.5-7.9,4.3-8.5,4.2-.7h0c0,7.2,3.3,7.4,4.2.3h0c.9-7.7,4.6-6.6,4.1,1.3h0c-.5,7.3,2.8,9.1,4,2.2h0c1.3-7.4,4.8-4.5,3.9,3.2h0c-.8,7.2,2.2,10.6,3.7,4.1h0c1.6-6.9,4.8-2.3,3.6,5.1h0c-1.2,6.9,1.6,11.8,3.4,6h0c1.9-6.3,4.8,0,3.2,6.9h0c-1.5,6.4.9,12.7,2.9,7.6h0c2.2-5.5,4.6,2.2,2.7,8.5h0c-1.8,5.8.2,13.3,2.4,9.1h0c2.4-4.5,4.3,4.4,2.1,9.8h0c-2,5-.5,13.5,1.8,10.4h0c2.5-3.4,3.9,6.5,1.5,11h0c-2.2,4.2-1.2,13.5,1.2,11.4h0c2.6-2.3,3.4,8.4.9,11.9h0c-2.3,3.2-1.9,13.1.5,12.1h0c2.6-1.1,2.8,10.2.2,12.4h0c-2.4,2.1-2.5,12.3-.1,12.5h0c2.6.2,2.2,11.6-.5,12.7h0c-2.4,1-3.1,11.3-.8,12.6Z"/>
        <ellipse class="st14" cx="-124.2" cy="464" rx="177.4" ry="62.6" transform="translate(-581.4 316.9) rotate(-87.1)"/>
        <path class="st10" d="M-123.2,337.4s-6.6,10.5-6.5,15.9"/>
        <path class="st10" d="M-94.4,477s7.7-8.8,4.2-16.3"/>
        <path class="st10" d="M-157.3,536.1s-1.7,11.5,5.3,16"/>
        <path class="st10" d="M-106.9,560.9s11.3-2.7,12.9-10.9"/>
        <path class="st10" d="M-151.7,402s-8.2,8.4-5.1,16.1"/>
        <path class="st10" d="M-132.6,462.9s-3.3,11.2,3.1,16.6"/>
        <path class="st10" d="M-91.1,386.4s-10.6,4.9-10.5,13.2"/>
        <path class="st10" d="M-161.9,464.7s-4.5,10.8,1.3,16.8"/>
        <path class="st10" d="M-92.7,338s-1.4-11.6-9.4-14"/>
        <path class="st10" d="M-126.5,511.6s3,11.3,11.2,12.6"/>
        <path class="st10" d="M-121.2,392.6s-7.4,9-3.7,16.5"/>
        <path class="st10" d="M-75.3,435.7s3.3-11.2-3-16.6"/>
        <path class="st10" d="M-82.4,514s5.2-10.5-.1-16.9"/>
      </g>
      <path class="st10" d="M-132.8,589s5.5,10.3,13.8,9.7"/>
    </g>
    <g>
      <g>
        <ellipse class="st21" cx="-80.5" cy="523.1" rx="177.4" ry="62.6" transform="translate(-557.9 294.6) rotate(-73.2)"/>
        <path class="st26" d="M-131.9,693.1c-16.4-5.4-22.1-25.3-25.1-40.6-7.7-49.5,2.3-100.1,15.9-147.8,14.5-46.5,34.8-96.1,68-132.4,11.2-11.5,27.2-24.9,44.3-20.2,16.9,5.5,22.9,25.6,25.9,41.4,7.8,49.7-2.4,100.5-16.3,148.2-15.1,47.3-35.2,94.9-69.3,131.7-11,11.1-26.8,24.4-43.5,19.7h0ZM-131.8,692.8c12.4,3.5,24.6-3.7,33.8-11.4,9.5-8,17.5-17.7,24.6-27.9,14.2-20.4,25.4-42.8,34.8-65.8C-15.7,531.2,3.9,454.7-5.5,394c-2.8-14.8-8.2-34.3-24-39.5-16.1-4.5-31.5,8.7-42.1,19.4-42,45.5-68,119.5-80.4,179.6-6.6,35.1-11.6,76.3-1.9,111.1,3.5,11.5,9.7,24.3,22,28.2h0Z"/>
      </g>
      <path class="st17" d="M-19.2,547.8h0c2.1,1.9-1.7,12.8-4.1,12h0c-2.3-.7-5.9,8.9-4.4,11.7h0c1.6,3.1-2.6,13.5-4.7,11.5h0c-1.9-1.8-5.9,7.3-4.8,11.1h0c1.1,4.1-3.5,13.8-5.1,10.7h0c-1.5-2.8-5.8,5.5-5.2,10.2h0c.6,5.1-4.2,13.8-5.4,9.7h0c-1-3.8-5.5,3.6-5.4,9h0c0,5.9-4.9,13.5-5.5,8.4h0c-.6-4.7-5.1,1.6-5.5,7.6h0c-.5,6.5-5.5,12.8-5.5,6.9h0c0-5.4-4.5-.5-5.4,6.1h0c-1,7.1-5.9,11.8-5.4,5.3h0c.4-6-3.9-2.5-5.3,4.4h0c-1.5,7.4-6.2,10.5-5.2,3.5h0c.9-6.5-3.1-4.4-5,2.5h0c-2,7.5-6.3,9-4.8,1.6h0c1.4-6.8-2.3-6.3-4.5.6h0c-2.4,7.5-6.3,7.2-4.3-.3h0c1.8-7-1.4-8-4-1.3h0c-2.7,7.3-6.1,5.3-3.7-2.2h0c2.2-6.9-.5-9.5-3.3-3.1h0c-3,6.9-5.7,3.2-3-4.1h0c2.5-6.7.4-10.8-2.6-4.9h0c-3.2,6.3-5.3,1.1-2.2-5.8h0c2.8-6.4,1.3-11.8-1.8-6.6h0c-3.4,5.6-4.7-1.1-1.4-7.4h0c3-5.9,2.2-12.5-1-8.1h0c-3.4,4.8-3.9-3.2-.6-8.9h0c3.1-5.2,3-12.9-.1-9.4h0c-3.4,3.8-3.1-5.3.3-10.1h0c3.2-4.4,3.8-13,.7-10.5h0c-3.3,2.7-2.2-7.2,1.2-11h0c3.1-3.5,4.4-12.8,1.6-11.3h0c-3.1,1.6-1.3-9,2-11.7h0c3-2.5,5-12.2,2.4-11.8h0c-2.8.4-.3-10.5,2.8-12.1h0c2.9-1.5,5.4-11.4,3.1-12.1h0c-2.5-.8.7-11.8,3.5-12.2h0c2.6-.4,5.7-10.2,3.8-12h0c-2.1-1.9,1.7-12.8,4.1-12h0c2.3.7,5.9-8.9,4.4-11.7h0c-1.6-3.1,2.6-13.5,4.7-11.5h0c1.9,1.8,5.9-7.3,4.8-11.1h0c-1.1-4.1,3.5-13.8,5.1-10.7h0c1.5,2.8,5.8-5.5,5.2-10.2h0c-.6-5.1,4.2-13.8,5.4-9.7h0c1,3.8,5.5-3.6,5.4-9h0c0-5.9,4.9-13.5,5.5-8.4h0c.6,4.7,5.1-1.6,5.5-7.6h0c.5-6.5,5.5-12.8,5.5-6.9h0c0,5.4,4.5.5,5.4-6.1h0c1-7.1,5.9-11.8,5.4-5.3h0c-.4,6,3.9,2.5,5.3-4.4h0c1.5-7.4,6.2-10.5,5.2-3.5h0c-.9,6.5,3.1,4.4,5-2.5h0c2-7.5,6.3-9,4.8-1.6h0c-1.4,6.8,2.3,6.3,4.5-.6h0c2.4-7.5,6.3-7.2,4.3.3h0c-1.8,7,1.4,8,4,1.3h0c2.7-7.3,6.1-5.3,3.7,2.2h0c-2.2,6.9.5,9.5,3.3,3.1h0c3-6.9,5.7-3.2,3,4.1h0c-2.5,6.7-.4,10.8,2.6,4.9h0c3.2-6.3,5.3-1.1,2.2,5.8h0c-2.8,6.4-1.3,11.8,1.8,6.6h0c3.4-5.6,4.7,1.1,1.4,7.4h0c-3,5.9-2.2,12.5,1,8.1h0c3.4-4.8,3.9,3.2.6,8.9h0c-3.1,5.2-3,12.9.1,9.4h0c3.4-3.8,3.1,5.3-.3,10.1h0c-3.2,4.4-3.8,13-.7,10.5h0c3.3-2.7,2.2,7.2-1.2,11h0c-3.1,3.5-4.4,12.8-1.6,11.3h0c3.1-1.6,1.3,9-2,11.7h0c-3,2.5-5,12.2-2.4,11.8h0c2.8-.4.3,10.5-2.8,12.1h0c-2.9,1.5-5.4,11.4-3.1,12.1h0c2.5.8-.7,11.8-3.5,12.2h0c-2.6.4-5.7,10.2-3.8,12Z"/>
      <ellipse class="st18" cx="-49.4" cy="534.1" rx="177.4" ry="62.6" transform="translate(-546.3 332.1) rotate(-73.2)"/>
      <path class="st10" d="M-17.9,411.5s-8.9,8.6-10.2,13.9"/>
      <path class="st10" d="M-23.7,554s9.6-6.7,8-14.8"/>
      <path class="st10" d="M-98.9,596s-4.5,10.8,1.3,16.8"/>
      <path class="st10" d="M-56.1,632.3s11.7,0,15.1-7.5"/>
      <path class="st10" d="M-61.1,467.3s-9.9,6.1-8.8,14.4"/>
      <path class="st10" d="M-57.3,531s-5.9,10.1-1,16.8"/>
      <path class="st10" d="M1.5,466.8s-11.5,2.2-13.4,10.3"/>
      <path class="st10" d="M-86.2,525.6s-6.9,9.4-2.8,16.6"/>
      <path class="st10" d="M11.6,419.4s1.4-11.6-5.8-15.9"/>
      <path class="st10" d="M-63.2,579.8s.2,11.7,7.8,15"/>
      <path class="st10" d="M-29.3,465.6s-9.4,7-7.6,15.1"/>
      <path class="st10" d="M4.9,518.5s5.9-10.1,1.1-16.8"/>
      <path class="st10" d="M-21,592.7s7.6-8.9,3.9-16.4"/>
      <path class="st10" d="M-93.6,653.9s4.1,10.9,12.4,11.5"/>
    </g>
  </g>
  <g>
    <g>
      <g>
        <ellipse class="st21" cx="1800.8" cy="1052.5" rx="62.6" ry="177.4" transform="translate(555.9 2726.1) rotate(-83.7)"/>
        <path class="st17" d="M1813.9,987.8h0c1.5-2.4,12.9-.7,12.6,1.9h0c-.3,2.4,9.8,4.2,12.3,2.2h0c2.7-2.2,13.7,0,12.2,2.5h0c-1.4,2.2,8.2,4.5,11.8,2.7h0c3.8-1.9,14.2.9,11.5,3h0c-2.5,2,6.5,4.7,10.9,3.3h0c4.9-1.5,14.4,1.6,10.5,3.5h0c-3.5,1.7,4.5,4.7,9.8,3.7h0c5.8-1.1,14.1,2.4,9.3,3.9h0c-4.5,1.4,2.5,4.7,8.5,4h0c6.5-.7,13.6,3,7.8,4.2h0c-5.3,1.1.4,4.5,7,4.3h0c7.1-.3,12.7,3.6,6.2,4.4h0c-6,.7-1.7,4.3,5.2,4.4h0c7.5.1,11.5,4.1,4.4,4.5h0c-6.6.3-3.8,3.9,3.4,4.4h0c7.8.5,10,4.5,2.5,4.4h0c-7-.1-5.8,3.4,1.5,4.3h0c7.8,1,8.3,4.8.5,4.3h0c-7.2-.5-7.6,2.9-.5,4.1h0c7.7,1.4,6.3,5-1.5,4h0c-7.2-.9-9.3,2.3-2.5,3.8h0c7.3,1.7,4.2,5.1-3.5,3.7h0c-7.1-1.3-10.7,1.6-4.4,3.5h0c6.8,2,2,5-5.3,3.3h0c-6.8-1.6-11.8.9-6.1,3h0c6.1,2.3-.2,4.8-7.1,2.7h0c-6.3-1.9-12.7.1-7.8,2.4h0c5.3,2.5-2.5,4.5-8.6,2.2h0c-5.7-2.1-13.2-.6-9.2,1.8h0c4.3,2.7-4.7,4-10,1.5h0c-4.9-2.3-13.5-1.3-10.4,1.2h0c3.3,2.7-6.7,3.5-11.1.9h0c-4-2.5-13.4-2-11.4.5h0c2.1,2.8-8.6,2.9-11.9.2h0c-3-2.5-12.9-2.7-12.1-.2h0c.9,2.7-10.3,2.2-12.4-.5h0c-2-2.5-12.2-3.3-12.5-.9h0c-.3,2.6-11.7,1.5-12.7-1.2h0c-.8-2.5-11.1-3.8-12.5-1.5h0c-1.5,2.4-12.9.7-12.6-1.9h0c.3-2.4-9.8-4.2-12.3-2.2h0c-2.7,2.2-13.7,0-12.2-2.5h0c1.4-2.2-8.2-4.5-11.8-2.7h0c-3.8,1.9-14.2-.9-11.5-3h0c2.5-2-6.5-4.7-10.9-3.3h0c-4.9,1.5-14.4-1.6-10.5-3.5h0c3.5-1.7-4.5-4.7-9.8-3.7h0c-5.8,1.1-14.1-2.4-9.3-3.9h0c4.5-1.4-2.5-4.7-8.5-4h0c-6.5.7-13.6-3-7.8-4.2h0c5.3-1.1-.4-4.5-7-4.3h0c-7.1.3-12.7-3.6-6.2-4.4h0c6-.7,1.7-4.3-5.2-4.4h0c-7.5-.1-11.5-4.1-4.4-4.5h0c6.6-.3,3.8-3.9-3.4-4.4h0c-7.8-.5-10-4.5-2.5-4.4h0c7,.1,5.8-3.4-1.5-4.3h0c-7.8-1-8.3-4.8-.5-4.3h0c7.2.5,7.6-2.9.5-4.1h0c-7.7-1.4-6.3-5,1.5-4h0c7.2.9,9.3-2.3,2.5-3.8h0c-7.3-1.7-4.2-5.1,3.5-3.7h0c7.1,1.3,10.7-1.6,4.4-3.5h0c-6.8-2-2-5,5.3-3.3h0c6.8,1.6,11.8-.9,6.1-3h0c-6.1-2.3.2-4.8,7.1-2.7h0c6.3,1.9,12.7-.1,7.8-2.4h0c-5.3-2.5,2.5-4.5,8.6-2.2h0c5.7,2.1,13.2.6,9.2-1.8h0c-4.3-2.7,4.7-4,10-1.5h0c4.9,2.3,13.5,1.3,10.4-1.2h0c-3.3-2.7,6.7-3.5,11.1-.9h0c4,2.5,13.4,2,11.4-.5h0c-2.1-2.8,8.6-2.9,11.9-.2h0c3,2.5,12.9,2.7,12.1.2h0c-.9-2.7,10.3-2.2,12.4.5h0c2,2.5,12.2,3.3,12.5.9h0c.3-2.6,11.7-1.5,12.7,1.2h0c.8,2.5,11.1,3.8,12.5,1.5Z"/>
        <ellipse class="st14" cx="1805.9" cy="1020" rx="62.6" ry="177.4" transform="translate(592.9 2702.3) rotate(-83.7)"/>
        <path class="st10" d="M1679.6,1011.3s10.1,7.2,15.5,7.5"/>
        <path class="st10" d="M1820.7,991s-8.3-8.2-16.1-5.2"/>
        <path class="st10" d="M1875.8,1057.4s11.4,2.4,16.3-4.3"/>
        <path class="st10" d="M1903.6,1008.6s-2-11.5-10.1-13.5"/>
        <path class="st10" d="M1742.4,1043.7s7.8,8.6,15.8,6"/>
        <path class="st10" d="M1804.3,1028.3s11,4,16.7-2"/>
        <path class="st10" d="M1730.4,982.2s4.2,10.9,12.5,11.3"/>
        <path class="st10" d="M1804.3,1057.7s10.5,5.1,16.9-.2"/>
        <path class="st10" d="M1682,980.9s-11.6.7-14.6,8.5"/>
        <path class="st10" d="M1853.3,1025.2s11.4-2.3,13.3-10.4"/>
        <path class="st10" d="M1734.9,1012.6s8.6,7.9,16.2,4.7"/>
        <path class="st10" d="M1780.6,969.4s-11-4-16.8,2"/>
        <path class="st10" d="M1858.3,981.3s-10.1-5.8-16.9-.9"/>
      </g>
      <path class="st10" d="M1930.1,1036.1s10.6-4.8,10.6-13.2"/>
    </g>
    <g>
      <ellipse class="st21" cx="1867.6" cy="979.9" rx="62.6" ry="177.4" transform="translate(300.1 2391) rotate(-69.7)"/>
      <path class="st35" d="M1895.9,920.3h0c2.1-2,12.7,2.4,11.7,4.9h0c-.9,2.2,8.5,6.4,11.4,5.1h0c3.2-1.4,13.3,3.4,11.2,5.4h0c-1.9,1.8,6.9,6.3,10.8,5.5h0c4.2-.9,13.6,4.3,10.4,5.7h0c-2.9,1.3,5.1,6.1,9.8,5.8h0c5.1-.3,13.5,5.1,9.4,5.9h0c-3.9.8,3.2,5.7,8.7,5.9h0c5.9.3,13.2,5.7,8.1,6h0c-4.7.3,1.3,5.2,7.3,6h0c6.5.9,12.5,6.2,6.6,6h0c-5.4-.3-.7,4.5,5.7,5.8h0c7,1.4,11.4,6.6,4.9,5.7h0c-6-.8-2.7,3.7,4,5.5h0c7.3,1.9,10.1,6.8,3.2,5.4h0c-6.5-1.3-4.6,2.9,2.2,5.1h0c7.4,2.4,8.6,6.8,1.3,4.9h0c-6.7-1.8-6.4,1.9.4,4.5h0c7.4,2.8,6.8,6.7-.6,4.3h0c-6.9-2.2-8.1,1-1.5,3.9h0c7.1,3.2,4.9,6.4-2.4,3.6h0c-6.8-2.6-9.5,0-3.3,3.1h0c6.7,3.4,2.9,5.9-4.2,2.8h0c-6.6-2.9-10.7-1-5.1,2.3h0c6.1,3.6.8,5.3-5.9,1.9h0c-6.2-3.2-11.7-2-6.7,1.4h0c5.4,3.7-1.4,4.6-7.5,1h0c-5.7-3.3-12.3-2.9-8.1.5h0c4.5,3.7-3.5,3.7-8.9,0h0c-5-3.4-12.7-3.8-9.4-.5h0c3.6,3.6-5.5,2.8-10-.9h0c-4.2-3.4-12.7-4.6-10.4-1.4h0c2.5,3.4-7.4,1.8-10.9-1.8h0c-3.3-3.3-12.5-5.2-11.2-2.3h0c1.4,3.2-9.1.7-11.6-2.7h0c-2.3-3.2-11.9-5.7-11.7-3.1h0c.2,2.8-10.5-.3-11.9-3.5h0c-1.3-2.9-11-6.1-11.9-3.9h0c-.9,2.4-11.8-1.4-12-4.2h0c-.2-2.6-9.9-6.3-11.8-4.5h0c-2.1,2-12.7-2.4-11.7-4.9h0c.9-2.2-8.5-6.4-11.4-5.1h0c-3.2,1.4-13.3-3.4-11.2-5.4h0c1.9-1.8-6.9-6.3-10.8-5.5h0c-4.2.9-13.6-4.3-10.4-5.7h0c2.9-1.3-5.1-6.1-9.8-5.8h0c-5.1.3-13.5-5.1-9.4-5.9h0c3.9-.8-3.2-5.7-8.7-5.9h0c-5.9-.3-13.2-5.7-8.1-6h0c4.7-.3-1.3-5.2-7.3-6h0c-6.5-.9-12.5-6.2-6.6-6h0c5.4.3.7-4.5-5.7-5.8h0c-7-1.4-11.4-6.6-4.9-5.7h0c6,.8,2.7-3.7-4-5.5h0c-7.3-1.9-10.1-6.8-3.2-5.4h0c6.5,1.3,4.6-2.9-2.2-5.1h0c-7.4-2.4-8.6-6.8-1.3-4.9h0c6.7,1.8,6.4-1.9-.4-4.5h0c-7.4-2.8-6.8-6.7.6-4.3h0c6.9,2.2,8.1-1,1.5-3.9h0c-7.1-3.2-4.9-6.4,2.4-3.6h0c6.8,2.6,9.5,0,3.3-3.1h0c-6.7-3.4-2.9-5.9,4.2-2.8h0c6.6,2.9,10.7,1,5.1-2.3h0c-6.1-3.6-.8-5.3,5.9-1.9h0c6.2,3.2,11.7,2,6.7-1.4h0c-5.4-3.7,1.4-4.6,7.5-1h0c5.7,3.3,12.3,2.9,8.1-.5h0c-4.5-3.7,3.5-3.7,8.9,0h0c5,3.4,12.7,3.8,9.4.5h0c-3.6-3.6,5.5-2.8,10,.9h0c4.2,3.4,12.7,4.6,10.4,1.4h0c-2.5-3.4,7.4-1.8,10.9,1.8h0c3.3,3.3,12.5,5.2,11.2,2.3h0c-1.4-3.2,9.1-.7,11.6,2.7h0c2.3,3.2,11.9,5.7,11.7,3.1h0c-.2-2.8,10.5.3,11.9,3.5h0c1.3,2.9,11,6.1,11.9,3.9h0c.9-2.4,11.8,1.4,12,4.2h0c.2,2.6,9.9,6.3,11.8,4.5Z"/>
      <ellipse class="st30" cx="1880.4" cy="949.6" rx="62.6" ry="177.4" transform="translate(336.9 2383.3) rotate(-69.7)"/>
      <path class="st9" d="M1759.9,910.7s8,9.4,13.2,11"/>
      <path class="st9" d="M1901.8,925.1s-6.1-10-14.3-8.9"/>
      <path class="st9" d="M1939.2,1002.8s10.5,5.1,16.9-.2"/>
      <path class="st9" d="M1978,962.2s.8-11.6-6.6-15.5"/>
      <path class="st9" d="M1813,957.2s5.5,10.3,13.8,9.7"/>
      <path class="st9" d="M1876.9,957.3s9.7,6.5,16.7,2.1"/>
      <path class="st9" d="M1816.3,894.7s1.5,11.6,9.4,14"/>
      <path class="st9" d="M1869.7,985.8s8.9,7.5,16.4,3.8"/>
      <path class="st9" d="M1769.6,881.7s-11.5-2.1-16.2,4.8"/>
      <path class="st9" d="M1925.1,966.1s11.7.6,15.4-6.9"/>
      <path class="st9" d="M1813.2,925.3s6.4,9.8,14.6,8.5"/>
      <path class="st9" d="M1868.1,894.4s-9.7-6.5-16.7-2.1"/>
      <path class="st9" d="M1940.6,924.8s-8.4-8.1-16.1-4.9"/>
      <path class="st9" d="M1997.3,1001s11.2-3.4,12.2-11.7"/>
    </g>
  </g>
  <g>
    <path class="st29" d="M678.8,881.9l24.9-23.3c11.8-11.1,30.9-.5,27.8,15.4l-8,40.8c-2.1,10.7,6.4,20.5,17.3,19.9l54.6-3c12.1-.7,17.9,14.5,8.5,22.1l-19.9,16.1c-20,16.1-19.4,46.7,1.1,62.1l10,7.5c13,9.7,5.9,30.4-10.3,30.1l-41.6-.8c-10.9-.2-19.1,9.9-16.6,20.5l4.7,20.2c4.1,17.6-16.7,30.1-30.3,18.3l-12.6-11c-11.7-10.2-29.8-6.6-36.8,7.2l-18.8,37.1c-7.3,14.5-28.9,11.1-31.4-4.9l-5.2-33.1c-2.3-14.8-17.9-23.4-31.7-17.5l-30.8,13.2c-14.9,6.4-29.2-10.1-20.9-24l32.4-42.1c5.6-9.3,1-21.4-9.5-24.6l-34.1-.5c-15.7-4.7-16.1-26.7-.6-32l27.3-9.4c10.8-3.7,15.2-16.5,8.9-26.1l-27.8-42.5c-8.9-13.6,4.8-30.5,20-24.7l21.5,8.3c13.4,5.2,25.7-2.3,27.4-16.5l3.5-29c2.8-23.3,33.8-29.4,45.2-8.8l16.5,29.9c7.1,12.8,24.4,15.6,35.1,5.5Z"/>
    <path class="st2" d="M670.2,862.6c-4.4,3.9-7.3,7-7,1.1.9-22.8,11.7-81.2,44.6-55,5.8,4.6,9.7,16.5-13.2,32.5-8.3,5.8-18.4,16.3-24.3,21.4Z"/>
    <path class="st2" d="M753.7,1113.2c-2.3-5.4-4.4-9,1.1-7,21.5,7.8,73.8,35.7,39,59.1-6.2,4.1-18.6,4.2-27-22.4-3-9.6-9.9-22.4-13.1-29.7Z"/>
    <path class="st2" d="M564.2,1154.4c0-5.9.4-10.1-3.8-6-16.5,15.8-53.2,62.4-11.8,69.8,7.3,1.3,18.7-3.6,15.7-31.4-1.1-10,0-24.5,0-32.4Z"/>
    <path class="st2" d="M475,970.8c5.6,1.9,9.7,2.8,4.5,5.5-20.2,10.7-76.1,30.6-70-11,1.1-7.3,9.4-16.6,34.7-4.9,9.2,4.2,23.3,7.7,30.7,10.3Z"/>
  </g>
  <g>
    <rect class="st36" x="1788.8" y="17.1" width="125.8" height="99.1" transform="translate(33.9 425.4) rotate(-13.2)"/>
    <path class="st37" d="M1891.1,53.7c30.5-2.8,81-25.3,92.4-67.5,14.9-55.3-20.5-65.2-20.5-65.2,0,0-5.9-3.5-15.1-3.3-4.6.1-8.8-2.4-10.8-6.6-4.1-8.7-10.4-12.5-10.4-12.5,0,0-25.4-26.5-67.2,12.6-33.8,31.7-27.3,91.9-13.8,118.1"/>
    <path class="st37" d="M1877.1,106.5c9.2,29.2,41.8,73.9,85.4,76.2,57.2,3,59.5-33.7,59.5-33.7,0,0,2.2-6.5,0-15.4-1.1-4.5.5-9.1,4.2-11.9,7.7-5.8,10.1-12.8,10.1-12.8,0,0,20.6-30.4-26.4-63-38.1-26.4-95.8-10.8-118.6,7.8"/>
    <path class="st37" d="M1837.2,30.6c4.3-31.8-6.8-88.9-47.2-110.5-53.1-28.3-71.6,5.5-71.6,5.5,0,0-5,5.2-6.9,14.6-1,4.7-4.6,8.4-9.3,9.5-9.9,2.1-15.2,7.6-15.2,7.6,0,0-33.2,19.7-3,71.8,24.5,42.1,87.6,49.7,117.6,42.1"/>
    <path class="st37" d="M1803.7,55.8c-28.4-15.1-85.7-24.6-120.1,5.9-45,39.9-19.7,69.1-19.7,69.1,0,0,3.1,6.5,11.3,11.6s6.3,7.2,5.6,12c-1.4,10,1.9,17,1.9,17,0,0,7,38,66.2,27.7,48-8.3,75.5-56,78.8-86.8"/>
    <path class="st37" d="M1822.3,104.5c-26.9,15.1-64.2,56.5-57.4,99.9,8.9,57,45.5,51.7,45.5,51.7,0,0,6.9.8,15.2-3.1,4.2-2,9.1-1.4,12.6,1.6,7.4,6.4,14.7,7.3,14.7,7.3,0,0,34.2,14,56.7-39.1,18.1-43-10.5-96.1-33.7-114.7"/>
    <path class="st0" d="M1845.4,58.9c-26.3-185.5-8.8-188.3-8.8-188.3,0,0,14.2-12.9-11.4-8.9-25.6,4,15.1,207.8,15.1,207.8,0,0,1.8,4.4,5.2,3.4,3.3-1.1,0-14,0-14Z"/>
    <circle class="st12" cx="1799.4" cy="-133.8" r="6.7"/>
    <circle class="st12" cx="1851.4" cy="-119.4" r="6.7"/>
    <circle class="st12" cx="1850.5" cy="-152.7" r="6.7"/>
    <circle class="st12" cx="1791.4" cy="-108.8" r="6.7"/>
  </g>
  <g>
    <path class="st2" d="M70.4,137.9l15.8-30.2c7.5-14.4,29-10.7,31.3,5.4l5.9,41.2c1.5,10.8,12.8,17.2,22.9,13.1l50.6-20.9c11.2-4.6,21.7,7.8,15.3,18.1l-13.5,21.7c-13.5,21.8-2.9,50.5,21.6,58.3l11.9,3.8c15.5,4.9,15.6,26.7.2,31.8l-39.5,13c-10.3,3.4-14.7,15.6-8.9,24.8l11.1,17.5c9.7,15.2-5.8,33.9-22.6,27.2l-15.5-6.2c-14.4-5.8-30.3,3.6-32.4,18.9l-5.5,41.2c-2.1,16.1-23.6,20-31.3,5.7l-15.8-29.6c-7.1-13.2-24.7-16.2-35.7-6.1l-24.8,22.6c-12,10.9-30.9.1-27.6-15.7L.6,342.8c2.2-10.7-6.2-20.6-17-20.1l-32.4,10.8c-16.3.7-24-20-11.1-30.1l22.7-17.9c9-7,8.9-20.6-.1-27.6l-40.3-31c-12.8-9.9-5.5-30.4,10.7-29.9l23,.7c14.3.5,23.5-10.6,20.5-24.6l-6.3-28.5c-5-22.9,22.2-38.9,39.7-23.2l25.4,22.7c10.9,9.8,28.2,6.7,35-6.4Z"/>
    <path class="st29" d="M271.1,349.6c-3.1-5-5.8-8.2,0-7.1,22.4,4.3,78.5,23.8,47.7,52.4-5.4,5-17.7,7.1-30.1-18-4.5-9-13.3-20.6-17.5-27.3Z"/>
    <path class="st2" d="M90.4,419.7c-.9-5.8-1.1-10-4.7-5.3-13.9,18.2-42.9,69.9-.8,70.8,7.4.2,17.9-6.5,10.6-33.4-2.7-9.7-3.8-24.2-5-32Z"/>
    <path class="st29" d="M-26.2,252.3c5.8,1,10,1.3,5.3,4.8-18.3,13.7-70.4,42.1-70.8,0,0-7.4,6.7-17.9,33.6-10.2,9.7,2.8,24.2,4,32,5.4Z"/>
  </g>
  <path class="st33" d="M1309.6,837.8c89.1-.3,186.1-2.8,274.9.1,0,0,0,.3,0,.3-87.8,2.5-187.2.8-274.9-.4h0Z"/>
  <path class="st1" d="M256,792.3c-3.7,5.7,2.5-6.4,0,0-28.4,71.8,27.7,161.4,125.3,200,97.6,38.6,187.3,5.4,228.2-60.1,28-44.8,37-70.7,36.9-94.8l-390.4-45.1Z"/>
  <g>
    <path class="st19" d="M515.4,820.5"/>
    <path class="st22" d="M645.7,837.3c.1,24.1-8.9,49.9-36.9,94.8-40.9,65.5-130.6,98.7-228.2,60.1-97.6-38.6-153.7-128.2-125.3-200,2.5-6.4-3.7,5.7,0,0"/>
    <ellipse class="st47" cx="449.2" cy="820" rx="69.7" ry="197.6" transform="translate(-415.4 1175.9) rotate(-83.7)"/>
    <path class="st19" d="M225,863.8"/>
    <path class="st32" d="M555.7,964.9c-28,19.2-63.7,31.8-97.9,29.3,0,0,0-.3,0-.3,17.1-1.9,34-4.3,50.7-8.6,8.3-2.3,16.4-5.1,24.2-8.6,7.9-3.4,15.5-7.4,22.8-12l.2.3h0Z"/>
    <g>
      <g>
        <path class="st6" d="M441.2,872.7c-91.8-11.6-163.1-45.4-159.3-75.5,3.8-30.1,81.2-45.1,173.1-33.5,91.8,11.6,163.1,45.4,159.3,75.5s-81.2,45.1-173.1,33.5Z"/>
        <path class="st39" d="M438.5,867.7c.2,0,.3,0,.6.3,1.8,1.6,4.4,5.3-1,8.7,0,0-.6.3-.8.3-.3,0-6-.8-14.3-2.1-1.9-.3-3.8-.6-5.7-1-5.7-1-11.5-2.1-17.4-3.3-11.8-2.5-23.8-5.5-36.1-9.2-12.2-3.7-24.6-8.1-36.9-13.7-6.1-2.8-12.3-5.9-18.2-9.4-6-3.6-11.9-7.6-17.3-12.5-2.7-2.5-5.3-5.2-7.6-8.2-2.3-3.1-4.3-6.6-5.6-10.6-1.3-4-1.5-8.6-.5-12.8,1-4.3,3.3-8.1,6-11.1,2.7-3.1,5.8-5.6,9-7.7,3.2-2.1,6.6-3.9,10-5.4,6.8-3.1,13.9-5.3,21.1-7.2,14.3-3.6,29-5.5,43.7-6.6,14.7-1,29.5-1.2,44.2-.6,29.4,1.1,58.6,4.9,86.9,10.9,14.1,3,28,6.7,41.6,11.2,13.5,4.5,26.6,9.6,39,16.1,6.2,3.2,12.2,6.8,17.9,10.9,5.6,4.1,11,8.7,15.4,14.6,2.2,2.9,4.1,6.2,5.3,9.9,1.2,3.7,1.7,7.8,1,11.8-.3,2-.9,3.9-1.7,5.7-.8,1.8-1.8,3.4-2.9,4.9-1.1,1.5-2.3,2.9-3.6,4.1-1.3,1.2-2.6,2.4-4,3.4-5.5,4.2-11.4,7.1-17.3,9.4-5.9,2.3-11.8,4.1-17.6,5.6-11.7,2.9-23.1,4.6-34.1,5.7-11,1.1-21.5,1.5-31.6,1.7-5,0-9.9,0-14.6,0-2.4,0-4.7-.1-7-.2-.4,0-.8,0-1.2,0-1.7,0-3.1-.1-4.3-.2-2.4-.1-3.8-.2-3.8-.2,0,0-3.6-.4-8.4-1.2-4.8-.8-10.8-1.9-15.7-3.2-8.3-1.9-10.7-3.3-9.7-4.1,1-.8,5.3-1,10.6-1-.5-.2,5.7,0,12.1.2,6.4.1,12.8,0,12.8,0,0,0,1.3,0,3.7.2.6,0,1.2,0,1.9,0,2.3,0,4.7.2,7.3.3,17.2.4,36.7,0,57.6-2.7,10.4-1.5,21.2-3.5,31.8-6.9,5.3-1.7,10.6-3.8,15.4-6.5,4.8-2.7,9.4-6,12.3-10.1,2.9-4.1,3.7-8.8,2-13.7-.8-2.4-2.1-4.8-3.8-7.1-1.7-2.3-3.7-4.5-5.9-6.5-4.4-4.1-9.5-7.8-14.9-11.1-5.4-3.3-11.2-6.3-17.2-9.1-11.9-5.5-24.6-10.2-37.7-14.1-13.1-4-26.5-7.3-40.3-10-27.4-5.4-55.8-8.7-84.3-9.4-14.2-.3-28.4,0-42.5,1.3-14,1.3-28,3.4-41.2,7.2-6.6,1.9-13,4.2-18.8,7.3-2.9,1.5-5.6,3.3-8,5.2-2.4,2-4.4,4.2-5.8,6.5-2.9,4.7-2.7,10.2,0,15.3,1.3,2.6,3.1,5.1,5.2,7.4,2.1,2.3,4.4,4.5,6.9,6.5,5,4,10.4,7.6,16.1,10.7,5.6,3.2,11.4,6,17.3,8.5,11.7,5.1,23.7,9.2,35.5,12.7,11.8,3.5,23.5,6.3,34.9,8.6,5.7,1.2,11.3,2.2,16.9,3.1,1.2.2,2.4.4,3.6.6,8,1.3,13.5,2,13.8,2Z"/>
      </g>
      <g>
        <g>
          <line class="st6" x1="448.1" y1="818.2" x2="441.2" y2="872.7"/>
          <path class="st39" d="M443.2,819c0,0,0-.1.3-.2,1.4-.7,4.9-1.6,8.7,1,0,0,.3.3.3.4,0,.5-4.9,38.3-4.9,38.3,0,0-1.7,6-3.7,10.2-2.9,7.1-4.6,3.9-5.1-.8-.3.4-.4-11.1-.4-11.1,0,0,4.7-37.2,4.8-37.7Z"/>
        </g>
        <g>
          <line class="st6" x1="448.1" y1="818.2" x2="560.7" y2="871.6"/>
          <path class="st39" d="M449,823.8c-.2,0-.3-.1-.4-.5-1.3-2.1-2.5-6.4,3.6-7.9.1,0,.6,0,.8,0l14,6.6,56.9,27,7.8,3.7s12.4,6.9,20.8,12.5c14.4,9,7.4,8-2.5,4.5.9.7-23.4-9.1-23.4-9.1l-6.7-3.2-57-27-14-6.6Z"/>
        </g>
        <g>
          <line class="st6" x1="448.1" y1="818.2" x2="614.2" y2="839.2"/>
          <path class="st39" d="M450.7,823.2c-.2,0-.3,0-.6-.3-1.9-1.6-4.4-5.3,1-8.7,0,0,.6-.3.8-.3l15.3,1.9,113.6,14.4s14,2.7,23.7,5.4c16.5,4.1,9.6,5.3-1,5.1,1.1.3-25.1-1.4-25.1-1.4l-112.4-14.2-15.4-1.9Z"/>
        </g>
        <g>
          <line class="st6" x1="448.1" y1="818.2" x2="570.4" y2="794.5"/>
          <path class="st39" d="M452.2,822.1c-.2,0-.3,0-.6-.1-2.3-.9-5.8-3.7-1.8-8.5,0,0,.4-.4.6-.5l15.2-2.9,61.9-12,8.5-1.6s14.1-1.8,24.2-2.3c17-1.3,10.7,2,.7,5.1,1.1,0-24.2,6.5-24.2,6.5l-7.3,1.4-61.9,12-15.2,2.9Z"/>
        </g>
        <g>
          <line class="st6" x1="448.1" y1="818.2" x2="454.9" y2="763.7"/>
          <path class="st39" d="M452.9,817.4c0,0,0,.1-.3.2-1.4.7-4.9,1.6-8.7-1,0,0-.3-.3-.3-.4,0-.5,4.9-38.3,4.9-38.3,0,0,1.7-6,3.7-10.2,2.9-7.1,4.6-3.9,5.1.8.3-.4.4,11.1.4,11.1,0,0-4.7,37.2-4.8,37.7Z"/>
        </g>
        <g>
          <line class="st6" x1="448.1" y1="818.2" x2="335.4" y2="764.8"/>
          <path class="st39" d="M447.1,812.6c.2,0,.3.1.4.5,1.3,2.1,2.5,6.4-3.6,7.9-.1,0-.6,0-.8,0l-14-6.6-56.9-27-7.8-3.7s-12.4-6.9-20.8-12.5c-14.4-9-7.4-8,2.5-4.5-.9-.7,23.4,9.1,23.4,9.1l6.7,3.2,57,27,14,6.6Z"/>
        </g>
        <g>
          <line class="st6" x1="448.1" y1="818.2" x2="281.9" y2="797.2"/>
          <path class="st39" d="M445.4,813.2c.2,0,.3,0,.6.3,1.9,1.6,4.4,5.3-1,8.7,0,0-.6.3-.8.3l-15.3-1.9-113.6-14.4s-14-2.7-23.7-5.4c-16.5-4.1-9.6-5.3,1-5.1-1.1-.3,25.1,1.4,25.1,1.4l112.4,14.2,15.4,1.9Z"/>
        </g>
        <g>
          <line class="st6" x1="448.1" y1="818.2" x2="325.7" y2="841.9"/>
          <path class="st39" d="M443.9,814.2c.2,0,.3,0,.6.1,2.3.9,5.8,3.7,1.8,8.5,0,0-.4.4-.6.5l-15.2,2.9-61.9,12-8.5,1.6s-14.1,1.8-24.2,2.3c-17,1.3-10.7-2-.7-5.1-1.1,0,24.2-6.5,24.2-6.5l7.3-1.4,61.9-12,15.2-2.9Z"/>
        </g>
      </g>
    </g>
  </g>
  <path class="st19" d="M1623.9,788.3"/>
  <path class="st42" d="M1751.2,939.2c44.2,15.2,92,21,138.4,15.2,64.5-8.1,126.3-40.3,163-95.2,17.8-26.6,26.7-55.8,31.7-87.1,4.9-30.8,9.1-64.3.5-94.9h0c-.3-6.9-2.4-5.8-2.4-13.5,0-93-99.9-153.1-226.3-153.1s-212,76.9-228.8,168.3c-11.5,62.6-10.1,95.5.7,122.4l123.3,137.7"/>
  <path class="st42" d="M1777.2,749.4c10.8,26.9,12.2,59.8.7,122.4-16.8,91.4-102.4,168.3-228.8,168.3s-228.8-75.4-228.8-168.3-1.6,8,0,0"/>
  <g>
    <ellipse class="st35" cx="1549.6" cy="817.1" rx="237.8" ry="83.9" transform="translate(-160.4 436.6) rotate(-15.3)"/>
    <path class="st49" d="M1779.2,754.4c9.6,39.1-53.9,79.1-83.1,95.2-83.9,45-194.1,74.4-289.6,70.2-28.2-1.8-78.1-8.4-87.5-39.9-5.8-22.8,12.9-44.1,28.4-58.5,49.9-43.6,116.7-68.9,179.7-86.9,64.5-16.9,150.3-30.8,214.9-11.2,15.4,5.2,32.5,14.2,37.2,30.9h0ZM1778.9,754.5c-4.8-16.6-21.8-25.4-37.1-30.4-46.1-14.1-101.8-8.8-148.8-1.1-81,14.4-180.9,46.1-243.8,100.5-14.8,13.6-33.3,34.2-27.9,55.8,6.3,21.4,32.7,29.9,52.3,34.2,81.6,15.3,184.3-7.9,261.4-36.8,44.4-17.4,95.1-41.4,127.5-77.1,10.6-12.2,20.7-28.4,16.4-45.1h0Z"/>
  </g>
  <ellipse class="st9" cx="1544.9" cy="817.1" rx="155.3" ry="54.8" transform="translate(-160.6 435.3) rotate(-15.3)"/>
  <path class="st7" d="M1733,932c-23.3,34.3-56.9,63-96.6,76.2-.2,0-.3-.2-.1-.3,18.5-9.4,36.4-19.6,53.1-32,8.2-6.2,16-13.1,23.3-20.5,7.3-7.3,14-15.3,20.1-23.6,0-.2.4,0,.2.2h0Z"/>
  <ellipse class="st7" cx="1899.7" cy="642.2" rx="17.6" ry="13.5" transform="translate(-102 522.5) rotate(-15.3)"/>
  <ellipse class="st7" cx="1971.4" cy="679.7" rx="17.6" ry="13.5" transform="translate(-109.4 542.7) rotate(-15.3)"/>
  <ellipse class="st7" cx="1883.5" cy="697.5" rx="17.6" ry="13.5" transform="translate(-117.2 520.2) rotate(-15.3)"/>
  <path class="st19" d="M1751.2,939.2"/>
  <g>
    <path class="st13" d="M853.8,705.1v-63.3c.9-4.2,5.5-6.3,9.2-4.4h0c2.9,1.5,4.3,5,3,8.1l.5,55.3"/>
    <path class="st27" d="M868.1,688.2s76.3-18.3,59.1-52.8c-17.3-34.5-59.1,52.8-59.1,52.8Z"/>
    <path class="st38" d="M1008.2,784.5c-28.5-118.5-104.7-101-104.7-101,0,0-23.7-.9-45.6,19.7-20.3-23.6-44.9-24.7-44.9-24.7,0,0-74.5-23.7-112.7,92.1-38.2,115.8,83.1,250.2,125.9,247,6.9-.5,12.4-1.2,16.8-2.8,4.7,2.7,10.9,4.1,19.2,5.4,42.5,6.7,174.4-117.2,145.9-235.7Z"/>
    <path class="st5" d="M942.3,722.6c18.1,9,31.2,27.5,34.9,47.3,1.1,6.7,1.2,13.5.2,20.2,0,.2-.3.2-.3,0-.6-6.7-1.4-13.2-2.8-19.6-1.4-6.4-3.1-12.7-5.9-18.7-5.6-11.9-14.7-22.3-26.1-28.9-.2,0,0-.4.1-.3h0Z"/>
    <path class="st5" d="M759.9,934c10.5,17.7,30.9,45.3,52.4,48.7.2,0,.2.3,0,.3-13.1,1.3-24.2-8.3-32.1-17.7-4.1-4.7-7.8-9.8-11.2-15-3.4-5.2-6.5-10.6-9.3-16.2,0-.2.2-.3.3-.1h0Z"/>
  </g>
  <g>
    <path class="st3" d="M1284,372.1s-66.9-31.9-111,60.3c-44.1,92.2-42,98.5-18.3,114.1,23.7,15.7,171-13.7,190.4-87.2,19.4-73.5-61.1-87.3-61.1-87.3Z"/>
    <g>
      <path class="st9" d="M1212.6,528.7s8.9-.9,9.8-4.5"/>
      <path class="st40" d="M1212.6,531.1c-1.2,0-2.2-.9-2.3-2.1-.1-1.3.8-2.5,2.1-2.6,3.9-.4,7.5-1.8,7.8-2.7.3-1.3,1.6-2,2.9-1.7,1.3.3,2,1.6,1.7,2.9-1.2,4.8-9.4,6-11.9,6.2,0,0-.2,0-.2,0Z"/>
    </g>
    <g>
      <path class="st9" d="M1187.6,482.8s-3.5,3.6-2.6,5.8"/>
      <path class="st40" d="M1185,491c-1,0-1.9-.6-2.2-1.5-1.4-3.4,2.1-7.2,3.1-8.3.9-.9,2.4-.9,3.3,0,.9.9.9,2.4,0,3.3-1.1,1.1-2.1,2.8-2.1,3.4.5,1.2-.1,2.5-1.3,3-.3.1-.6.2-.8.2Z"/>
    </g>
    <g>
      <path class="st9" d="M1242,487.2s5.1-.9,6-4.5"/>
      <path class="st40" d="M1242,489.6c-1.1,0-2.1-.8-2.3-2-.2-1.3.6-2.5,1.9-2.7.9-.2,3.7-1,4.1-2.7.3-1.3,1.6-2,2.9-1.7,1.3.3,2,1.6,1.7,2.9-1,4-5.4,5.8-7.8,6.2-.1,0-.3,0-.4,0Z"/>
    </g>
    <g>
      <path class="st9" d="M1238.3,387.3s-5.1,2.1-6.4,4"/>
      <path class="st40" d="M1231.9,393.7c-.5,0-.9-.1-1.3-.4-1.1-.7-1.3-2.2-.6-3.3,1.7-2.4,6.5-4.5,7.5-4.9,1.2-.5,2.6,0,3.1,1.3.5,1.2,0,2.6-1.3,3.1-2.1.9-4.8,2.4-5.4,3.2-.5.7-1.2,1-1.9,1Z"/>
    </g>
    <g>
      <path class="st9" d="M1225.7,439.6s-5.1,2.1-6.4,4"/>
      <path class="st40" d="M1219.2,446c-.5,0-.9-.1-1.3-.4-1.1-.7-1.3-2.2-.6-3.3,1.7-2.4,6.5-4.5,7.5-4.9,1.2-.5,2.6,0,3.1,1.3.5,1.2,0,2.6-1.3,3.1-2.1.9-4.8,2.4-5.4,3.2-.5.7-1.2,1-1.9,1Z"/>
    </g>
    <g>
      <path class="st9" d="M1314.9,455.8s5.1-.9,6-4.5"/>
      <path class="st40" d="M1314.9,458.1c-1.1,0-2.1-.8-2.3-2-.2-1.3.6-2.5,1.9-2.7.9-.2,3.7-1,4.1-2.7.3-1.3,1.6-2,2.9-1.7,1.3.3,2,1.6,1.7,2.9-1,4-5.4,5.8-7.8,6.2-.1,0-.3,0-.4,0Z"/>
    </g>
    <g>
      <path class="st9" d="M1205.2,417.6s.9-5.1,4.5-5.9"/>
      <path class="st40" d="M1205.2,420c-.1,0-.3,0-.4,0-1.3-.2-2.1-1.5-1.9-2.7.5-2.4,2.3-6.8,6.3-7.8,1.3-.3,2.5.5,2.8,1.7.3,1.3-.5,2.5-1.7,2.8-1.7.4-2.6,3.1-2.8,4.1-.2,1.1-1.2,1.9-2.3,1.9Z"/>
    </g>
    <g>
      <path class="st9" d="M1284.3,479.7s4.6-2.3,4.5-5.9"/>
      <path class="st40" d="M1284.3,482.1c-.9,0-1.7-.5-2.1-1.3-.6-1.2,0-2.6,1.1-3.2.8-.4,3.2-2,3.2-3.7,0-1.3,1-2.4,2.3-2.4,1.3,0,2.4,1,2.4,2.3.1,4.1-3.6,7.1-5.8,8.1-.3.2-.7.2-1,.2Z"/>
    </g>
    <g>
      <path class="st9" d="M1186.1,523.2s5.1-.9,6-4.5"/>
      <path class="st40" d="M1186.1,525.5c-1.1,0-2.1-.8-2.3-2-.2-1.3.6-2.5,1.9-2.7.9-.2,3.7-1,4.1-2.7.3-1.3,1.6-2,2.9-1.7,1.3.3,2,1.6,1.7,2.9-1,4-5.4,5.8-7.8,6.2-.1,0-.3,0-.4,0Z"/>
    </g>
    <g>
      <path class="st9" d="M1242.7,417.6s.9-5.1,4.5-5.9"/>
      <path class="st40" d="M1242.7,420c-.1,0-.3,0-.4,0-1.3-.2-2.1-1.5-1.9-2.7.5-2.4,2.3-6.8,6.3-7.8,1.3-.3,2.5.5,2.8,1.7.3,1.3-.5,2.5-1.7,2.8-1.7.4-2.6,3.1-2.8,4.1-.2,1.1-1.2,1.9-2.3,1.9Z"/>
    </g>
    <g>
      <path class="st9" d="M1183.9,458.7s.9-5.1,4.5-5.9"/>
      <path class="st40" d="M1183.9,461.1c-.1,0-.3,0-.4,0-1.3-.2-2.1-1.5-1.9-2.8.5-2.4,2.3-6.8,6.3-7.8,1.3-.3,2.5.5,2.8,1.7.3,1.3-.5,2.5-1.7,2.8-1.7.4-2.6,3.3-2.8,4.1-.2,1.1-1.2,1.9-2.3,1.9Z"/>
    </g>
    <g>
      <path class="st9" d="M1262.8,504s5.1-.9,6-4.5"/>
      <path class="st40" d="M1262.8,506.4c-1.1,0-2.1-.8-2.3-2-.2-1.3.6-2.5,1.9-2.7.9-.2,3.7-1,4.1-2.7.3-1.3,1.6-2,2.9-1.7,1.3.3,2,1.6,1.7,2.9-1,4-5.4,5.8-7.8,6.2-.1,0-.3,0-.4,0Z"/>
    </g>
    <g>
      <path class="st9" d="M1253.2,454.2s1.7-1.3,3.6-4.5"/>
      <path class="st40" d="M1253.2,456.6c-.7,0-1.4-.3-1.9-.9-.8-1-.6-2.5.4-3.3,0,0,1.4-1.2,3-3.8.7-1.1,2.1-1.5,3.2-.8,1.1.7,1.5,2.1.8,3.2-2.1,3.4-4,4.9-4.2,5.1-.4.3-.9.5-1.4.5Z"/>
    </g>
    <g>
      <path class="st9" d="M1215.7,476.8s1.7-1.3,3.6-4.5"/>
      <path class="st40" d="M1215.7,479.1c-.7,0-1.4-.3-1.9-.9-.8-1-.6-2.5.4-3.3,0,0,1.4-1.2,3-3.8.7-1.1,2.1-1.5,3.2-.8,1.1.7,1.5,2.1.8,3.2-2.1,3.4-4,4.9-4.2,5.1-.4.3-.9.5-1.4.5Z"/>
    </g>
    <g>
      <path class="st9" d="M1212.8,504s5.1-.9,6-4.5"/>
      <path class="st40" d="M1212.8,506.4c-1.1,0-2.1-.8-2.3-2-.2-1.3.6-2.5,1.9-2.7.9-.2,3.7-1,4.1-2.7.3-1.3,1.6-2,2.9-1.7,1.3.3,2,1.6,1.7,2.9-1,4-5.4,5.8-7.8,6.2-.1,0-.3,0-.4,0Z"/>
    </g>
    <path class="st13" d="M1326.2,374.4l12.6-30.7c1.8-4.4,7.3-5.9,11.1-3h0c2.9,2.3,3.7,6.4,1.7,9.6l-19.6,30.9"/>
    <g>
      <path class="st9" d="M1270.3,391.6s2.2-4.7,5.9-4.6"/>
      <path class="st40" d="M1270.3,394c-.3,0-.7,0-1-.2-1.2-.6-1.7-2-1.1-3.1,1.1-2.2,3.9-6,8.1-5.9,1.3,0,2.3,1.1,2.3,2.4,0,1.3-1.1,2.4-2.4,2.3,0,0,0,0,0,0-1.8,0-3.3,2.5-3.7,3.2-.4.9-1.2,1.3-2.1,1.3Z"/>
    </g>
    <path class="st27" d="M1354.2,386.9c-10.6-9.4-17.4-12.4-21.5-11.3-.1-4.6-2.6-11.2-8.4-20.5-20.9-33.4-73.5,5.3-73.5,5.3,0,0,27.3,14,50.4,20.7-13.7,14.9-25.7,38.7-25.7,38.7,0,0,43.7,19.4,58.5,2.6,5.9,20.7,13.6,40.4,13.6,40.4,0,0,41.3-45.3,6.5-76.1Z"/>
  </g>
  <g>
    <path class="st3" d="M1400.8,381.5s-52,52.8,20.8,124.6c72.7,71.8,83.2,76,101.9,54.6,32.6-37.4,43-166.1-20.2-208.4-63.1-42.4-102.5,29.2-102.5,29.2Z"/>
    <g>
      <g>
        <path class="st40" d="M1525.5,500.1s2.1-8.7-1-10.7"/>
        <path class="st40" d="M1525.5,502.5c-.2,0-.4,0-.5,0-1.3-.3-2.1-1.6-1.8-2.8.9-3.8.8-7.7,0-8.2-1.1-.7-1.4-2.2-.7-3.3s2.2-1.4,3.3-.7c4.1,2.7,2.6,10.8,2,13.2-.3,1.1-1.2,1.8-2.3,1.8Z"/>
      </g>
      <g>
        <path class="st40" d="M1474,508.7s2.2,4.5,4.6,4.4"/>
        <path class="st40" d="M1478.5,515.5c-3.5,0-6-4.3-6.6-5.7-.6-1.2,0-2.6,1.1-3.2,1.2-.6,2.6,0,3.2,1.1.7,1.4,1.9,2.9,2.5,3.1,1.3,0,2.4.9,2.4,2.2,0,1.3-1,2.4-2.3,2.5,0,0-.1,0-.2,0Z"/>
      </g>
      <g>
        <path class="st40" d="M1495.9,458.8s.8-5.1-2.3-7.1"/>
        <path class="st40" d="M1495.9,461.2c-.1,0-.3,0-.4,0-1.3-.2-2.2-1.4-2-2.7h0c.1-.9.2-3.8-1.2-4.8-1.1-.7-1.4-2.2-.7-3.3.7-1.1,2.2-1.4,3.3-.7,3.4,2.2,3.7,7,3.3,9.4-.2,1.2-1.2,2-2.3,2Z"/>
      </g>
      <g>
        <path class="st40" d="M1400.3,429.6s.3,5.5,1.7,7.4"/>
        <path class="st40" d="M1402,439.4c-.7,0-1.4-.3-1.9-1-1.7-2.3-2.1-7.2-2.2-8.7,0-1.3.9-2.4,2.2-2.5,1.4,0,2.4.9,2.5,2.2.1,2.3.7,5.3,1.3,6.1.8,1.1.5,2.5-.5,3.3-.4.3-.9.5-1.4.5Z"/>
      </g>
      <g>
        <path class="st40" d="M1445.6,458.7s.3,5.5,1.7,7.4"/>
        <path class="st40" d="M1447.3,468.4c-.7,0-1.4-.3-1.9-1-1.7-2.4-2.1-7.6-2.2-8.7,0-1.3.9-2.4,2.2-2.5,1.3,0,2.4.9,2.5,2.2.1,2.3.7,5.3,1.3,6.1.8,1,.5,2.5-.5,3.3-.4.3-.9.5-1.4.5Z"/>
      </g>
      <g>
        <path class="st40" d="M1490,379.7s.8-5.1-2.3-7.1"/>
        <path class="st40" d="M1490,382c-.1,0-.3,0-.4,0-1.3-.2-2.2-1.4-2-2.7h0c.1-.9.2-3.8-1.2-4.8-1.1-.7-1.4-2.2-.7-3.3.7-1.1,2.2-1.4,3.3-.7,3.4,2.2,3.7,7,3.3,9.4-.2,1.2-1.2,2-2.3,2Z"/>
      </g>
      <g>
        <path class="st40" d="M1418.1,470.9s-4.5-2.6-4.1-6.2"/>
        <path class="st40" d="M1418.1,473.2c-.4,0-.8,0-1.2-.3-2.2-1.2-5.7-4.4-5.3-8.5.1-1.3,1.3-2.2,2.6-2.1,1.3.1,2.2,1.3,2.1,2.6-.2,1.8,2.3,3.5,2.9,3.9,1.1.6,1.5,2.1.9,3.2-.4.8-1.2,1.2-2.1,1.2Z"/>
      </g>
      <g>
        <path class="st40" d="M1502.7,416.4s-.6-5.1-4.1-6.2"/>
        <path class="st40" d="M1502.7,418.7c-1.2,0-2.2-.9-2.3-2.1-.1-.9-.8-3.7-2.5-4.2-1.2-.4-1.9-1.7-1.6-2.9.4-1.2,1.7-1.9,2.9-1.6,3.9,1.2,5.5,5.7,5.8,8.2.2,1.3-.8,2.5-2.1,2.6,0,0-.2,0-.3,0Z"/>
      </g>
      <g>
        <path class="st40" d="M1511.6,523.3s.8-5.1-2.3-7.1"/>
        <path class="st40" d="M1511.7,525.7c-.1,0-.3,0-.4,0-1.3-.2-2.2-1.4-2-2.7h0c.1-.9.2-3.8-1.2-4.8-1.1-.7-1.4-2.2-.7-3.3.7-1.1,2.2-1.4,3.3-.7,3.4,2.2,3.7,7,3.3,9.4-.2,1.2-1.2,2-2.3,2Z"/>
      </g>
      <g>
        <path class="st40" d="M1430.4,435.4s-4.5-2.6-4.1-6.2"/>
        <path class="st40" d="M1430.4,437.8c-.4,0-.8,0-1.2-.3-2.2-1.2-5.7-4.4-5.3-8.5.1-1.3,1.3-2.2,2.6-2.1,1.3.1,2.2,1.3,2.1,2.6-.2,1.8,2.3,3.5,2.9,3.9,1.1.6,1.5,2.1.9,3.2-.4.8-1.2,1.2-2.1,1.2Z"/>
      </g>
      <g>
        <path class="st40" d="M1450,504.4s-4.5-2.6-4.1-6.2"/>
        <path class="st40" d="M1450,506.8c-.4,0-.8,0-1.2-.3-2.2-1.2-5.7-4.4-5.3-8.5.1-1.3,1.3-2.2,2.6-2.1,1.3.1,2.2,1.3,2.1,2.6-.2,1.7,2.1,3.5,2.9,3.9,1.1.7,1.5,2.1.9,3.2-.4.8-1.2,1.2-2,1.2Z"/>
      </g>
      <g>
        <path class="st40" d="M1518.6,444.7s.8-5.1-2.3-7.1"/>
        <path class="st40" d="M1518.6,447c-.1,0-.3,0-.4,0-1.3-.2-2.2-1.4-2-2.7.1-.9.2-3.8-1.2-4.8-1.1-.7-1.4-2.2-.7-3.3.7-1.1,2.2-1.4,3.3-.7,3.4,2.2,3.7,7,3.3,9.4-.2,1.2-1.2,2-2.3,2Z"/>
      </g>
      <g>
        <path class="st40" d="M1468.4,437.5s-.7-2-3-4.8"/>
        <path class="st40" d="M1468.4,439.8c-1,0-1.9-.6-2.2-1.6,0,0-.7-1.8-2.6-4.1-.8-1-.7-2.5.3-3.3,1-.8,2.5-.7,3.3.3,2.6,3.1,3.4,5.4,3.5,5.6.4,1.2-.3,2.6-1.5,3-.2,0-.5.1-.7.1Z"/>
      </g>
      <g>
        <path class="st40" d="M1477.5,480.2s-.7-2-3-4.8"/>
        <path class="st40" d="M1477.5,482.6c-1,0-1.9-.6-2.2-1.6,0,0-.7-1.8-2.6-4.1-.8-1-.7-2.5.3-3.3,1-.8,2.5-.7,3.3.3,2.6,3.1,3.4,5.4,3.5,5.6.4,1.2-.3,2.6-1.5,3-.2,0-.5.1-.7.1Z"/>
      </g>
      <g>
        <path class="st40" d="M1482.8,539.8s1.2,1.7,4.3,3.7"/>
        <path class="st40" d="M1487.2,545.9c-.4,0-.9-.1-1.3-.4-3.4-2.2-4.8-4.1-5-4.3-.8-1.1-.5-2.5.5-3.3,1.1-.8,2.5-.5,3.3.5,0,0,1.1,1.5,3.7,3.1,1.1.7,1.4,2.2.7,3.3-.5.7-1.2,1.1-2,1.1Z"/>
      </g>
      <g>
        <path class="st40" d="M1502.2,491.9s.8-5.1-2.3-7.1"/>
        <path class="st40" d="M1502.2,494.3c-.1,0-.3,0-.4,0-1.3-.2-2.2-1.4-2-2.7h0c.1-.9.2-3.8-1.2-4.8-1.1-.7-1.4-2.2-.7-3.3.7-1.1,2.2-1.4,3.3-.7,3.4,2.2,3.7,7,3.3,9.4-.2,1.2-1.2,2-2.3,2Z"/>
      </g>
    </g>
    <path class="st13" d="M1427.8,343.4l-27.6-28.3c-2.5-4.1-.4-9.4,4.2-10.7h0c3.6-1,7.3.8,8.7,4.3l16.8,25.2"/>
    <path class="st27" d="M1439.6,318.2c-12.3,7-17.5,12.4-17.7,16.7-4.4-1.4-11.5-1.2-22.1,1.2-38.4,8.8-19,71.2-19,71.2,0,0,22.1-21.2,36-40.9,9.6,17.8,28.2,36.9,28.2,36.9,0,0,32.6-35,21.6-54.5,21.5,1.2,42.6.3,42.6.3,0,0-29.3-53.9-69.8-31Z"/>
  </g>
  <path class="st13" d="M1578.9-19.9v-63.3c.9-4.2,5.5-6.3,9.2-4.4h0c2.9,1.5,4.3,5,3,8.1l.5,55.3"/>
  <path class="st27" d="M1593.2-36.8s76.3-18.3,59.1-52.8c-17.3-34.5-59.1,52.8-59.1,52.8Z"/>
  <path class="st38" d="M1733.2,56.3c-28.5-118.5-104.7-101-104.7-101,0,0-23.7-.9-45.6,19.7-20.3-23.6-44.9-24.7-44.9-24.7,0,0-74.5-23.7-112.7,92.1-38.2,115.8,83.1,250.2,125.9,247,6.9-.5,12.4-1.2,16.8-2.8,4.7,2.7,10.9,4.1,19.2,5.4,42.5,6.7,174.4-117.2,145.9-235.7Z"/>
  <path class="st5" d="M1667.3-5.6c18.1,9,31.2,27.5,34.9,47.3,1.1,6.7,1.2,13.5.2,20.2,0,.2-.3.2-.3,0-.6-6.7-1.4-13.2-2.8-19.6-1.4-6.4-3.1-12.7-5.9-18.7-5.6-11.9-14.7-22.3-26.1-28.9-.2,0,0-.4.1-.3h0Z"/>
  <path class="st5" d="M1485,205.8c10.5,17.7,30.9,45.3,52.4,48.7.2,0,.2.3,0,.3-13.1,1.3-24.2-8.3-32.1-17.7-4.1-4.7-7.8-9.8-11.2-15-3.4-5.2-6.5-10.6-9.3-16.2,0-.2.2-.3.3-.1h0Z"/>
  <g>
    <path class="st11" d="M-.2-3s-107.9-60.5-196,142c-88.1,202.5-109.6,206.8-62.3,241.2,47.3,34.4,284.1-34.4,322.8-195.8C103.1,22.9-.2-3-.2-3Z"/>
    <path class="st4" d="M28.2-36.9s.4,100.8,88.2,78C204.1,18.4,28.2-36.9,28.2-36.9Z"/>
    <g>
      <path class="st16" d="M15.1-14.5s-18.3-55.6,0-81.6"/>
      <path class="st15" d="M7-63.6"/>
      <path class="st15" d="M7-63.6s9.5,25.3,25,30.5"/>
    </g>
    <path class="st20" d="M-57.3,281.8c-27.9,31.2-65.4,55.4-106.8,63.3,0,0,0-.3,0-.3,19.7-7,39.1-14.8,57.4-24.9,9.1-5.1,17.8-10.9,26-17.4,8.3-6.4,16.1-13.4,23.3-21l.2.2h0Z"/>
  </g>
  <g>
    <path class="st3" d="M277.4,941.4s-66.9-31.9-111,60.3c-44.1,92.2-42,98.5-18.3,114.1s171-13.7,190.4-87.2c19.4-73.5-61.1-87.3-61.1-87.3Z"/>
    <g>
      <path class="st9" d="M206.1,1098s8.9-.9,9.8-4.5"/>
      <path class="st40" d="M206,1100.4c-1.2,0-2.2-.9-2.3-2.1-.1-1.3.8-2.5,2.1-2.6,3.9-.4,7.5-1.8,7.8-2.7.3-1.3,1.6-2,2.9-1.7,1.3.3,2,1.6,1.7,2.9-1.2,4.8-9.4,6-11.9,6.2,0,0-.2,0-.2,0Z"/>
    </g>
    <g>
      <path class="st9" d="M181,1052.1s-3.5,3.6-2.6,5.8"/>
      <path class="st40" d="M178.5,1060.3c-1,0-1.9-.6-2.2-1.5-1.4-3.4,2.1-7.2,3.1-8.3.9-.9,2.4-.9,3.3,0,.9.9.9,2.4,0,3.3-1.1,1.1-2.1,2.8-2.1,3.4.5,1.2-.1,2.5-1.3,3-.3.1-.6.2-.8.2Z"/>
    </g>
    <g>
      <path class="st9" d="M235.4,1056.6s5.1-.9,6-4.5"/>
      <path class="st40" d="M235.4,1058.9c-1.1,0-2.1-.8-2.3-2-.2-1.3.6-2.5,1.9-2.7.9-.2,3.7-1,4.1-2.7.3-1.3,1.6-2,2.9-1.7,1.3.3,2,1.6,1.7,2.9-1,4-5.4,5.8-7.8,6.2-.1,0-.3,0-.4,0Z"/>
    </g>
    <g>
      <path class="st9" d="M231.8,956.7s-5.1,2.1-6.4,4"/>
      <path class="st40" d="M225.3,963.1c-.5,0-.9-.1-1.3-.4-1.1-.7-1.3-2.2-.6-3.3,1.7-2.4,6.5-4.5,7.5-4.9,1.2-.5,2.6,0,3.1,1.3.5,1.2,0,2.6-1.3,3.1-2.1.9-4.8,2.4-5.4,3.2-.5.7-1.2,1-1.9,1Z"/>
    </g>
    <g>
      <path class="st9" d="M219.1,1008.9s-5.1,2.1-6.4,4"/>
      <path class="st40" d="M212.6,1015.3c-.5,0-.9-.1-1.3-.4-1.1-.7-1.3-2.2-.6-3.3,1.7-2.4,6.5-4.5,7.5-4.9,1.2-.5,2.6,0,3.1,1.3.5,1.2,0,2.6-1.3,3.1-2.1.9-4.8,2.4-5.4,3.2-.5.7-1.2,1-1.9,1Z"/>
    </g>
    <g>
      <path class="st9" d="M308.3,1025.1s5.1-.9,6-4.5"/>
      <path class="st40" d="M308.3,1027.5c-1.1,0-2.1-.8-2.3-2-.2-1.3.6-2.5,1.9-2.7.9-.2,3.7-1,4.1-2.7.3-1.3,1.6-2,2.9-1.7,1.3.3,2,1.6,1.7,2.9-1,4-5.4,5.8-7.8,6.2-.1,0-.3,0-.4,0Z"/>
    </g>
    <g>
      <path class="st9" d="M198.6,987s.9-5.1,4.5-5.9"/>
      <path class="st40" d="M198.6,989.3c-.1,0-.3,0-.4,0-1.3-.2-2.1-1.5-1.9-2.7.5-2.4,2.3-6.8,6.3-7.8,1.3-.3,2.5.5,2.8,1.7.3,1.3-.5,2.5-1.7,2.8-1.7.4-2.6,3.1-2.8,4.1-.2,1.1-1.2,1.9-2.3,1.9Z"/>
    </g>
    <g>
      <path class="st9" d="M277.7,1049.1s4.6-2.3,4.5-5.9"/>
      <path class="st40" d="M277.7,1051.4c-.9,0-1.7-.5-2.1-1.3-.6-1.2,0-2.6,1.1-3.2.8-.4,3.2-2,3.2-3.7,0-1.3,1-2.4,2.3-2.4,1.3,0,2.4,1,2.4,2.3.1,4.1-3.6,7.1-5.8,8.1-.3.2-.7.2-1,.2Z"/>
    </g>
    <g>
      <path class="st9" d="M179.6,1092.5s5.1-.9,6-4.5"/>
      <path class="st40" d="M179.6,1094.9c-1.1,0-2.1-.8-2.3-2-.2-1.3.6-2.5,1.9-2.7.9-.2,3.7-1,4.1-2.7.3-1.3,1.6-2,2.9-1.7,1.3.3,2,1.6,1.7,2.9-1,4-5.4,5.8-7.8,6.2-.1,0-.3,0-.4,0Z"/>
    </g>
    <g>
      <path class="st9" d="M236.1,987s.9-5.1,4.5-5.9"/>
      <path class="st40" d="M236.1,989.3c-.1,0-.3,0-.4,0-1.3-.2-2.1-1.5-1.9-2.7.5-2.4,2.3-6.8,6.3-7.8,1.3-.3,2.5.5,2.8,1.7.3,1.3-.5,2.5-1.7,2.8-1.7.4-2.6,3.1-2.8,4.1-.2,1.1-1.2,1.9-2.3,1.9Z"/>
    </g>
    <g>
      <path class="st9" d="M177.3,1028.1s.9-5.1,4.5-5.9"/>
      <path class="st40" d="M177.3,1030.4c-.1,0-.3,0-.4,0-1.3-.2-2.1-1.5-1.9-2.8.5-2.4,2.3-6.8,6.3-7.8,1.3-.3,2.5.5,2.8,1.7.3,1.3-.5,2.5-1.7,2.8-1.7.4-2.6,3.3-2.8,4.1-.2,1.1-1.2,1.9-2.3,1.9Z"/>
    </g>
    <g>
      <path class="st9" d="M256.2,1073.3s5.1-.9,6-4.5"/>
      <path class="st40" d="M256.2,1075.7c-1.1,0-2.1-.8-2.3-2-.2-1.3.6-2.5,1.9-2.7.9-.2,3.7-1,4.1-2.7.3-1.3,1.6-2,2.9-1.7,1.3.3,2,1.6,1.7,2.9-1,4-5.4,5.8-7.8,6.2-.1,0-.3,0-.4,0Z"/>
    </g>
    <g>
      <path class="st9" d="M246.6,1023.6s1.7-1.3,3.6-4.5"/>
      <path class="st40" d="M246.6,1025.9c-.7,0-1.4-.3-1.9-.9-.8-1-.6-2.5.4-3.3,0,0,1.4-1.2,3-3.8.7-1.1,2.1-1.5,3.2-.8,1.1.7,1.5,2.1.8,3.2-2.1,3.4-4,4.9-4.2,5.1-.4.3-.9.5-1.4.5Z"/>
    </g>
    <g>
      <path class="st9" d="M209.2,1046.1s1.7-1.3,3.6-4.5"/>
      <path class="st40" d="M209.2,1048.5c-.7,0-1.4-.3-1.9-.9-.8-1-.6-2.5.4-3.3,0,0,1.4-1.2,3-3.8.7-1.1,2.1-1.5,3.2-.8,1.1.7,1.5,2.1.8,3.2-2.1,3.4-4,4.9-4.2,5.1-.4.3-.9.5-1.4.5Z"/>
    </g>
    <g>
      <path class="st9" d="M206.2,1073.3s5.1-.9,6-4.5"/>
      <path class="st40" d="M206.2,1075.7c-1.1,0-2.1-.8-2.3-2-.2-1.3.6-2.5,1.9-2.7.9-.2,3.7-1,4.1-2.7.3-1.3,1.6-2,2.9-1.7,1.3.3,2,1.6,1.7,2.9-1,4-5.4,5.8-7.8,6.2-.1,0-.3,0-.4,0Z"/>
    </g>
    <path class="st13" d="M319.6,943.8l12.6-30.7c1.8-4.4,7.3-5.9,11.1-3h0c2.9,2.3,3.7,6.4,1.7,9.6l-19.6,30.9"/>
    <g>
      <path class="st9" d="M263.7,961s2.2-4.7,5.9-4.6"/>
      <path class="st40" d="M263.7,963.3c-.3,0-.7,0-1-.2-1.2-.6-1.7-2-1.1-3.1,1.1-2.2,3.9-6,8.1-5.9,1.3,0,2.3,1.1,2.3,2.4,0,1.3-1.1,2.4-2.4,2.3,0,0,0,0,0,0-1.8,0-3.3,2.5-3.7,3.2-.4.9-1.2,1.3-2.1,1.3Z"/>
    </g>
    <path class="st27" d="M347.6,956.2c-10.6-9.4-17.4-12.4-21.5-11.3-.1-4.6-2.6-11.2-8.4-20.5-20.9-33.4-73.5,5.3-73.5,5.3,0,0,27.3,14,50.4,20.7-13.7,14.9-25.7,38.7-25.7,38.7,0,0,43.7,19.4,58.5,2.6,5.9,20.7,13.6,40.4,13.6,40.4,0,0,41.3-45.3,6.5-76.1Z"/>
  </g>
  <path class="st31" d="M596.3,388.2c3,23.9-2.9,50.6-25.4,98.5-32.9,69.9-81.1,92.1-219.5,86.8-104.9-4-167.8-109-148.1-183.7,1.8-6.7-3,6.1,0,0"/>
  <ellipse class="st9" cx="399.2" cy="394.3" rx="197.6" ry="69.7" transform="translate(-3.3 3.4) rotate(-.5)"/>
  <path class="st9" d="M399.7,461.6c-64.6.5-124.9-10.1-161.7-28.5-1.1-7.6-4.7-49.9,42.6-74.4,17.2-8.9,33.6-17.6,45.9-26.7,23-17.1,32-36.1,32-67.8s19.8-45.4,31.6-49.3c.5-.2.8,0,1,.3.1.2.4.6,0,1.2-3.9,6.3-12.3,22.8-6.8,41.2,4.5,14.9,17.2,27.1,37.6,36.4,18.3,8.3,35,20.6,49.6,36.7,39.6,43.4,52.9,101.8,55.2,113.4-35.4,10.9-80.4,17.2-127,17.6Z"/>
  <g>
    <path class="st9" d="M289.9,356.7s55.5-14,58.2,23.6c2.7,37.6,74.9,18.7,74.9,18.7"/>
    <path class="st23" d="M289.8,356.5c17.5-4,45-6.6,55.7,11.3,1.7,3,2.7,6.4,3.3,9.7.4,3.1.6,6.5,1.9,9.4,5.3,12.5,20.8,14.6,32.8,15.1,13.1.5,26.3-1.1,39.3-3.4.2,0,.3.2,0,.3-23.4,7.2-75.4,14.9-76.3-21.2-2.2-18.7-20.9-23.6-37.1-23.3-6.6,0-13.2.8-19.7,2.2,0,0-.2,0-.2-.1,0,0,0-.2.1-.2h0Z"/>
  </g>
  <path class="st23" d="M370.3,323c15.8,12.6,35.5,22.1,56,22,6.6-.2,13.4-1.4,19.7-3.7,8.5-2.9,16.1-7.9,23.3-13.6.1-.1.3,0,.2.2-1.6,1.7-3.1,3.4-4.8,5-3.3,3.1-7.3,6-11.3,8.2-18.7,10.7-42.1,7-60.5-2.4-8.2-4.2-15.9-9.4-22.8-15.5-.1-.1,0-.4.2-.2h0Z"/>
  <g>
    <path class="st3" d="M148.4,353.2s-66.9-31.9-111,60.3c-44.1,92.2-42,98.5-18.3,114.1,23.7,15.7,171-13.7,190.4-87.2,19.4-73.5-61.1-87.3-61.1-87.3Z"/>
    <g>
      <path class="st9" d="M77.1,509.8s8.9-.9,9.8-4.5"/>
      <path class="st40" d="M77.1,512.2c-1.2,0-2.2-.9-2.3-2.1-.1-1.3.8-2.5,2.1-2.6,3.9-.4,7.5-1.8,7.8-2.7.3-1.3,1.6-2,2.9-1.7,1.3.3,2,1.6,1.7,2.9-1.2,4.8-9.4,6-11.9,6.2,0,0-.2,0-.2,0Z"/>
    </g>
    <g>
      <path class="st9" d="M52.1,463.9s-3.5,3.6-2.6,5.8"/>
      <path class="st40" d="M49.5,472.1c-1,0-1.9-.6-2.2-1.5-1.4-3.4,2.1-7.2,3.1-8.3.9-.9,2.4-.9,3.3,0,.9.9.9,2.4,0,3.3-1.1,1.1-2.1,2.8-2.1,3.4.5,1.2-.1,2.5-1.3,3-.3.1-.6.2-.8.2Z"/>
    </g>
    <g>
      <path class="st9" d="M106.4,468.4s5.1-.9,6-4.5"/>
      <path class="st40" d="M106.4,470.7c-1.1,0-2.1-.8-2.3-2-.2-1.3.6-2.5,1.9-2.7.9-.2,3.7-1,4.1-2.7.3-1.3,1.6-2,2.9-1.7,1.3.3,2,1.6,1.7,2.9-1,4-5.4,5.8-7.8,6.2-.1,0-.3,0-.4,0Z"/>
    </g>
    <g>
      <path class="st9" d="M102.8,368.4s-5.1,2.1-6.4,4"/>
      <path class="st40" d="M96.4,374.8c-.5,0-.9-.1-1.3-.4-1.1-.7-1.3-2.2-.6-3.3,1.7-2.4,6.5-4.5,7.5-4.9,1.2-.5,2.6,0,3.1,1.3.5,1.2,0,2.6-1.3,3.1-2.1.9-4.8,2.4-5.4,3.2-.5.7-1.2,1-1.9,1Z"/>
    </g>
    <g>
      <path class="st9" d="M90.1,420.7s-5.1,2.1-6.4,4"/>
      <path class="st40" d="M83.7,427.1c-.5,0-.9-.1-1.3-.4-1.1-.7-1.3-2.2-.6-3.3,1.7-2.4,6.5-4.5,7.5-4.9,1.2-.5,2.6,0,3.1,1.3.5,1.2,0,2.6-1.3,3.1-2.1.9-4.8,2.4-5.4,3.2-.5.7-1.2,1-1.9,1Z"/>
    </g>
    <g>
      <path class="st9" d="M179.3,436.9s5.1-.9,6-4.5"/>
      <path class="st40" d="M179.3,439.3c-1.1,0-2.1-.8-2.3-2-.2-1.3.6-2.5,1.9-2.7.9-.2,3.7-1,4.1-2.7.3-1.3,1.6-2,2.9-1.7,1.3.3,2,1.6,1.7,2.9-1,4-5.4,5.8-7.8,6.2-.1,0-.3,0-.4,0Z"/>
    </g>
    <g>
      <path class="st9" d="M69.6,398.8s.9-5.1,4.5-5.9"/>
      <path class="st40" d="M69.6,401.1c-.1,0-.3,0-.4,0-1.3-.2-2.1-1.5-1.9-2.7.5-2.4,2.3-6.8,6.3-7.8,1.3-.3,2.5.5,2.8,1.7.3,1.3-.5,2.5-1.7,2.8-1.7.4-2.6,3.1-2.8,4.1-.2,1.1-1.2,1.9-2.3,1.9Z"/>
    </g>
    <g>
      <path class="st9" d="M148.8,460.9s4.6-2.3,4.5-5.9"/>
      <path class="st40" d="M148.8,463.2c-.9,0-1.7-.5-2.1-1.3-.6-1.2,0-2.6,1.1-3.2.8-.4,3.2-2,3.2-3.7,0-1.3,1-2.4,2.3-2.4,1.3,0,2.4,1,2.4,2.3.1,4.1-3.6,7.1-5.8,8.1-.3.2-.7.2-1,.2Z"/>
    </g>
    <g>
      <path class="st9" d="M50.6,504.3s5.1-.9,6-4.5"/>
      <path class="st40" d="M50.6,506.7c-1.1,0-2.1-.8-2.3-2-.2-1.3.6-2.5,1.9-2.7.9-.2,3.7-1,4.1-2.7.3-1.3,1.6-2,2.9-1.7,1.3.3,2,1.6,1.7,2.9-1,4-5.4,5.8-7.8,6.2-.1,0-.3,0-.4,0Z"/>
    </g>
    <g>
      <path class="st9" d="M107.1,398.8s.9-5.1,4.5-5.9"/>
      <path class="st40" d="M107.1,401.1c-.1,0-.3,0-.4,0-1.3-.2-2.1-1.5-1.9-2.7.5-2.4,2.3-6.8,6.3-7.8,1.3-.3,2.5.5,2.8,1.7.3,1.3-.5,2.5-1.7,2.8-1.7.4-2.6,3.1-2.8,4.1-.2,1.1-1.2,1.9-2.3,1.9Z"/>
    </g>
    <g>
      <path class="st9" d="M48.3,439.9s.9-5.1,4.5-5.9"/>
      <path class="st40" d="M48.3,442.2c-.1,0-.3,0-.4,0-1.3-.2-2.1-1.5-1.9-2.8.5-2.4,2.3-6.8,6.3-7.8,1.3-.3,2.5.5,2.8,1.7.3,1.3-.5,2.5-1.7,2.8-1.7.4-2.6,3.3-2.8,4.1-.2,1.1-1.2,1.9-2.3,1.9Z"/>
    </g>
    <g>
      <path class="st9" d="M127.2,485.1s5.1-.9,6-4.5"/>
      <path class="st40" d="M127.2,487.5c-1.1,0-2.1-.8-2.3-2-.2-1.3.6-2.5,1.9-2.7.9-.2,3.7-1,4.1-2.7.3-1.3,1.6-2,2.9-1.7,1.3.3,2,1.6,1.7,2.9-1,4-5.4,5.8-7.8,6.2-.1,0-.3,0-.4,0Z"/>
    </g>
    <g>
      <path class="st9" d="M117.6,435.4s1.7-1.3,3.6-4.5"/>
      <path class="st40" d="M117.6,437.7c-.7,0-1.4-.3-1.9-.9-.8-1-.6-2.5.4-3.3,0,0,1.4-1.2,3-3.8.7-1.1,2.1-1.5,3.2-.8,1.1.7,1.5,2.1.8,3.2-2.1,3.4-4,4.9-4.2,5.1-.4.3-.9.5-1.4.5Z"/>
    </g>
    <g>
      <path class="st9" d="M80.2,457.9s1.7-1.3,3.6-4.5"/>
      <path class="st40" d="M80.2,460.3c-.7,0-1.4-.3-1.9-.9-.8-1-.6-2.5.4-3.3,0,0,1.4-1.2,3-3.8.7-1.1,2.1-1.5,3.2-.8,1.1.7,1.5,2.1.8,3.2-2.1,3.4-4,4.9-4.2,5.1-.4.3-.9.5-1.4.5Z"/>
    </g>
    <g>
      <path class="st9" d="M77.2,485.1s5.1-.9,6-4.5"/>
      <path class="st40" d="M77.2,487.5c-1.1,0-2.1-.8-2.3-2-.2-1.3.6-2.5,1.9-2.7.9-.2,3.7-1,4.1-2.7.3-1.3,1.6-2,2.9-1.7,1.3.3,2,1.6,1.7,2.9-1,4-5.4,5.8-7.8,6.2-.1,0-.3,0-.4,0Z"/>
    </g>
    <path class="st13" d="M190.6,355.6l12.6-30.7c1.8-4.4,7.3-5.9,11.1-3h0c2.9,2.3,3.7,6.4,1.7,9.6l-19.6,30.9"/>
    <g>
      <path class="st9" d="M134.8,372.7s2.2-4.7,5.9-4.6"/>
      <path class="st40" d="M134.8,375.1c-.3,0-.7,0-1-.2-1.2-.6-1.7-2-1.1-3.1,1.1-2.2,3.9-6,8.1-5.9,1.3,0,2.3,1.1,2.3,2.4,0,1.3-1.1,2.4-2.4,2.3,0,0,0,0,0,0-1.8,0-3.3,2.5-3.7,3.2-.4.9-1.2,1.3-2.1,1.3Z"/>
    </g>
    <path class="st27" d="M218.7,368c-10.6-9.4-17.4-12.4-21.5-11.3-.1-4.6-2.6-11.2-8.4-20.5-20.9-33.4-73.5,5.3-73.5,5.3,0,0,27.3,14,50.4,20.7-13.7,14.9-25.7,38.7-25.7,38.7,0,0,43.7,19.4,58.5,2.6,5.9,20.7,13.6,40.4,13.6,40.4,0,0,41.3-45.3,6.5-76.1Z"/>
  </g>
  <g>
    <path class="st3" d="M236.9,538.8s-52,52.8,20.8,124.6c72.7,71.8,83.2,76,101.9,54.6,32.6-37.4,43-166.1-20.2-208.4-63.1-42.4-102.5,29.2-102.5,29.2Z"/>
    <g>
      <g>
        <path class="st40" d="M361.7,657.4s2.1-8.7-1-10.7"/>
        <path class="st40" d="M361.7,659.8c-.2,0-.4,0-.5,0-1.3-.3-2.1-1.6-1.8-2.8.9-3.8.8-7.7,0-8.2-1.1-.7-1.4-2.2-.7-3.3s2.2-1.4,3.3-.7c4.1,2.7,2.6,10.8,2,13.2-.3,1.1-1.2,1.8-2.3,1.8Z"/>
      </g>
      <g>
        <path class="st40" d="M310.1,666s2.2,4.5,4.6,4.4"/>
        <path class="st40" d="M314.6,672.8c-3.5,0-6-4.3-6.6-5.7-.6-1.2,0-2.6,1.1-3.2,1.2-.6,2.6,0,3.2,1.1.7,1.4,1.9,2.9,2.5,3.1,1.3,0,2.4.9,2.4,2.2,0,1.3-1,2.4-2.3,2.5,0,0-.1,0-.2,0Z"/>
      </g>
      <g>
        <path class="st40" d="M332.1,616.1s.8-5.1-2.3-7.1"/>
        <path class="st40" d="M332.1,618.5c-.1,0-.3,0-.4,0-1.3-.2-2.2-1.4-2-2.7h0c.1-.9.2-3.8-1.2-4.8-1.1-.7-1.4-2.2-.7-3.3.7-1.1,2.2-1.4,3.3-.7,3.4,2.2,3.7,7,3.3,9.4-.2,1.2-1.2,2-2.3,2Z"/>
      </g>
      <g>
        <path class="st40" d="M236.5,586.9s.3,5.5,1.7,7.4"/>
        <path class="st40" d="M238.2,596.6c-.7,0-1.4-.3-1.9-1-1.7-2.3-2.1-7.2-2.2-8.7,0-1.3.9-2.4,2.2-2.5,1.4,0,2.4.9,2.5,2.2.1,2.3.7,5.3,1.3,6.1.8,1.1.5,2.5-.5,3.3-.4.3-.9.5-1.4.5Z"/>
      </g>
      <g>
        <path class="st40" d="M281.7,616s.3,5.5,1.7,7.4"/>
        <path class="st40" d="M283.4,625.7c-.7,0-1.4-.3-1.9-1-1.7-2.4-2.1-7.6-2.2-8.7,0-1.3.9-2.4,2.2-2.5,1.3,0,2.4.9,2.5,2.2.1,2.3.7,5.3,1.3,6.1.8,1,.5,2.5-.5,3.3-.4.3-.9.5-1.4.5Z"/>
      </g>
      <g>
        <path class="st40" d="M326.2,537s.8-5.1-2.3-7.1"/>
        <path class="st40" d="M326.2,539.3c-.1,0-.3,0-.4,0-1.3-.2-2.2-1.4-2-2.7h0c.1-.9.2-3.8-1.2-4.8-1.1-.7-1.4-2.2-.7-3.3.7-1.1,2.2-1.4,3.3-.7,3.4,2.2,3.7,7,3.3,9.4-.2,1.2-1.2,2-2.3,2Z"/>
      </g>
      <g>
        <path class="st40" d="M254.3,628.1s-4.5-2.6-4.1-6.2"/>
        <path class="st40" d="M254.3,630.5c-.4,0-.8,0-1.2-.3-2.2-1.2-5.7-4.4-5.3-8.5.1-1.3,1.3-2.2,2.6-2.1,1.3.1,2.2,1.3,2.1,2.6-.2,1.8,2.3,3.5,2.9,3.9,1.1.6,1.5,2.1.9,3.2-.4.8-1.2,1.2-2.1,1.2Z"/>
      </g>
      <g>
        <path class="st40" d="M338.8,573.6s-.6-5.1-4.1-6.2"/>
        <path class="st40" d="M338.8,576c-1.2,0-2.2-.9-2.3-2.1-.1-.9-.8-3.7-2.5-4.2-1.2-.4-1.9-1.7-1.6-2.9.4-1.2,1.7-1.9,2.9-1.6,3.9,1.2,5.5,5.7,5.8,8.2.2,1.3-.8,2.5-2.1,2.6,0,0-.2,0-.3,0Z"/>
      </g>
      <g>
        <path class="st40" d="M347.8,680.6s.8-5.1-2.3-7.1"/>
        <path class="st40" d="M347.8,683c-.1,0-.3,0-.4,0-1.3-.2-2.2-1.4-2-2.7h0c.1-.9.2-3.8-1.2-4.8-1.1-.7-1.4-2.2-.7-3.3.7-1.1,2.2-1.4,3.3-.7,3.4,2.2,3.7,7,3.3,9.4-.2,1.2-1.2,2-2.3,2Z"/>
      </g>
      <g>
        <path class="st40" d="M266.5,592.7s-4.5-2.6-4.1-6.2"/>
        <path class="st40" d="M266.5,595c-.4,0-.8,0-1.2-.3-2.2-1.2-5.7-4.4-5.3-8.5.1-1.3,1.3-2.2,2.6-2.1,1.3.1,2.2,1.3,2.1,2.6-.2,1.8,2.3,3.5,2.9,3.9,1.1.6,1.5,2.1.9,3.2-.4.8-1.2,1.2-2.1,1.2Z"/>
      </g>
      <g>
        <path class="st40" d="M286.2,661.7s-4.5-2.6-4.1-6.2"/>
        <path class="st40" d="M286.1,664.1c-.4,0-.8,0-1.2-.3-2.2-1.2-5.7-4.4-5.3-8.5.1-1.3,1.3-2.2,2.6-2.1,1.3.1,2.2,1.3,2.1,2.6-.2,1.7,2.1,3.5,2.9,3.9,1.1.7,1.5,2.1.9,3.2-.4.8-1.2,1.2-2,1.2Z"/>
      </g>
      <g>
        <path class="st40" d="M354.7,601.9s.8-5.1-2.3-7.1"/>
        <path class="st40" d="M354.7,604.3c-.1,0-.3,0-.4,0-1.3-.2-2.2-1.4-2-2.7.1-.9.2-3.8-1.2-4.8-1.1-.7-1.4-2.2-.7-3.3.7-1.1,2.2-1.4,3.3-.7,3.4,2.2,3.7,7,3.3,9.4-.2,1.2-1.2,2-2.3,2Z"/>
      </g>
      <g>
        <path class="st40" d="M304.6,594.7s-.7-2-3-4.8"/>
        <path class="st40" d="M304.6,597.1c-1,0-1.9-.6-2.2-1.6,0,0-.7-1.8-2.6-4.1-.8-1-.7-2.5.3-3.3,1-.8,2.5-.7,3.3.3,2.6,3.1,3.4,5.4,3.5,5.6.4,1.2-.3,2.6-1.5,3-.2,0-.5.1-.7.1Z"/>
      </g>
      <g>
        <path class="st40" d="M313.6,637.5s-.7-2-3-4.8"/>
        <path class="st40" d="M313.6,639.8c-1,0-1.9-.6-2.2-1.6,0,0-.7-1.8-2.6-4.1-.8-1-.7-2.5.3-3.3,1-.8,2.5-.7,3.3.3,2.6,3.1,3.4,5.4,3.5,5.6.4,1.2-.3,2.6-1.5,3-.2,0-.5.1-.7.1Z"/>
      </g>
      <g>
        <path class="st40" d="M319,697.1s1.2,1.7,4.3,3.7"/>
        <path class="st40" d="M323.3,703.2c-.4,0-.9-.1-1.3-.4-3.4-2.2-4.8-4.1-5-4.3-.8-1.1-.5-2.5.5-3.3,1.1-.8,2.5-.5,3.3.5,0,0,1.1,1.5,3.7,3.1,1.1.7,1.4,2.2.7,3.3-.5.7-1.2,1.1-2,1.1Z"/>
      </g>
      <g>
        <path class="st40" d="M338.4,649.2s.8-5.1-2.3-7.1"/>
        <path class="st40" d="M338.4,651.6c-.1,0-.3,0-.4,0-1.3-.2-2.2-1.4-2-2.7h0c.1-.9.2-3.8-1.2-4.8-1.1-.7-1.4-2.2-.7-3.3.7-1.1,2.2-1.4,3.3-.7,3.4,2.2,3.7,7,3.3,9.4-.2,1.2-1.2,2-2.3,2Z"/>
      </g>
    </g>
    <path class="st13" d="M263.9,500.7l-27.6-28.3c-2.5-4.1-.4-9.4,4.2-10.7h0c3.6-1,7.3.8,8.7,4.3l16.8,25.2"/>
    <path class="st27" d="M275.8,475.4c-12.3,7-17.5,12.4-17.7,16.7-4.4-1.4-11.5-1.2-22.1,1.2-38.4,8.8-19,71.2-19,71.2,0,0,22.1-21.2,36-40.9,9.6,17.8,28.2,36.9,28.2,36.9,0,0,32.6-35,21.6-54.5,21.5,1.2,42.6.3,42.6.3,0,0-29.3-53.9-69.8-31Z"/>
  </g>
  <g>
    <path class="st48" d="M1322.4,200.7s-112.6,245.6-281.1,139.3-1.6-9.1,3.2-8.1c26.9,5.5,70.1,9.4,96.9-14.1,32.6-28.7,56.1-94.2,64.3-119.9,2.3-7.1,6.6-13.4,12.3-18.1l37.5-31.1c4-3.3,9.5-4.3,14.4-2.7l38.1,1.5c8.5,2.8,14.3,53.2,14.3,53.2Z"/>
    <g>
      <path class="st27" d="M1254.4,131.6c14.1,1.2,21,4,23,7.8,3.4-3.1,9.9-5.9,20.6-8.1,29.4-6.1,28.9,44.7,31.5,65.7.5,3.9-4.1,6.3-7,3.7-8.7-7.7-20.2-24.1-33.5-31.8-1.3,20.2-24.9,31.1-24.9,31.1,0,0-11.4-18.6-15.3-35-19,10-31.5,22.7-31.5,22.7,0,0-9-60.1,37.2-56.2Z"/>
      <path class="st44" d="M1254.4,131.4c6.7.8,19.3,1.6,23.1,7.9,0,0-.2,0-.2,0,2.5-2.3,5.7-3.7,8.8-4.9,4.8-1.7,9.7-3.1,14.7-3.8,27.4-2.2,27,46.4,29.4,65.1,0,0,.1,1.2.1,1.2.6,3.8-3.5,7-7,5.5-2.4-1.2-4.1-3.4-6-5.2-9.2-9.6-17.6-20.4-29-27.2,0,0,1.8-.9,1.8-.9-1,14.8-13,25.9-25.5,32.3,0,0-1.1.6-1.1.6s-.7-1.1-.7-1.1c-6.6-11.2-12.4-22.8-15.7-35.4,0,0,2.2,1,2.2,1-11.3,6-21.9,13.5-31.3,22.3,0,0-1.9,1.9-1.9,1.9,0,0-.3-2.6-.3-2.6-3-27.3,4.7-59.9,38.6-56.5h0ZM1254.4,131.7c-33.5-2.8-39.4,29.3-35.9,55.9,0,0-2.2-.7-2.2-.7,9.8-9.7,21.2-17.7,33.4-24.1,3.1,12.9,8.9,25.1,15.5,36.6,0,0-1.8-.5-1.8-.5,6-2.9,11.7-7.1,16.2-12,5-5.4,8.2-12.4,8.3-19.8,0,0,1.6,1,1.6,1,11.7,7.1,20.1,18.1,29.3,27.9,1.7,1.6,3.2,3.6,5.2,4.8,2.2,1,4.9-1.1,4.5-3.5,0,0-.1-1.3-.1-1.3-2.3-18.7-1.2-69.5-30.1-64.3-7.3,1.5-15.2,3.2-21,8.1-3.6-6.3-16.4-7.1-23-7.9h0Z"/>
    </g>
    <path class="st13" d="M1282.9,134.4l13.5-30.3c1.9-4.3-.8-9.3-5.5-10.1h0c-3.7-.6-7.2,1.8-8.1,5.4l-8.8,35.5"/>
  </g>
  <g>
    <path class="st11" d="M1990.9,105.5s-107.9-60.5-196,142c-88.1,202.5-109.6,206.8-62.3,241.2,47.3,34.4,284.1-34.4,322.8-195.8s-64.6-187.4-64.6-187.4Z"/>
    <path class="st4" d="M2019.3,71.6s.4,100.8,88.2,78c87.8-22.8-88.2-78-88.2-78Z"/>
    <g>
      <path class="st16" d="M2006.2,94s-18.3-55.6,0-81.6"/>
      <path class="st15" d="M1998.1,44.9"/>
      <path class="st15" d="M1998.1,44.9s9.5,25.3,25,30.5"/>
    </g>
    <path class="st20" d="M1933.8,390.3c-27.9,31.2-65.4,55.4-106.8,63.3,0,0,0-.3,0-.3,19.7-7,39.1-14.8,57.4-24.9,9.1-5.1,17.8-10.9,26-17.4,8.3-6.4,16.1-13.4,23.3-21,0,0,.2.2.2.2h0Z"/>
  </g>
  <g>
    <path class="st48" d="M1555.3,188.7s165.3,213.7,305.4,71.9c3.5-3.5-.5-9.2-5-7.1-24.9,11.5-66.2,25.1-97.5,8.2-38.2-20.6-75.9-79-89.8-102.2-3.8-6.4-9.4-11.5-16.1-14.9l-43.6-21.7c-4.7-2.3-10.2-2.1-14.7.6l-36.8,10.1c-7.7,4.7-1.9,55-1.9,55Z"/>
    <g>
      <path class="st27" d="M1605.8,105.9c-13.5,4.4-19.6,8.7-20.6,12.8-4-2.3-11-3.5-21.9-3.2-30,.8-18.1,50.1-15.7,71.2.4,3.9,5.4,5.2,7.7,2,6.8-9.5,14.2-28,25.4-38.5,5.8,19.4,31.3,24.7,31.3,24.7,0,0,6.9-20.7,7-37.6,20.8,5.5,35.8,15,35.8,15,0,0-4.8-60.6-49-46.3Z"/>
      <path class="st44" d="M1605.9,106.1c-6.2,2.2-18.5,6-20.6,12.9-6.8-3.4-14.8-3.2-22.3-3.1-29.3,1.5-16.7,50.7-14.7,69.4,0,.4.2,1.8.4,2.2.7,1.9,3.3,2.6,4.9,1.4,1.7-1.6,2.7-3.9,4-5.9,6.8-11.6,12.4-24.2,22.2-33.8,0,0,1.4-1.3,1.4-1.3,1.8,7.2,6.5,13.2,12.6,17.4,5.5,3.8,12,6.6,18.5,8.1,0,0-1.6.9-1.6.9,3.8-12.7,6.7-25.9,6.8-39.2,13.3,3.5,26.3,8.6,38,15.9,0,0-2,1.2-2,1.2-2.6-26.6-15.6-56.6-47.6-46.3h0ZM1605.8,105.8c32.2-10.9,47.1,19.1,50.4,46.3,0,0,.3,2.6.3,2.6l-2.3-1.4c-11.1-6.4-23.1-11.3-35.5-14.6,0,0,1.9-1.5,1.9-1.5-.3,13-3.3,25.7-7.2,38,0,0-.4,1.2-.4,1.2s-1.2-.3-1.2-.3c-13.6-3.4-27.9-11.5-32.2-25.7,0,0,1.9.5,1.9.5-9.6,9.2-15.3,21.7-22.1,33.1-1.5,2.2-2.6,4.7-4.6,6.4-3.1,2.2-7.8,0-8.1-3.8,0,0-.1-1.2-.1-1.2-1.9-18.8-13.3-66,13.9-70.1,5-.5,10.1-.2,15.1.4,3.3.5,6.7,1.2,9.7,2.8,0,0-.2,0-.2,0,2.3-7,14.4-10.6,20.7-12.9h0Z"/>
    </g>
    <path class="st13" d="M1578.7,115.1l-20.1-26.5c-2.9-3.8-1.3-9.3,3.1-11h0c3.5-1.4,7.4.1,9.1,3.4l16.6,32.6"/>
  </g>
  <g>
    <path class="st46" d="M260.5,676c16.6,29.8,2.1,45-1.9,48.5-.6.5-1.1,1-1.7,1.5s-1.5,1.3-2.7,2.2c-7.3,5.1-13.3,11.9-17.3,19.9-.6,1.1-1.1,2-1.5,2.6s-.8,1.2-1.1,1.8c-2.5,4.3-15.4,22.1-48.9,9.6-4-1.5-7.6-3.7-10.8-6.4-18.5-15.8-83.6-94.9-53.7-130.5,27.7-32.9,109,23.8,129.8,39.6,4,3,7.3,6.8,9.7,11.1Z"/>
    <path class="st24" d="M133.6,638.4c4.5,20,18.7,41.1,40.9,42.1,1.4.2,5,0,6.5,0,3-.1,6,.2,9,.7,21.3,3.7,35.9,23.5,41.3,43.3,0,.2-.2.3-.3,0-4.6-10.8-11-20.8-19.3-28.7-8.3-7.8-19.2-13.1-30.7-13,0,0-4.4,0-4.4,0-17.5-.5-30.9-12.2-37.8-27.6-2.5-5.4-4.4-11-5.5-16.8,0,0,0-.2.1-.2,0,0,.2,0,.2.1h0Z"/>
    <path class="st46" d="M272.1,749.2c-13.3,31.4-34.3,29.3-39.4,28.2s-1.5-.3-2.2-.4-2-.3-3.4-.8c-8.5-2.7-17.6-3.2-26.4-1.4s-2.3.4-3,.4-1.4.1-2.1.2c-5,.6-26.9,1.4-37.6-32.7-1.3-4-1.8-8.3-1.6-12.5,1.1-24.3,23.7-124.3,70.1-122.4,43,1.7,48,100.6,48.3,126.9,0,5-.9,9.9-2.8,14.5Z"/>
    <path class="st24" d="M223.9,625.9c-13,15.8-21,40-8.2,58.1.7,1.2,3,4,3.9,5.2,1.9,2.3,3.5,4.9,5,7.6,10.2,19.1,3.5,42.8-8.9,59.2-.1.1-.4,0-.2-.2,5.7-10.2,9.7-21.4,10.8-32.9,1.1-11.3-1.4-23.2-8.6-32.3,0,0-2.7-3.6-2.7-3.6-10.3-14.1-9.3-31.9-1.3-46.8,2.7-5.3,6-10.2,9.9-14.6.1-.1.4,0,.2.2h0Z"/>
    <path class="st41" d="M151.4,564c-7.8,20-16.9,39.5-31.5,55.6-19.2,21.1-43.2,32.2-71.9,30.2-33.7-2.3-53.6-37.9-38.1-68,13.1-25.3,34.9-39.9,62.6-45.4,20.4-4,40.8-2.1,61.1,1.3,6,1,12,2.4,17.9,3.7,4.4,1,6.2,3.8,4.9,8.2-1.5,4.8-3.4,9.6-5.1,14.3ZM143.5,562.9c-.2-.7-.4-2.4-1.2-3-1.7-1.2-2.8.2-3.7,1.7-2.2,3.9-4.3,8-7,11.5-26.5,34.3-60.9,52.5-104.8,51.4-1.8,0-3.8-.2-4,2.2-.2,2.3,1.6,2.8,3.5,2.8,4.6,0,9.2.5,13.8,0,33.7-2.8,62-17,85.5-41.1,7.1-7.3,12.9-15.6,17.9-25.5ZM14.8,612.2c.6,1.2.9,2.9,1.8,3.2.9.3,2.6-.5,3.3-1.3,1.2-1.4,1.8-3.2,2.8-4.8,23.2-36.2,56.6-55.3,99.2-58.7,3.4-.3,6.9.3,10.3,0,1.3,0,3.3-1.1,3.6-2,.6-2.4-1.6-2.6-3.3-2.8-1.6-.2-3.2-.3-4.8-.3-42.1.6-75.9,18.2-102.2,50.7-3.9,4.8-6.9,10.3-10.6,16Z"/>
    <path class="st41" d="M-39.1,764.6c-8.7-19.7-16-39.9-17-61.6-1.4-28.5,7.8-53.4,29.5-72.2,25.5-22.2,64.7-11.1,75,21.1,8.6,27.2,3.6,52.9-12.2,76.4-11.6,17.3-27.4,30.3-44.2,42.3-5,3.5-10.2,6.7-15.3,10.1-3.8,2.5-7.1,1.7-9.2-2.3-2.3-4.5-4.4-9.1-6.5-13.7ZM-32.6,759.8c.6.3,1.9,1.4,3,1.2,2-.4,1.9-2.1,1.4-3.9-1.2-4.3-2.6-8.6-3.2-13.1-5.5-43,6-80.2,37.8-110.4,1.3-1.2,2.8-2.5,1.2-4.3-1.5-1.8-3.1-.9-4.4.5-3.3,3.2-6.8,6.2-9.8,9.7-21.9,25.8-31.8,55.9-31.4,89.5.1,10.2,1.8,20.2,5.4,30.7ZM23.5,633.9c-1.2-.4-2.7-1.4-3.5-1-.8.4-1.5,2.1-1.4,3.2.1,1.8,1,3.5,1.4,5.3,9.2,42-1,79.1-28.7,111.7-2.2,2.6-5.1,4.7-7.4,7.3-.8,1-1.6,3.1-1.1,4,1.2,2.1,3,.8,4.3-.3,1.3-1,2.5-2.1,3.6-3.2,29.4-30.2,40.8-66.6,36.5-108.1-.6-6.1-2.4-12.2-3.8-18.8Z"/>
    <path class="st41" d="M441.2-12.6c-7.8,20-16.9,39.5-31.5,55.6-19.2,21.1-43.2,32.2-71.9,30.2-33.7-2.3-53.6-37.9-38.1-68,13.1-25.3,34.9-39.9,62.6-45.4,20.4-4,40.8-2.1,61.1,1.3,6,1,12,2.4,17.9,3.7,4.4,1,6.2,3.8,4.9,8.2-1.5,4.8-3.4,9.6-5.1,14.3ZM433.3-13.7c-.2-.7-.4-2.4-1.2-3-1.7-1.2-2.8.2-3.7,1.7-2.2,3.9-4.3,8-7,11.5-26.5,34.3-60.9,52.5-104.8,51.4-1.8,0-3.8-.2-4,2.2-.2,2.3,1.6,2.8,3.5,2.8,4.6,0,9.2.5,13.8,0,33.7-2.8,62-17,85.5-41.1,7.1-7.3,12.9-15.6,17.9-25.5ZM304.6,35.5c.6,1.2.9,2.9,1.8,3.2.9.3,2.6-.5,3.3-1.3,1.2-1.4,1.8-3.2,2.8-4.8,23.2-36.2,56.6-55.3,99.2-58.7,3.4-.3,6.9.3,10.3,0,1.3,0,3.3-1.1,3.6-2,.6-2.4-1.6-2.6-3.3-2.8-1.6-.2-3.2-.3-4.8-.3-42.1.6-75.9,18.2-102.2,50.7-3.9,4.8-6.9,10.3-10.6,16Z"/>
    <path class="st41" d="M250.7,187.9c-8.7-19.7-16-39.9-17-61.6-1.4-28.5,7.8-53.4,29.5-72.2,25.5-22.2,64.7-11.1,75,21.1,8.6,27.2,3.6,52.9-12.2,76.4-11.6,17.3-27.4,30.3-44.2,42.3-5,3.5-10.2,6.7-15.3,10.1-3.8,2.5-7.1,1.7-9.2-2.3-2.3-4.5-4.4-9.1-6.5-13.7ZM257.2,183.1c.6.3,1.9,1.4,3,1.2,2-.4,1.9-2.1,1.4-3.9-1.2-4.3-2.6-8.6-3.2-13.1-5.5-43,6-80.2,37.8-110.4,1.3-1.2,2.8-2.5,1.2-4.3-1.5-1.8-3.1-.9-4.4.5-3.3,3.2-6.8,6.2-9.8,9.7-21.9,25.8-31.8,55.9-31.4,89.5.1,10.2,1.8,20.2,5.4,30.7ZM313.3,57.3c-1.2-.4-2.7-1.4-3.5-1-.8.4-1.5,2.1-1.4,3.2.1,1.8,1,3.5,1.4,5.3,9.2,42-1,79.1-28.7,111.7-2.2,2.6-5.1,4.7-7.4,7.3-.8,1-1.6,3.1-1.1,4,1.2,2.1,3,.8,4.3-.3,1.3-1,2.5-2.1,3.6-3.2,29.4-30.2,40.8-66.6,36.5-108.1-.6-6.1-2.4-12.2-3.8-18.8Z"/>
  </g>
  <g>
    <rect class="st36" x="-36.1" y="858.8" width="125.8" height="99.1" transform="translate(174.3 11.7) rotate(11)"/>
    <path class="st37" d="M66.6,913.5c29.1,10,84.9,10.3,112.8-23.7,36.6-44.6,8.2-68.4,8.2-68.4,0,0-4-5.7-12.5-9.3s-7.1-5.9-7.2-10.5c-.2-9.7-4.3-15.8-4.3-15.8,0,0-12.3-34.9-66.9-16.2-44.2,15.1-63.1,73.1-61.6,102.8"/>
    <path class="st37" d="M31.8,956.1c-3.7,30.6,7.8,85.2,46.9,105.3,51.3,26.4,68.6-6.3,68.6-6.3,0,0,4.7-5.1,6.4-14.1.9-4.6,4.2-8.2,8.8-9.2,9.5-2.2,14.5-7.6,14.5-7.6,0,0,31.5-19.4,1.8-68.8-24.1-40-83.5-49.6-112.2-41.9"/>
    <path class="st37" d="M28.3,869.6c17-27.3,30.4-83.9,2.3-120.2-36.8-47.6-67.5-24.4-67.5-24.4,0,0-6.7,2.7-12.3,10.5-2.8,3.9-7.6,5.8-12.4,4.8-9.9-2.1-17,.7-17,.7,0,0-38.3,4.4-32.2,64.2,5,48.4,59.5,81.3,90,86.7"/>
    <path class="st37" d="M-12.5,878.7c-19.7-25.4-68.1-57.6-111.9-44-57.4,17.9-46.3,54.9-46.3,54.9,0,0,.2,7.2,5.6,15.2s2.8,9.2.2,13.3c-5.4,8.6-5.3,16.2-5.3,16.2,0,0-9.2,37.5,49,52.5,47.1,12.1,91.8-20,107.5-46.7"/>
    <path class="st37" d="M-15.6,930.9c-30.7,2.7-81.7,25.1-93.4,67.5-15.3,55.6,20.3,65.8,20.3,65.8,0,0,5.9,3.6,15.2,3.4,4.6,0,8.9,2.5,10.8,6.7,4.1,8.8,10.4,12.6,10.4,12.6,0,0,25.5,26.9,67.7-12.4,34.2-31.8,29.8-91.9,16.4-118.4"/>
    <path class="st0" d="M24.2,898.8c52.2-179.9,69.3-175.3,69.3-175.3,0,0,18.3-5.9-6.7-12.8-25-6.9-71.6,195.6-71.6,195.6,0,0-.2,4.8,3.3,5.2,3.5.4,5.8-12.7,5.8-12.7Z"/>
    <circle class="st11" cx="61.4" cy="704.2" r="6.7"/>
    <circle class="st11" cx="102.9" cy="738.7" r="6.7"/>
    <circle class="st11" cx="115.8" cy="707.9" r="6.7"/>
    <circle class="st11" cx="43.9" cy="723.7" r="6.7"/>
  </g>
  <g>
    <path class="st11" d="M871.6,383.6s-102.8-68.8-206.5,126.2c-103.7,195-125.5,197.6-80.9,235.6,44.5,38,285.9-12.1,337.2-170,51.2-157.9-49.7-191.8-49.7-191.8Z"/>
    <path class="st4" d="M891.5,366.2s-7.5,100.5,81.8,84.7c89.3-15.8-81.8-84.7-81.8-84.7Z"/>
    <g>
      <path class="st16" d="M876.7,387.5s-13.9-56.9,6.4-81.4"/>
      <path class="st15" d="M872.4,337.9"/>
      <path class="st15" d="M872.4,337.9s7.5,26,22.6,32.4"/>
    </g>
    <path class="st20" d="M792.4,663c-30.3,28.9-69.5,50.1-111.4,54.8,0,0,0-.3,0-.3,20.2-5.4,40.1-11.7,59.1-20.3,9.4-4.4,18.6-9.5,27.3-15.3,8.7-5.7,17.1-12.1,24.9-19.1,0,0,.2.2.2.2h0Z"/>
  </g>
  <g>
    <g>
      <path class="st34" d="M1108.1,930l-135.3,77.9c-.7.4-1.4.7-2.2.9-5.9,1.1-11.5-3.3-11.7-9.4h0c-.2-4.8,3-8.9,7.6-10s1.4-.4,2-.7l150.1-87.1"/>
      <path class="st34" d="M1250,777.7l84.2-47.4c.7-.4,1.4-.7,2.2-.9,5.9-1.1,11.5,3.3,11.7,9.4h0c.2,4.8-3,8.9-7.6,10-.7.2-1.4.4-2,.7l-73.2,42"/>
      <path class="st34" d="M1106.8,877.2l-83.2,49.2c-.7.4-1.4.8-2.2.9-5.8,1.2-11.6-3-11.9-9.2h0c-.3-4.8,2.9-9,7.4-10.2s1.4-.4,2-.8l72.3-43.5"/>
      <path class="st34" d="M1317.9,781.1l131.1-74.6c.7-.4,1.4-.7,2.2-.9,5.9-1.1,11.5,3.3,11.7,9.4h0c.2,4.8-3,8.9-7.6,10s-1.4.4-2,.7l-105.8,61.2"/>
    </g>
    <g>
      <path class="st28" d="M1190.6,873.1s-72.7-52.8-92.4,109.4c0,0,149.9,10.4,110.6-92.5l-18.2-16.9Z"/>
      <path class="st28" d="M1240,873.1s72.7-52.8,92.4,109.4c0,0-149.9,10.4-110.6-92.5l18.2-16.9Z"/>
      <path class="st28" d="M1195.9,841.7s18-88.1-137.8-38.9c0,0,52.5,140.8,129.9,62.5l7.9-23.6Z"/>
      <path class="st28" d="M1255.8,869.3s50.5,74.4,124-71.5c0,0-137.5-60.7-135.4,49.5l11.4,22.1Z"/>
      <path class="st28" d="M1230.6,847.3s88-18.3-18.7-142c0,0-108.6,103.9-6,144.1l24.7-2.1Z"/>
      <path class="st50" d="M1217.4,815.7h0c.7,3.8,5.6,4.7,7.7,1.5h0c2.6-3.9,8.7-1.4,7.7,3.2h0c-.8,3.7,3.4,6.5,6.6,4.4h0c3.9-2.6,8.5,2,5.9,5.9h0c-2.1,3.2.6,7.3,4.4,6.6h0c4.6-.9,7.1,5.1,3.2,7.7h0c-3.2,2.1-2.2,7,1.5,7.7h0c4.6.9,4.6,7.5,0,8.4h0c-3.8.7-4.7,5.6-1.5,7.7h0c3.9,2.6,1.4,8.7-3.2,7.7h0c-3.7-.8-6.5,3.4-4.4,6.6h0c2.6,3.9-2,8.5-5.9,5.9h0c-3.2-2.1-7.3.6-6.6,4.4h0c.9,4.6-5.1,7.1-7.7,3.2h0c-2.1-3.2-7-2.2-7.7,1.5h0c-.9,4.6-7.5,4.6-8.4,0h0c-.7-3.8-5.6-4.7-7.7-1.5h0c-2.6,3.9-8.7,1.4-7.7-3.2h0c.8-3.7-3.4-6.5-6.6-4.4h0c-3.9,2.6-8.5-2-5.9-5.9h0c2.1-3.2-.6-7.3-4.4-6.6h0c-4.6.9-7.1-5.1-3.2-7.7h0c3.2-2.1,2.2-7-1.5-7.7h0c-4.6-.9-4.6-7.5,0-8.4h0c3.8-.7,4.7-5.6,1.5-7.7h0c-3.9-2.6-1.4-8.7,3.2-7.7h0c3.7.8,6.5-3.4,4.4-6.6h0c-2.6-3.9,2-8.5,5.9-5.9h0c3.2,2.1,7.3-.6,6.6-4.4h0c-.9-4.6,5.1-7.1,7.7-3.2h0c2.1,3.2,7,2.2,7.7-1.5h0c.9-4.6,7.5-4.6,8.4,0Z"/>
    </g>
  </g>
  <g>
    <path class="st48" d="M-188.5,964.5s165.3,213.7,305.4,71.9c3.5-3.5-.5-9.2-5-7.1-24.9,11.5-66.2,25.1-97.5,8.2s-75.9-79-89.8-102.2c-3.8-6.4-9.4-11.5-16.1-14.9l-43.6-21.7c-4.7-2.3-10.2-2.1-14.7.6l-36.8,10.1c-7.7,4.7-1.9,55-1.9,55Z"/>
    <g>
      <path class="st27" d="M-137.9,881.7c-13.5,4.4-19.6,8.7-20.6,12.8-4-2.3-11-3.5-21.9-3.2-30,.8-18.1,50.1-15.7,71.2.4,3.9,5.4,5.2,7.7,2,6.8-9.5,14.2-28,25.4-38.5,5.8,19.4,31.3,24.7,31.3,24.7,0,0,6.9-20.7,7-37.6,20.8,5.5,35.8,15,35.8,15,0,0-4.8-60.6-49-46.3Z"/>
      <path class="st44" d="M-137.9,881.9c-6.2,2.2-18.5,6-20.6,12.9-6.8-3.4-14.8-3.2-22.3-3.1-29.3,1.5-16.7,50.7-14.7,69.4,0,.4.2,1.8.4,2.2.7,1.9,3.3,2.6,4.9,1.4,1.7-1.6,2.7-3.9,4-5.9,6.8-11.6,12.4-24.2,22.2-33.8,0,0,1.4-1.3,1.4-1.3,1.8,7.2,6.5,13.2,12.6,17.4,5.5,3.8,12,6.6,18.5,8.1,0,0-1.6.9-1.6.9,3.8-12.7,6.7-25.9,6.8-39.2,13.3,3.5,26.3,8.6,38,15.9,0,0-2,1.2-2,1.2-2.6-26.6-15.6-56.6-47.6-46.3h0ZM-138,881.6c32.2-10.9,47.1,19.1,50.4,46.3,0,0,.3,2.6.3,2.6l-2.3-1.4c-11.1-6.4-23.1-11.3-35.5-14.6,0,0,1.9-1.5,1.9-1.5-.3,13-3.3,25.7-7.2,38,0,0-.4,1.2-.4,1.2s-1.2-.3-1.2-.3c-13.6-3.4-27.9-11.5-32.2-25.7,0,0,1.9.5,1.9.5-9.6,9.2-15.3,21.7-22.1,33.1-1.5,2.2-2.6,4.7-4.6,6.4-3.1,2.2-7.8,0-8.1-3.8,0,0-.1-1.2-.1-1.2-1.9-18.8-13.3-66,13.9-70.1,5-.5,10.1-.2,15.1.4,3.3.5,6.7,1.2,9.7,2.8h-.2c2.3-6.9,14.4-10.5,20.7-12.8h0Z"/>
    </g>
    <path class="st13" d="M-165.1,890.9l-20.1-26.5c-2.9-3.8-1.3-9.3,3.1-11h0c3.5-1.4,7.4.1,9.1,3.4l16.6,32.6"/>
  </g>
  <g>
    <path class="st46" d="M94.1,18.6c1.3-34.1,21.6-39.6,26.8-40.4.7-.1,1.5-.3,2.2-.4s2-.4,3.5-.5c8.9-.5,17.6-3.2,25.2-8,1.1-.7,2-1.1,2.6-1.4s1.3-.6,1.9-.9c4.4-2.4,24.7-10.9,46.7,17.2,2.6,3.3,4.6,7.1,5.9,11.1,7.6,23.1,22,124.6-22.1,139.3-40.8,13.6-80.6-77-90.2-101.4-1.8-4.6-2.7-9.6-2.5-14.6Z"/>
    <path class="st24" d="M183,116.8c6.6-19.4,5.4-44.8-13-57.3-1.1-.9-4.3-2.7-5.5-3.5-2.6-1.5-5-3.3-7.3-5.3-16.3-14.3-18.5-38.8-12.7-58.5,0-.2.3-.1.3,0-1.7,11.6-1.5,23.5,1.6,34.6,3,11,9.6,21.2,19.5,27.1,0,0,3.8,2.4,3.8,2.4,14.7,9.5,20,26.5,17.9,43.3-.7,5.9-2,11.7-4.1,17.2,0,0-.1.1-.2,0,0,0-.1-.1,0-.2h0Z"/>
  </g>
</svg>