<?xml version="1.0" encoding="UTF-8"?>
<svg id="_x37__x26_eleven" xmlns="http://www.w3.org/2000/svg" version="1.1" xmlns:xlink="http://www.w3.org/1999/xlink" viewBox="0 0 401.4 139.5">
  <!-- Generator: Adobe Illustrator 29.0.0, SVG Export Plug-In . SVG Version: 2.1.0 Build 186)  -->
  <defs>
    <style>
      .st0 {
        clip-path: url(#clippath-76);
      }

      .st1 {
        clip-path: url(#clippath-75);
      }

      .st2 {
        clip-path: url(#clippath-71);
      }

      .st3, .st4 {
        fill: #5c6670;
      }

      .st5 {
        clip-path: url(#clippath-70);
      }

      .st4 {
        fill-rule: evenodd;
      }

      .st6 {
        fill: none;
      }

      .st7 {
        clip-path: url(#clippath-74);
      }

      .st8 {
        clip-path: url(#clippath-77);
      }

      .st9 {
        clip-path: url(#clippath-72);
      }

      .st10 {
        clip-path: url(#clippath-73);
      }

      .st11 {
        clip-path: url(#clippath-68);
      }

      .st12 {
        clip-path: url(#clippath-69);
      }
    </style>
    <clipPath id="clippath-68">
      <rect class="st6" x="-796.4" y="-4907.1" width="1920" height="5687"/>
    </clipPath>
    <clipPath id="clippath-69">
      <rect class="st6" x="-796.4" y="-4907.1" width="1920" height="5687"/>
    </clipPath>
    <clipPath id="clippath-70">
      <rect class="st6" x="-796.4" y="-4907.1" width="1920" height="5687"/>
    </clipPath>
    <clipPath id="clippath-71">
      <rect class="st6" x="-796.4" y="-4907.1" width="1920" height="5687"/>
    </clipPath>
    <clipPath id="clippath-72">
      <rect class="st6" x="-796.4" y="-4907.1" width="1920" height="5687"/>
    </clipPath>
    <clipPath id="clippath-73">
      <rect class="st6" x="-796.4" y="-4907.1" width="1920" height="5687"/>
    </clipPath>
    <clipPath id="clippath-74">
      <rect class="st6" x="-796.4" y="-4907.1" width="1920" height="5687"/>
    </clipPath>
    <clipPath id="clippath-75">
      <rect class="st6" x="-796.4" y="-4907.1" width="1920" height="5687"/>
    </clipPath>
    <clipPath id="clippath-76">
      <rect class="st6" x="-796.4" y="-4907.1" width="1920" height="5687"/>
    </clipPath>
    <clipPath id="clippath-77">
      <polygon class="st6" points="-8.4 26.6 406.6 25.5 407.7 132.1 -8.4 131 -8.4 26.6"/>
    </clipPath>
  </defs>
  <g class="st11">
    <polygon class="st4" points="362.1 34.3 363.7 34.1 365.4 34.3 368.1 34.6 369.6 35 371 35.7 372.1 36.4 373 37.1 374.4 38.7 375.5 40.7 376.4 42.9 376.9 45.4 376.9 102.8 357.6 102.8 357.6 55.2 356.9 53.6 355.5 52.3 353.9 51.4 352.1 51.2 350.6 51.4 348.8 52.5 347.8 53.9 346.8 55.7 346.8 102.8 327.4 102.8 327.4 35.9 346.8 35.9 346.8 42.4 349.3 40.3 350.9 38.9 352 37.8 353.4 37.1 355 36.2 357 35.3 359.2 34.6 362.1 34.3"/>
  </g>
  <g class="st12">
    <polygon class="st4" points="159.5 35.9 159.5 87.9 173.3 87.9 173.3 102.8 139.9 102.8 139.9 35.9 159.5 35.9"/>
  </g>
  <g class="st5">
    <polygon class="st4" points="243.9 35.9 251.4 78.6 259.6 35.9 274.7 35.9 262 102.8 233 102.8 223.2 35.9 243.9 35.9"/>
  </g>
  <g class="st2">
    <polygon class="st4" points="316.7 35.9 316.7 50.7 300.6 50.7 300.6 62.9 316.7 62.9 316.7 75.7 300.6 75.7 300.6 87.9 316.7 87.9 316.7 102.8 281.1 102.8 281.1 35.9 316.7 35.9"/>
  </g>
  <g class="st9">
    <rect class="st3" x="59.1" y="63.1" width="22.7" height="12.8"/>
  </g>
  <g class="st10">
    <polygon class="st4" points="127.1 35.9 127.1 50.7 110.7 50.7 110.7 62.9 127.1 62.9 127.1 75.7 110.7 75.7 110.7 87.9 127.1 87.9 127.1 102.8 91.4 102.8 91.4 35.9 127.1 35.9"/>
  </g>
  <g class="st7">
    <polygon class="st4" points="216 35.9 216 50.7 199.6 50.7 199.6 62.9 216 62.9 216 75.7 199.6 75.7 199.6 87.9 216 87.9 216 102.8 180.2 102.8 180.2 35.9 216 35.9"/>
  </g>
  <g class="st1">
    <polygon class="st4" points="5.5 51.8 28.3 51.8 33.5 46.1 36.3 43.5 39.8 40.7 42.8 38.6 46.7 36.2 5.5 36.2 5.5 51.8"/>
  </g>
  <g class="st0">
    <path class="st4" d="M55.5,35.6c-12.7,3.2-25.1,15.5-28.9,24.5-8,18.3-6.6,42.8-6.6,42.8,0,0,13.9-.1,19.8-.1-.2-17.3,0-28.1,2.4-36.5s13.4-14,13.4-14v-16.7h-.1Z"/>
  </g>
  <g class="st8">
    <path class="st4" d="M382.5,95.4c0-3.7,2.8-6.4,6.3-6.4s6.3,2.8,6.3,6.4-2.8,6.5-6.3,6.5-6.3-2.8-6.3-6.5M388.8,103.2c4.2,0,7.8-3.3,7.8-7.8s-3.6-7.7-7.8-7.7-7.9,3.3-7.9,7.7,3.6,7.8,7.9,7.8M387.1,96h1.6l2.4,3.9h1.5l-2.5-3.9c1.3-.2,2.3-.9,2.3-2.5s-1-2.5-3.2-2.5h-3.4v8.9h1.4v-3.9h-.1ZM387.1,94.9v-2.8h1.8c.9,0,1.9.2,1.9,1.3s-1,1.5-2.2,1.5h-1.5Z"/>
  </g>
</svg>