<?xml version="1.0" encoding="UTF-8"?>
<svg id="Section_3" xmlns="http://www.w3.org/2000/svg" version="1.1" viewBox="0 0 217.9 241.2">
  <!-- Generator: Adobe Illustrator 29.0.0, SVG Export Plug-In . SVG Version: 2.1.0 Build 186)  -->
  <defs>
    <style>
      .st0 {
        fill: #df2b35;
      }

      .st1 {
        fill: #cb2127;
      }

      .st2 {
        fill: #771214;
      }

      .st3 {
        fill: #453438;
      }

      .st4 {
        fill: #a81d30;
      }

      .st5 {
        fill: #fece32;
        stroke: #453438;
        stroke-miterlimit: 10;
        stroke-width: 3px;
      }
    </style>
  </defs>
  <rect class="st1" x="80.4" y="101.7" width="69.6" height="54.8"/>
  <g>
    <path class="st0" d="M137.3,127.6c16.9,2.4,47.2-3.4,58.7-24.8,15.1-28.1-2.8-38-2.8-38,0,0-2.8-2.7-7.7-3.7-2.5-.5-4.4-2.4-5-5-1.1-5.2-4-8.1-4-8.1,0,0-10.4-17.7-38-1.7-22.4,12.9-26.5,46.4-22.5,62.3"/>
    <path class="st4" d="M137.3,127.5c4.5.6,9.1.5,13.6,0,4.5-.4,9-1.3,13.4-2.5,8.7-2.4,17.1-6.6,23.6-12.8,1.7-1.6,3.1-3.2,4.4-5,.7-.9,1.3-1.8,1.9-2.8.5-1,1.1-1.9,1.7-3,2.1-4,3.7-8.3,4.7-12.6,1-4.4,1-8.9-.3-13.1-.6-2.1-1.7-4.1-2.9-5.8-.6-.9-1.4-1.7-2.2-2.4-.8-.7-1.7-1.5-2.5-1.9h0c0,0,0-.2,0-.2-.7-.6-1.6-1.1-2.4-1.7-.9-.4-1.8-.9-2.7-1.2-.4-.2-1-.3-1.5-.4l-.7-.2c-.3,0-.6-.2-.9-.3-1.1-.3-2.3-1-3-1.9-.9-.9-1.5-2-1.8-3.1l-.2-.8c0-.3,0-.5-.2-.7-.2-.4-.3-1-.4-1.4-.3-1-.8-1.8-1.3-2.7-.5-.8-1.1-1.7-1.7-2.3h0c0,0,0-.3,0-.3-.5-.8-1.3-1.7-2.1-2.4s-1.7-1.5-2.6-2c-1.8-1.2-3.9-2.1-6-2.6-4.3-1-8.9-.6-13.2.6s-4.4,1.4-6.4,2.4c-2.1.9-4.1,2-6.2,3.1-1.9,1.1-3.8,2.4-5.6,3.9s-3.3,3-4.8,4.8c-1.5,1.7-2.8,3.6-4,5.6-1.2,1.9-2.3,4-3.2,6.1-1.9,4.2-3.3,8.6-4.4,13.1-1,4.5-1.7,9.1-1.9,13.8-.3,4.6,0,9.3.9,13.9h-.3c-1.3-4.4-1.7-9.2-1.7-13.9s.4-9.5,1.3-14.1c.4-2.4,1-4.6,1.7-6.9.7-2.3,1.5-4.5,2.4-6.7,1-2.2,2-4.4,3.2-6.4,1.2-2.1,2.6-4,4.1-5.9,1.6-1.8,3.2-3.7,5-5.2,1.8-1.6,3.8-3,5.9-4.3,4.1-2.4,8.5-4.4,13.2-5.7,4.7-1.2,9.7-1.7,14.5-.4,2.4.6,4.7,1.7,6.8,3,1,.7,2,1.5,2.9,2.4s1.7,1.7,2.4,3l-.2-.3c.9,1,1.5,1.8,2,2.8.5,1,1,2,1.4,3,.2.5.3,1,.5,1.6s.2.5.2.8l.2.8c.2.9.6,1.7,1.2,2.3.6.6,1.4,1.1,2.2,1.4.2,0,.4,0,.6.2l.8.2c.5.2,1,.3,1.6.5,1,.3,2.1.8,3,1.4,1,.5,1.9,1.1,2.8,2l-.2-.2c1.1.7,2,1.4,2.9,2.3s1.7,1.7,2.3,2.7c1.4,1.9,2.4,4.1,3,6.4,1.3,4.6,1.1,9.4,0,13.9-1,4.5-2.8,8.9-5,12.9-.5,1-1.1,2-1.7,3-.6,1-1.3,1.9-2,2.9-1.4,1.8-3,3.6-4.7,5.1-6.8,6.3-15.4,10.3-24.2,12.6-4.4,1.1-9,1.9-13.5,2.3s-9.1.3-13.7-.3l.2-.3Z"/>
  </g>
  <g>
    <path class="st0" d="M122.9,154.5c1.2,17,13.2,45.4,36.6,52.2,30.6,8.9,36.6-10.7,36.6-10.7,0,0,2-3.2,2-8.4s1.5-4.9,3.7-5.9c4.9-2.2,7-5.7,7-5.7,0,0,15.1-13.8-6.4-37.6-17.3-19.1-50.6-18.1-65.4-10.9"/>
    <path class="st4" d="M123.1,154.5c.3,4.5,1.4,9,2.8,13.3,1.4,4.4,3.1,8.5,5.2,12.5,4.3,8,10,15.3,17.5,20.4,1.8,1.3,3.8,2.4,5.8,3.3,1,.5,2.1.9,3.1,1.3,1,.3,2.1.7,3.2,1,4.4,1.1,8.8,1.9,13.3,1.9s9-.9,12.8-3c1.9-1,3.7-2.4,5-4.1.7-.8,1.4-1.7,1.9-2.6.5-.9,1-1.9,1.4-2.9h0c0,0,0-.2,0-.2.4-.8.8-1.7,1.1-2.7.3-1,.4-1.9.6-3,0-.5,0-1,0-1.5v-.8c0-.3,0-.6,0-.9,0-1.2.5-2.4,1.2-3.4.7-1,1.7-1.8,2.7-2.4l.7-.3c.3,0,.4-.2.7-.3.4-.3.9-.5,1.3-.8.9-.5,1.7-1.1,2.3-1.8.7-.7,1.4-1.5,1.9-2.2h0c0,0,0-.2,0-.2.7-.7,1.4-1.7,1.9-2.5.6-1,1-1.9,1.5-3,.8-2.1,1.2-4.3,1.3-6.4,0-4.4-1.2-8.8-3.3-12.8-1-2-2.3-3.9-3.6-5.7s-2.8-3.7-4.3-5.3c-1.6-1.7-3.2-3.2-5-4.6-1.8-1.4-3.7-2.7-5.7-3.8s-4.1-2.1-6.2-3c-2.2-.8-4.4-1.6-6.5-2.2-4.4-1.1-9.1-1.8-13.7-2.1-2.3,0-4.6-.2-7,0s-4.6.3-7,.6c-4.6.6-9.1,1.7-13.5,3.5v-.3c4.1-2.2,8.7-3.5,13.3-4.4s9.4-1.2,14.1-1.1c2.3,0,4.7.2,7,.5,2.3.3,4.7.7,7,1.3,2.3.5,4.6,1.2,6.9,2.1s4.4,1.8,6.5,3c2.1,1.1,4.2,2.4,6.1,3.9,1.9,1.5,3.7,3.1,5.3,4.9,3.1,3.6,6.1,7.4,8.3,11.7s3.7,9.1,3.5,14.1c0,2.4-.6,5-1.6,7.2-.4,1.1-1,2.3-1.7,3.3-.7,1-1.4,2-2.3,3l.2-.3c-.7,1-1.5,1.8-2.3,2.6-.9.8-1.7,1.4-2.7,2-.4.3-1,.6-1.5.8-.3.2-.5.3-.8.3l-.7.3c-.8.3-1.5,1-2,1.7-.5.7-.9,1.6-1,2.4,0,.3,0,.4,0,.7v.9c0,.5,0,1.1-.2,1.7-.2,1.1-.3,2.2-.7,3.2s-.7,2.1-1.3,3.1v-.3c-.3,1.2-.9,2.3-1.6,3.3-.6,1-1.4,2-2.2,2.9-1.6,1.7-3.6,3.2-5.6,4.4-4.2,2.3-9,3-13.6,3-4.7,0-9.2-.9-13.7-2.2-1.1-.3-2.2-.7-3.3-1-1-.4-2.2-.9-3.2-1.4-2.1-1-4.1-2.2-6-3.5-7.6-5.4-13.3-12.9-17.4-21.1-2.1-4.1-3.7-8.4-5-12.7-1.3-4.4-2.3-8.9-2.5-13.5h.3Z"/>
  </g>
  <g>
    <path class="st0" d="M111.9,107.9c6.4-16.6,7.6-48.7-11.5-65.5-25-22-39.3-6.1-39.3-6.1,0,0-3.4,2.2-5.6,7-1.1,2.4-3.6,4-6.2,3.9-5.6,0-9.2,2.2-9.2,2.2,0,0-20.4,6.4-10.7,38.3,7.8,25.8,40.9,37.9,58.1,37.6"/>
    <path class="st4" d="M111.8,107.8c1.7-4.4,2.7-9.1,3.3-13.8.6-4.7.8-9.5.6-14.2-.4-9.4-2.7-18.9-7.5-27-1.2-2-2.5-3.9-4.1-5.7-.7-.9-1.6-1.7-2.3-2.6-.9-.8-1.7-1.6-2.6-2.4-3.6-3-7.5-5.7-11.7-7.7-4.2-1.9-8.8-3.1-13.4-2.9-2.3.2-4.5.7-6.6,1.6-1,.4-2.1,1-3,1.7-1,.6-1.8,1.4-2.5,2.1h0c0,0,0,.2,0,.2-.8.5-1.6,1.3-2.3,2.1-.7.8-1.3,1.7-1.8,2.5-.3.4-.5.9-.8,1.4l-.3.7c-.2.3-.3.5-.4.9-.7,1-1.6,2-2.7,2.6-1.1.7-2.3,1-3.7,1h-1.7c-.5,0-1,0-1.6.2-1,.2-2,.3-3,.7-1,.3-2,.8-2.7,1.2h0c0,0-.2.2-.2.2-1,.3-2,1-3,1.6-1,.6-1.8,1.4-2.7,2.2-1.7,1.6-3,3.5-4.1,5.6-2.1,4.2-2.8,8.9-2.5,13.6,0,2.4.4,4.7.9,7s1,4.7,1.7,7c.7,2.3,1.6,4.4,2.7,6.5,1.1,2.1,2.3,4.1,3.7,6,1.5,1.9,3,3.7,4.7,5.4,1.7,1.7,3.5,3.2,5.4,4.7,3.8,2.9,7.9,5.4,12.3,7.6,4.4,2.1,8.9,3.8,13.6,5.1s9.5,2.2,14.4,2.4v.3c-4.9.3-9.8-.4-14.6-1.6s-9.5-2.7-14-4.7c-2.3-1-4.4-2.1-6.6-3.3s-4.2-2.6-6.3-4.1c-2-1.5-3.9-3-5.7-4.8s-3.5-3.6-5-5.6c-1.6-2-3-4.1-4.1-6.3-1.1-2.3-2.2-4.6-2.9-7-1.5-4.8-2.5-9.7-2.7-14.7-.2-5,.6-10.3,3-14.9,1.2-2.3,2.8-4.4,4.6-6.2,1-.9,2-1.7,3-2.4,1.1-.7,2.2-1.3,3.6-1.7h-.3c1.1-.6,2.2-1,3.3-1.3s2.3-.6,3.4-.7c.6,0,1.1,0,1.7-.2h1.7c1,0,1.8-.3,2.6-.8.8-.4,1.5-1.1,2-1.9,0-.2.3-.4.3-.6l.3-.8c.3-.5.5-1,.9-1.5.6-1,1.3-1.9,2.1-2.8s1.6-1.7,2.6-2.4l-.2.2c1-1,1.9-1.7,3-2.4,1-.7,2.2-1.2,3.3-1.7,2.3-1,4.8-1.5,7.2-1.7,5-.3,9.8,1,14.2,3.1s8.4,5,11.9,8.1c1,.8,1.8,1.7,2.7,2.4.9.9,1.7,1.7,2.4,2.7,1.6,1.8,3,3.8,4.1,5.9,4.8,8.4,6.8,18,7.1,27.6.2,4.8,0,9.6-.9,14.3-.7,4.7-1.8,9.4-3.6,13.8h0Z"/>
  </g>
  <g>
    <path class="st0" d="M90.6,117.2c-13.4-11.7-43.1-24.1-65.4-12-29.3,15.8-19.3,34.7-19.3,34.7,0,0,.9,3.9,4.6,7.7,1.9,1.9,2.5,4.7,1.6,7.1-2.1,5.2-1.1,9.4-1.1,9.4,0,0-1,21.3,32.2,23.3,26.9,1.6,47.8-20.6,53.4-36.7"/>
    <path class="st4" d="M90.6,117.3c-3.6-3.1-7.7-5.7-11.8-7.9-4.2-2.3-8.6-4.1-13.1-5.5-9-2.9-18.6-4.1-27.9-2.4-2.3.4-4.6,1-6.8,1.8-1.1.3-2.2.9-3.2,1.3-1,.5-2.1,1-3.1,1.7-4.1,2.4-8,5-11.3,8.3-3.3,3.3-6,7.1-7.3,11.6-.6,2.2-1,4.4-.8,6.8,0,1.1.2,2.3.4,3.4.3,1,.6,2.2,1,3.1h0v.3c.3.9.7,1.9,1.1,2.8.5,1,1,1.8,1.7,2.6.3.4.7.8,1,1.2l.5.5c.3.3.4.4.6.7.8,1,1.3,2.2,1.6,3.4s.2,2.5-.3,3.7l-.3.8c0,.3-.2.5-.3.7-.2.5-.3,1-.4,1.5-.3,1-.3,2-.4,3,0,1,0,2.1.2,3v.3c0,1,.2,2.2.3,3.2.3,1,.6,2.2,1,3.1.9,2,2.1,3.9,3.6,5.6,3,3.3,7,5.7,11.2,7.1,2.2.8,4.4,1.3,6.6,1.7s4.5.8,6.9,1c4.6.4,9.1.2,13.7-.7,4.5-1,8.9-2.5,13-4.6,2.1-1,4-2.3,5.9-3.6,1.9-1.3,3.7-2.7,5.6-4.2,3.6-3,6.7-6.4,9.6-10.1,2.9-3.7,5.2-7.7,7-12.1h.3c-1.4,4.6-3.7,8.8-6.4,12.8-2.7,3.9-5.8,7.5-9.3,10.8-7,6.5-15.6,11.4-25.1,13.5-2.3.5-4.8,1-7.1,1-2.4.2-4.9.2-7.2,0-2.3-.2-4.8-.5-7.1-1s-4.7-1.1-7-1.9c-4.5-1.7-9-4.3-12.2-8-1.7-1.9-3-4-3.9-6.4-.4-1.1-.8-2.4-1-3.6,0-.6-.3-1.2-.3-1.8,0-.6,0-1.2,0-1.9v.3c-.3-1.3-.3-2.4-.2-3.6,0-1.1.3-2.4.5-3.5.2-.5.3-1.1.4-1.7,0-.3.2-.5.3-.8l.3-.8c.3-.9.3-1.8.3-2.7-.2-1-.5-1.8-1.1-2.5-.2-.2-.3-.3-.4-.5l-.6-.6c-.3-.4-.8-.9-1.1-1.3-.7-1-1.3-1.9-1.8-3-.5-1-1-2.1-1.3-3.3v.3c-.5-1.2-.9-2.4-1.1-3.7-.3-1.2-.4-2.4-.4-3.7,0-2.5.3-5,1-7.3,1.5-4.7,4.4-8.9,7.9-12.2,3.5-3.4,7.5-6.1,11.7-8.4,1-.6,2.2-1.1,3.2-1.7,1.1-.4,2.3-1,3.4-1.3,2.3-.8,4.6-1.4,7-1.7,9.6-1.6,19.3,0,28.4,2.9,4.5,1.6,8.9,3.5,13.1,5.7,4.2,2.3,8.2,5,11.7,8.1l-.3.2Z"/>
  </g>
  <g>
    <path class="st0" d="M94.6,145.8c-16.4,4.7-41.8,22.3-43.6,46.6-2.4,31.9,18,33.6,18,33.6,0,0,3.6,1.3,8.6.3,2.5-.5,5,.4,6.6,2.5,3.1,4.4,7,5.7,7,5.7,0,0,16.7,11.9,35.5-13.9,15.2-20.9,6.4-53.1-3.7-66.1"/>
    <path class="st4" d="M94.6,145.9c-4.4,1.3-8.5,3.2-12.4,5.5-4,2.3-7.7,4.8-11.2,7.7-7,5.8-13,13-16.4,21.3-.9,2.1-1.6,4.3-2,6.4-.3,1.1-.4,2.2-.6,3.3,0,1.1-.3,2.2-.3,3.4-.3,4.5,0,9.1.9,13.4,1,4.4,2.7,8.5,5.6,11.9,1.5,1.7,3.1,3,5,4.2,1,.5,1.9,1,3,1.4,1,.3,2.1.6,3,.8h.2c.9.3,1.9.4,2.9.5,1,0,2,0,3,0,.5,0,1,0,1.5-.2l.7-.2c.3,0,.6,0,.9-.2,1.2,0,2.4,0,3.6.5,1.1.4,2.2,1.2,3,2.2l.5.6c.2.2.3.4.4.6.3.3.7.8,1,1.1.7.7,1.5,1.3,2.3,1.9.8.5,1.7,1,2.5,1.4h0c0,0,.2.2.2.2.8.5,1.8,1,2.9,1.4,1,.3,2.1.6,3.2.8,2.2.3,4.4.3,6.5,0,4.4-.8,8.4-3,11.8-5.9.9-.7,1.7-1.5,2.5-2.3s1.7-1.6,2.3-2.4c1.6-1.7,3-3.5,4.4-5.3,1.3-1.8,2.5-3.7,3.5-5.8,1-2,1.8-4.2,2.5-6.4.6-2.2,1.2-4.4,1.6-6.7s.6-4.5.6-6.9c.2-4.6-.2-9.2-1-13.8-.3-2.3-.9-4.5-1.5-6.8-.6-2.3-1.3-4.4-2.1-6.6-1.6-4.4-3.7-8.6-6.4-12.4l.2-.2c3,3.7,5.3,7.8,7.1,12.1,1.8,4.4,3.2,8.9,4.2,13.5.5,2.4.9,4.7,1.1,7,.3,2.4.3,4.7.3,7.1s-.2,4.8-.5,7.1-.8,4.7-1.5,7c-.7,2.4-1.5,4.6-2.5,6.8-1,2.2-2.3,4.3-3.7,6.3-2.8,3.8-5.9,7.5-9.7,10.5-3.7,3-8.2,5.4-13.1,6.3-2.4.4-5,.4-7.4,0-1.2-.3-2.4-.5-3.6-1-1.2-.4-2.3-1-3.4-1.7l.3.2c-1.1-.5-2.1-1-3-1.7s-1.7-1.4-2.5-2.2c-.3-.4-.8-.8-1.1-1.2-.2-.2-.3-.4-.5-.7l-.4-.6c-.5-.7-1.2-1.2-2.1-1.6-.8-.3-1.7-.5-2.6-.4-.3,0-.4,0-.7,0l-.8.2c-.5,0-1.1.2-1.7.2-1.1,0-2.3,0-3.3,0-1.1,0-2.2-.3-3.3-.7h.3c-1.3,0-2.4-.4-3.6-.8-1.1-.4-2.2-1-3.2-1.6-2.1-1.2-3.9-2.8-5.4-4.6-3-3.7-4.9-8.2-5.7-12.7-.9-4.6-1-9.2-.7-13.8,0-1.1.2-2.3.3-3.5.2-1.1.3-2.3.7-3.4.5-2.3,1.3-4.4,2.2-6.6,3.7-8.5,9.9-15.7,17-21.4,3.6-2.9,7.4-5.4,11.4-7.6,4-2.2,8.3-4,12.6-5.2h0Z"/>
  </g>
  <g>
    <path class="st2" d="M112.8,124.1c9.3-103.2,19.1-102.5,19.1-102.5,0,0,9.3-5.1-5-6.3-14.3-1-18.2,113.8-18.2,113.8,0,0,.4,2.6,2.3,2.4s1.8-7.5,1.8-7.5Z"/>
    <path class="st3" d="M112.7,124.1l2.5-26.2c.4-4.4.9-8.7,1.4-13.1.5-4.4,1-8.7,1.6-13.1l.9-6.5c.3-2.2.7-4.4,1-6.5.6-4.4,1.5-8.7,2.3-13l1.4-6.4c.5-2.2,1-4.3,1.7-6.4l1-3.2,1.1-3.1c.3-.5.4-1,.7-1.6l.3-.8c0-.3.3-.5.4-.8.3-.5.6-1,1-1.5.2-.3.3-.5.7-.7.2,0,.3-.3.4-.3,0,0,.3,0,.3-.2,0,0,0,0,.2,0h.3-.5c.5-.2,1-.6,1.5-1,.4-.3.9-.9,1-1.2,0-.2,0-.3,0-.3s-.2-.3-.3-.3c-.4-.3-1-.5-1.6-.7-1.2-.3-2.5-.5-3.8-.7h-1c0,0-.3,0-.3,0h-.5c-.4,0-.9.3-1.3.8-.8.8-1.5,1.9-2.1,3-.5,1.2-1,2.4-1.5,3.7-.9,2.5-1.6,5.1-2.2,7.7-1.2,5.3-2.1,10.6-2.8,16-.8,5.4-1.4,10.8-2,16.2-.6,5.4-1.1,10.9-1.7,16.3l-1.5,16.3c-1,10.9-1.9,21.8-2.5,32.6h0c.2.8.6,1.8,1.4,2.1.2,0,.4,0,.6,0s.3,0,.5-.3c.3-.3.4-.8.6-1.2.3-1,.4-1.9.5-2.9,0-.6.2-1.6.2-2.6ZM112.9,124.1c0,1,0,2,0,3s-.2,2-.4,3c-.2.5-.3,1-.7,1.4-.2.2-.4.3-.8.4-.3,0-.5,0-.8,0-.5-.2-1-.6-1.2-1s-.4-1-.5-1.5h0c.2-11,.5-21.8,1-32.8.4-11,1.4-21.8,2.5-32.7,1.2-10.9,2.7-21.8,5.3-32.5.7-2.7,1.4-5.3,2.3-8,.4-1.3,1-2.6,1.7-3.9.6-1.3,1.4-2.5,2.5-3.7.6-.5,1.3-1,2.3-1.2.4,0,1,0,1.3,0h1c1.4.3,2.8.4,4.2.9.7.2,1.4.5,2.2,1,.3.3.7.6,1,1.1.3.5.3,1.2,0,1.7-.3,1-1,1.6-1.5,2-.6.5-1.1.9-1.8,1.3h-.5q0,0,.2,0h0l-.2.2c-.2,0-.3.3-.4.4-.3.3-.6.8-.9,1.2,0,.3-.3.4-.3.7l-.3.7c-.3.5-.4,1-.7,1.5l-1.1,3-1,3.1c-.6,2.1-1.1,4.2-1.7,6.3l-1.5,6.4c-.9,4.3-1.7,8.5-2.4,12.9l-1.1,6.4-1,6.5c-.7,4.4-1.2,8.7-1.9,13.1-.6,4.4-1.1,8.7-1.7,13.1-1.2,8.8-1.9,17.5-2.8,26.2Z"/>
  </g>
  <circle class="st5" cx="112.4" cy="14.5" r="3.7"/>
  <circle class="st5" cx="138.5" cy="28.8" r="3.7"/>
  <circle class="st5" cx="142.3" cy="10.7" r="3.7"/>
  <circle class="st5" cx="104.9" cy="27" r="3.7"/>
</svg>