<?xml version="1.0" encoding="UTF-8"?>
<svg id="Section_3" xmlns="http://www.w3.org/2000/svg" version="1.1" xmlns:xlink="http://www.w3.org/1999/xlink" viewBox="0 0 175 168">
  <!-- Generator: Adobe Illustrator 29.0.0, SVG Export Plug-In . SVG Version: 2.1.0 Build 186)  -->
  <defs>
    <style>
      .st0 {
        fill: none;
      }

      .st1 {
        clip-path: url(#clippath-3);
      }

      .st2 {
        fill: #f9f4e9;
        fill-rule: evenodd;
      }

      .st3 {
        clip-path: url(#clippath-2);
      }

      .st4 {
        fill: #00a99d;
      }
    </style>
    <clipPath id="clippath-2">
      <rect class="st0" x="-1035.8" y="-4502.2" width="1920" height="5687"/>
    </clipPath>
    <clipPath id="clippath-3">
      <rect class="st0" x="-1035.8" y="-4502.2" width="1920" height="5687"/>
    </clipPath>
  </defs>
  <g class="st3">
    <path class="st4" d="M100.4,160.6c-5.2-2-10.3.3-11.7,1.1-11.2,5.9-24.7,6-37,.4-13.7-6.2-23.7-18.4-27.5-33.5-1.8-7.3-6.5-13.3-12.5-17.9-6-4.7-9.7-11.1-10.3-18.4-.8-9.9,0-18.7,5.6-26.1,6.4-8.3,18.8-21.4,25.5-29.4"/>
  </g>
  <g class="st1">
    <path class="st4" d="M174.9,81.6c0,43.8-35.5,79.4-79.4,79.4S16.1,125.5,16.1,81.6,51.6,2.2,95.5,2.2s79.4,35.6,79.4,79.4"/>
  </g>
  <path class="st2" d="M119.8,45.8h-50.3c-6.3,0-11.4,5.1-11.4,11.4v50.3c0,6.3,5.1,11.4,11.4,11.4h50.3c6.3,0,11.4-5.1,11.4-11.4v-50.3c0-6.3-5.1-11.4-11.4-11.4M110.3,55.9c0-1.1.9-2,2-2h8.8c1.1,0,2,.9,2,2v8.8c0,1.1-.9,2-2,2h-8.8c-1.1,0-2-.9-2-2v-8.8ZM81.2,77.1c2.1-5.4,7.4-9.2,13.5-9.2s11.4,3.8,13.5,9.2c.6,1.6,1,3.4,1,5.3,0,8-6.5,14.5-14.5,14.5s-14.5-6.5-14.5-14.5.3-3.7,1-5.3M123.5,107.5c0,2-1.7,3.7-3.7,3.7h-50.3c-2,0-3.7-1.7-3.7-3.7v-30.4h7.2c-.4,1.7-.6,3.5-.6,5.3,0,12.3,9.9,22.2,22.2,22.2s22.2-10,22.2-22.2-.2-3.6-.6-5.3h7.2v30.4h.1Z"/>
</svg>