<?xml version="1.0" encoding="UTF-8"?>
<svg id="Layer_5" xmlns="http://www.w3.org/2000/svg" version="1.1" viewBox="0 0 300 300">
  <!-- Generator: Adobe Illustrator 29.0.0, SVG Export Plug-In . SVG Version: 2.1.0 Build 186)  -->
  <defs>
    <style>
      .st0 {
        fill: #f9f4e9;
      }

      .st1 {
        fill: #ef564a;
      }
    </style>
  </defs>
  <circle class="st1" cx="150" cy="150" r="146"/>
  <path class="st0" d="M215,132.6c0-1.9-1.6-3.6-3.6-3.6h-39.2l41.6-38.6c1.4-1.4,1.4-3.6.3-4.9-1.4-1.4-3.6-1.4-4.9-.3l-47.1,44.1h-77.2c-1.9,0-3.6,1.6-3.6,3.6v17.3c0,20.3,7.9,37.8,22.2,49.6v6c0,5.2,4.4,9.6,9.6,9.6h69.3c5.2,0,9.6-4.4,9.6-9.6v-5.8c16.2-13.1,24.1-32.9,22.7-53.1v-14.2h.3ZM88.2,136.2h120v6.8h-120v-6.8ZM185.1,205.2c0,1.6-1.1,2.7-2.7,2.7h-69.3c-1.4,0-2.7-1.1-2.7-2.7v-4.1h74.8v4.1h0ZM187.6,194.3h-65.7c-7.7-6.3-13.7-14.5-17-24.9-.5-1.9-2.5-2.7-4.4-2.2s-2.7,2.5-2.2,4.4c2.7,8.8,7.4,16.4,13.4,23h-3.8c-12.9-10.4-20-26-20-44.6h120c.2,18-7.1,33.6-20.3,44.3Z"/>
  <path class="st0" d="M129.5,136.5l46.3-.3c1.9,0,3.6-1.7,3.5-3.6,0-1.9-1.7-3.6-3.6-3.5l-46.3.3c-.8,0-1.6-.8-1.7-1.6,0-.8.8-1.6,1.6-1.7l27.4-.2c4.7,0,8.5-3.9,8.4-8.5,0-4.7-3.9-8.5-8.5-8.4h-12.3c-1.6.1-3.3-1.2-3.3-3.2v-3.6c0-1.9-1.7-3.6-3.6-3.5s-3.6,1.7-3.5,3.6v3.6c0,5.5,4.4,10.1,10.2,10.1h12.6c.8-.1,1.6.7,1.7,1.5,0,.8-.8,1.6-1.6,1.7l-27.4.2c-4.7,0-8.5,3.9-8.4,8.5,0,4.6,3.9,8.7,8.5,8.6Z"/>
</svg>