<?xml version="1.0" encoding="UTF-8"?>
<svg id="Section_3" xmlns="http://www.w3.org/2000/svg" version="1.1" viewBox="0 0 300 300">
  <!-- Generator: Adobe Illustrator 29.0.0, SVG Export Plug-In . SVG Version: 2.1.0 Build 186)  -->
  <defs>
    <style>
      .st0 {
        fill: #f9f4e9;
      }

      .st1 {
        fill: #ef564a;
      }
    </style>
  </defs>
  <circle class="st1" cx="150" cy="150" r="146"/>
  <g>
    <path class="st0" d="M147.9,240.3c-10.7,0-21.3-2-31.4-6.1-1-.4-1.9-.8-2.9-1.2-1.5-.7-2.2-2.5-1.5-4,.7-1.5,2.4-2.2,4-1.5.9.4,1.8.8,2.7,1.1,16.8,6.7,34.8,7.5,52.1,2.3,20.2-6.1,36.9-19.7,46.9-38.3s12.2-40,6.1-60.3c-1-3.3-2.2-6.5-3.6-9.6-.7-1.5,0-3.3,1.5-4,1.5-.7,3.3,0,4,1.5,1.5,3.4,2.8,6.8,3.9,10.4,6.6,21.8,4.2,44.8-6.5,64.8-10.8,20-28.7,34.7-50.5,41.2-8.3,2.5-16.6,3.7-24.8,3.7Z"/>
    <path class="st0" d="M82.7,208c-.9,0-1.8-.4-2.4-1.2-6.2-8.1-10.9-17.3-13.9-27.2-6.6-21.8-4.2-44.8,6.5-64.8,10.8-20,28.7-34.7,50.5-41.2,13.4-4,27.6-4.7,41.2-2,1.6.3,2.7,1.9,2.4,3.5s-1.9,2.7-3.5,2.4c-12.6-2.5-25.9-1.9-38.3,1.8-20.2,6.1-36.9,19.7-46.9,38.3s-12.2,40-6.1,60.3c2.8,9.2,7.1,17.7,12.9,25.3,1,1.3.8,3.2-.6,4.2-.5.4-1.1.6-1.8.6Z"/>
    <path class="st0" d="M148,213.7c-13,0-25.8-4.3-36.2-12.5-1.3-1-1.5-2.9-.5-4.2,1-1.3,2.9-1.5,4.2-.5,13.5,10.5,31.3,13.9,47.6,9,13.4-4,24.5-13.1,31.2-25.5,6.6-12.4,8.1-26.6,4-40-1.4-4.8-3.5-9.3-6.2-13.5-.9-1.4-.5-3.2.9-4.1,1.4-.9,3.2-.5,4.1.9,3,4.6,5.3,9.7,6.9,15,4.5,15,2.9,30.8-4.5,44.6-7.4,13.8-19.7,23.9-34.7,28.4-5.5,1.5-11.1,2.4-16.8,2.4Z"/>
    <path class="st0" d="M96.3,178.4c-1.2,0-2.3-.7-2.8-1.9-.6-1.5-1.1-3-1.5-4.5-4.5-15-2.9-30.8,4.5-44.6,7.4-13.8,19.7-23.8,34.7-28.4,14.1-4.2,29.1-3.1,42.3,3.3,1.5.7,2.1,2.5,1.4,4-.7,1.5-2.5,2.1-4,1.4-11.9-5.7-25.3-6.8-37.9-3-13.4,4-24.5,13.1-31.2,25.5-6.6,12.4-8.1,26.6-4,40,.4,1.3.9,2.7,1.4,4,.6,1.5-.2,3.3-1.7,3.9-.5.2-.9.3-1.2.3Z"/>
    <path class="st0" d="M160.9,178.7c-1.5,0-2.9-.5-4.2-1.4l-8-5.8c-.3-.2-.6-.2-.9,0l-7.9,5.8c-2.6,1.9-5.9,1.9-8.4,0-2.6-1.9-3.6-5-2.6-8l3-9.3c0-.3,0-.6-.3-.8l-8-5.8c-2.6-1.9-3.6-5-2.6-8s3.6-4.9,6.8-4.9h9.8c.3,0,.6-.2.7-.5l3-9.3c1-3,3.6-4.9,6.8-4.9s5.8,1.9,6.8,4.9l3,9.3c0,.3.4.5.7.5h9.8c3.2,0,5.8,1.9,6.8,4.9s0,6.1-2.6,8l-8,5.8c-.3.2-.4.5-.3.8l3,9.3c1,3,0,6.1-2.6,8-.9.9-2.3,1.4-3.8,1.4ZM127.9,146.8c0,0-.5,0-.7.5s.2.7.3.8l8,5.8c2.5,1.8,3.6,5,2.6,8l-3,9.3c0,.1-.2.5.3.8.4.3.8.1.9,0l8-5.8c2.5-1.8,5.9-1.8,8.4,0l8,5.8c0,.1.4.3.9,0,.4-.3.3-.7.3-.8l-3-9.3c-1-3,0-6.2,2.6-8l7.9-5.8c0-.1.4-.3.3-.8-.2-.5-.6-.5-.7-.5h-9.8c-3.1,0-5.8-2-6.8-4.9l-3-9.3c0-.1-.2-.5-.7-.5s-.7.4-.7.5l-3,9.3c-1,3-3.7,4.9-6.8,4.9h-10.3Z"/>
  </g>
</svg>