<?xml version="1.0" encoding="UTF-8"?>
<svg id="Section_3" xmlns="http://www.w3.org/2000/svg" version="1.1" viewBox="0 0 300 300">
  <!-- Generator: Adobe Illustrator 29.0.0, SVG Export Plug-In . SVG Version: 2.1.0 Build 186)  -->
  <defs>
    <style>
      .st0 {
        fill: #f9f4e9;
      }

      .st1 {
        fill: #ef564a;
      }
    </style>
  </defs>
  <circle class="st1" cx="150" cy="150" r="146"/>
  <g>
    <g>
      <path class="st0" d="M88,199.2h0c-2,0-3.5-1.6-3.5-3.5l.5-80.3c0-1.9,1.6-3.5,3.5-3.5h0c1.9,0,3.5,1.6,3.5,3.5l-.5,80.3c0,2-1.6,3.5-3.5,3.5Z"/>
      <path class="st0" d="M211.4,200.1h0c-2,0-3.5-1.6-3.5-3.5l.5-80.3c0-1.9,1.6-3.5,3.5-3.5h0c1.9,0,3.5,1.6,3.5,3.5l-.5,80.3c0,1.9-1.5,3.5-3.5,3.5Z"/>
      <path class="st0" d="M215.1,119.8h0l-129.7-.9c-3.6,0-6.6-3-6.5-6.6v-7c0-2.9,1.9-5.4,4.7-6.3l63.9-19.9c1.9-.6,4-.6,5.9,0l63.8,20.7c2.7.9,4.5,3.5,4.5,6.3v7c0,3.8-3,6.7-6.6,6.7ZM215.1,112.8h0ZM85.9,112l128.8.9v-6.3l-63.5-20.6c-.5-.2-1.1-.2-1.6,0l-63.7,19.8v6.2ZM85.7,105.8h0Z"/>
    </g>
    <g>
      <path class="st0" d="M150.1,234.9c-.5,0-1-.1-1.4-.3l-38.7-17.6c-1.3-.6-2.1-1.8-2.1-3.2v-35.2c0-1.2.6-2.3,1.6-2.9,1-.6,2.3-.7,3.3-.2l37.3,16.9,37.3-16.9c1.1-.5,2.3-.4,3.3.2,1,.6,1.6,1.8,1.6,2.9v35.2c0,1.4-.8,2.6-2.1,3.2l-38.7,17.6c-.4.2-.9.3-1.4.3ZM114.9,211.5l35.2,16,35.2-16v-27.5l-33.8,15.4c-.9.4-2,.4-2.9,0l-33.8-15.4v27.5h.1Z"/>
      <g>
        <path class="st0" d="M111.4,182.1c-1.3,0-2.6-.8-3.2-2.1-.8-1.8,0-3.8,1.7-4.6l38.7-17.6c1.8-.8,3.8,0,4.6,1.7.8,1.7,0,3.8-1.7,4.6l-38.7,17.6c-.5.3-1,.4-1.4.4Z"/>
        <path class="st0" d="M188.8,182.1c-.5,0-1-.1-1.4-.3l-38.7-17.6c-1.8-.8-2.5-2.9-1.7-4.6.8-1.8,2.9-2.5,4.6-1.7l38.7,17.6c1.8.8,2.5,2.9,1.7,4.6-.6,1.2-1.8,2-3.2,2Z"/>
      </g>
      <path class="st0" d="M150.1,234.9c-1.9,0-3.5-1.6-3.5-3.5v-35.2c0-1.9,1.6-3.5,3.5-3.5s3.5,1.6,3.5,3.5v35.2c0,1.9-1.6,3.5-3.5,3.5Z"/>
    </g>
  </g>
</svg>