<?xml version="1.0" encoding="UTF-8"?>
<svg id="Capa_1" xmlns="http://www.w3.org/2000/svg" version="1.1" viewBox="0 0 107 100">
  <!-- Generator: Adobe Illustrator 29.0.0, SVG Export Plug-In . SVG Version: 2.1.0 Build 186)  -->
  <defs>
    <style>
      .st0 {
        fill: #fff;
      }

      .st1 {
        fill: #5d6872;
      }
    </style>
  </defs>
  <path class="st1" d="M92.2,31.4h-15V9.9c0-4.4-3.6-7.9-7.9-7.9h-31.5c-4.4,0-7.9,3.6-7.9,7.9v14.3h-15c-4.4,0-7.9,3.6-7.9,7.9v31.5c0,4.4,3.6,7.9,7.9,7.9h31.5c1.6,0,3.1-.5,4.3-1.3v.4c0,4.4,3.6,7.9,7.9,7.9h33.5c4.4,0,7.9-3.6,7.9-7.9v-31.5c0-4.4-3.6-7.9-7.9-7.9Z"/>
  <rect class="st1" x="15.1" y="32.3" width="31.8" height="35.4"/>
  <polygon class="st0" points="17.4 34.8 27.8 64.6 35.2 64.8 44.3 35.2 37.6 35 32.3 52.1 30.7 52.1 24.7 35 17.4 34.8"/>
  <rect class="st1" x="46.9" y="32.3" width="12" height="34.7"/>
  <rect class="st0" x="50.7" y="35" width="5.5" height="30"/>
  <ellipse class="st1" cx="53.7" cy="26" rx="5.6" ry="5.7"/>
  <ellipse class="st0" cx="53.6" cy="25.9" rx="3.4" ry="3.5"/>
  <rect class="st1" x="62" y="34.6" width="5.5" height="36.9"/>
  <rect class="st0" x="64.5" y="37.9" width="5.5" height="20.2"/>
  <path class="st0" d="M77.3,33.8c-3.7,0-7,1.8-9.3,4.7v-3.9h-5.5v36.9h5.5v-13.5c2.3,2.9,5.6,4.7,9.3,4.7,7,0,12.6-6.5,12.6-14.4s-5.6-14.4-12.6-14.4Z"/>
  <ellipse class="st1" cx="75.9" cy="48.2" rx="7.6" ry="9.2"/>
  <circle class="st1" cx="94.5" cy="18" r="4"/>
  <circle class="st1" cx="84" cy="22.6" r="5.3"/>
  <circle class="st1" cx="85.1" cy="12.1" r="2.9"/>
  <g>
    <path class="st1" d="M29.6,86.8c-2.2,0-2.9.8-3.4,1.6,0,0,0,0,0,0-.6-1.1-1.4-1.6-3.2-1.6s-2.7.4-3.5,1.5v-1.2h-2.9v11.5h3v-5.6c0-2.9.2-3.7,2-3.7s1.7.7,1.7,2.6v6.7h3v-5.5c0-2.6.1-3.8,2.1-3.8s1.7.6,1.7,2.5v6.8h3v-7.8c0-2.4-.7-4-3.7-4Z"/>
    <path class="st1" d="M40.7,86.8c-3.1,0-4.8.8-5,3.8h2.9c.2-1,.5-1.3,2-1.3s2,.3,2,1.4v.7l-3.8.6c-1.7.3-3.3,1.2-3.3,3.8s1,3.2,3.7,3.2,2.9-.5,3.5-1.2v.9h2.9v-8.4c0-2.5-1.7-3.4-4.9-3.4ZM42.6,94.2c0,1.4-.5,2.4-2.3,2.4s-1.8-.5-1.8-1.4.8-1.5,2-1.6l2.1-.3v.9Z"/>
    <path class="st1" d="M51.1,88.6v-1.4h-2.9v11.5h3v-4.3c0-2.6.2-4.6,2.6-4.6s1,0,1,0v-2.9s-.2,0-.8,0c-1.5,0-2.3.5-3,1.7Z"/>
    <polygon class="st1" points="65.9 87.1 62.1 87.1 58.4 91.4 58.4 83 55.4 83 55.4 98.6 58.4 98.6 58.4 95 59.7 93.6 62.5 98.6 66 98.6 61.9 91.5 65.9 87.1"/>
    <path class="st1" d="M72.2,86.8c-4.8,0-5.6,2.6-5.6,5.9,0,4.9,1.9,6.2,5.5,6.2s4.9-.9,5.2-3.6h-3.1c-.3.9-1,1.1-2.2,1.1-1.7,0-2.3-.5-2.4-2.7h7.8c0-5-1.2-6.9-5.2-6.9ZM69.7,91.8c.1-1.9.6-2.5,2.3-2.5s2.2.4,2.4,2.5h-4.7Z"/>
    <path class="st1" d="M84.6,94.7c-.3.9.5,2-2,1.9-.9,0-1.2-.2-1.2-.7v-7.2h4.9v-2.2h-4.8v-2.9h-2.9v3h-1.3v2.1h1.1v6.7c0,3,2.1,3.5,4.6,3.5s4.4-1.6,4.7-4.3h-3.2Z"/>
  </g>
</svg>