<?xml version="1.0" encoding="UTF-8"?>
<svg id="Section_3" xmlns="http://www.w3.org/2000/svg" version="1.1" xmlns:xlink="http://www.w3.org/1999/xlink" viewBox="0 0 245.8 139.5">
  <!-- Generator: Adobe Illustrator 29.0.0, SVG Export Plug-In . SVG Version: 2.1.0 Build 186)  -->
  <defs>
    <style>
      .st0 {
        clip-path: url(#clippath-7);
      }

      .st1 {
        clip-path: url(#clippath-9);
      }

      .st2 {
        clip-path: url(#clippath-10);
      }

      .st3 {
        fill: #5c6670;
        fill-rule: evenodd;
      }

      .st4 {
        fill: #fff;
      }

      .st5 {
        clip-path: url(#clippath-11);
      }

      .st6 {
        fill: none;
      }

      .st7 {
        clip-path: url(#clippath-8);
      }
    </style>
    <clipPath id="clippath-7">
      <rect class="st6" x="-280.8" y="-4890.4" width="1920" height="5687"/>
    </clipPath>
    <clipPath id="clippath-8">
      <rect class="st6" x="-280.8" y="-4890.4" width="1920" height="5687"/>
    </clipPath>
    <clipPath id="clippath-9">
      <rect class="st6" x="-280.8" y="-4890.4" width="1920" height="5687"/>
    </clipPath>
    <clipPath id="clippath-10">
      <rect class="st6" x="-280.8" y="-4890.4" width="1920" height="5687"/>
    </clipPath>
    <clipPath id="clippath-11">
      <rect class="st6" x="-280.8" y="-4890.4" width="1920" height="5687"/>
    </clipPath>
  </defs>
  <g class="st0">
    <path class="st3" d="M3.2,24.9c0-4.1,3.3-7.4,7.4-7.4h223.4c4.1,0,7.4,3.3,7.4,7.4v95c0,4.1-3.3,7.4-7.4,7.4H10.6c-4.1,0-7.4-3.3-7.4-7.4V24.9Z"/>
  </g>
  <g class="st7">
    <rect class="st4" x="3.2" y="28.3" width="238.3" height="88.2"/>
  </g>
  <g class="st1">
    <path class="st3" d="M205.1,51.2c-10.9,0-19.8,8.9-19.8,19.8s8.9,19.8,19.8,19.8,19.8-8.9,19.8-19.8-8.9-19.8-19.8-19.8"/>
  </g>
  <g class="st2">
    <path class="st3" d="M42,51.2c-10.9,0-19.8,8.9-19.8,19.8s8.9,19.8,19.8,19.8,19.8-8.9,19.8-19.8-8.9-19.8-19.8-19.8"/>
  </g>
  <g class="st5">
    <path class="st3" d="M203.6,33.8c-18.3-.4-26.9,11.3-39.4,25.8l-11.8,13.7,18.7,22.4c4.4,6.9-4,13.7-9.3,7.4l-17.3-20.6-16.8,19.5c-5.4,6.2-13.7-.7-9.2-7.5l18.3-21.2-12-14.3,7.7-9.5,12.2,14.6,10.5-12.2c5.1-6,10.4-13.9,17.2-18H3.2v77.2h39.5c18.3,0,26.6-11,38.8-25.7l11.5-13.9-19.2-21.9c-4.6-6.8,3.7-13.8,9.1-7.6l17.7,20.2,16.4-19.9c5.2-6.3,13.8.4,9.4,7.3l-17.8,21.6,12.3,14-7.7,9.2-12.2-13.8-10.2,12.4c-5,6.1-10.1,13.9-16.8,18.1h167.5V33.9h-37.9ZM73.3,71c0,17.2-14,31.3-31.3,31.3s-31.3-14-31.3-31.3,14-31.3,31.3-31.3,31.3,14,31.3,31.3M205.1,102.2c-17.2,0-31.3-14-31.3-31.3s14-31.3,31.3-31.3,31.3,14,31.3,31.3-14.1,31.3-31.3,31.3"/>
  </g>
</svg>