<?xml version="1.0" encoding="UTF-8"?>
<svg id="Section_3" xmlns="http://www.w3.org/2000/svg" version="1.1" viewBox="0 0 301.7 139.5">
  <!-- Generator: Adobe Illustrator 29.0.0, SVG Export Plug-In . SVG Version: 2.1.0 Build 186)  -->
  <defs>
    <style>
      .st0 {
        fill: #5c6670;
      }

      .st1 {
        fill: #6e7982;
      }

      .st2 {
        fill: #fefefe;
      }
    </style>
  </defs>
  <g>
    <path class="st2" d="M249.5,5.2h-22.4v91.5h22.4v-31.3l.5.3,23.5,31h28.2l-30.9-37.5,29.7-36.1h-27.8l-.2.4-22.5,29.8h-.5c0,.1,0-48.3,0-48.3ZM144.6,96.7v-40.6c-.8-20.5-12.6-33.8-33.5-34.8-22.9-1.1-38.1,11.3-39.2,34.5v41s22.4,0,22.4,0v-39.6c.5-10,5.4-15.7,15.8-14.9,8.3.6,12.1,7.5,12.1,15.1v39.4s22.4,0,22.4,0ZM225.2,96.7v-39.2c-1.1-20.6-15.6-35.1-36.3-36.2s-47,20.2-41.8,48.1c4.8,25.6,32.7,36.3,55.5,26.4.5-.2,1.3-.8,1.7-.9s.2,0,.3.3c0,.5,0,1.1,0,1.7h20.6ZM51.6,21.5c-3.3.3-6.9,2.3-9.1,4.7C29.6,42.7,16.5,59,3.9,75.8c-8.1,16.9,13.2,31.1,25.7,16.3,12.5-14.8,23.7-31.3,36.1-46.2,8-11.1-.3-25.8-14.1-24.4ZM30.9,97.8c5,.2,10,.5,14.9.4,7.5-.2,17-.6,21.7-7.5s3.4-10.2,1.8-14.5-10.1-7.8-15.7-7.3l-22.7,28.9Z"/>
    <path class="st0" d="M1,35.9c.7-7.5,6.8-12.4,13.9-13.6s15.2-1,21.8-.7,2.3.3,3.4.3l-22.8,29c-.7.3-4-.1-4.9-.3-4.2-.7-9-2.7-10.7-6.9s-.4-1.7-.8-2.4c.1-1.7-.2-3.6,0-5.2Z"/>
    <path class="st0" d="M225.2,96.7h-20.6c0-.5,0-1.1,0-1.7s0-.4-.3-.3-1.2.7-1.7.9c-22.7,9.9-50.7-.8-55.5-26.4-5.2-27.9,13.4-49.6,41.8-48.1s35.1,15.6,36.3,36.2v39.2ZM183.9,42.8c-11.9,1.1-19.1,14-14.3,24.8s21,14.1,29.4,4.5.9-30.7-15.2-29.3Z"/>
    <polygon class="st0" points="249.5 5.2 249.5 53.6 250 53.5 272.5 23.6 272.7 23.2 300.5 23.2 270.8 59.3 301.7 96.7 273.5 96.7 250 65.7 249.5 65.5 249.5 96.7 227.1 96.7 227.1 5.2 249.5 5.2"/>
    <path class="st0" d="M144.6,96.7h-22.4v-39.4c0-7.6-3.9-14.5-12.1-15.1-10.4-.7-15.3,5-15.8,14.9v39.6s-22.4,0-22.4,0v-41c1.1-23.2,16.3-35.6,39.2-34.5,20.9,1,32.6,14.4,33.5,34.8v40.6Z"/>
    <path class="st1" d="M51.6,21.5c13.8-1.4,22.1,13.3,14.1,24.4-12.4,14.9-23.6,31.4-36.1,46.2-12.5,14.8-33.8.7-25.7-16.3,12.6-16.8,25.7-33.1,38.6-49.7,2.2-2.4,5.9-4.3,9.1-4.7Z"/>
    <path class="st0" d="M30.9,97.8l22.7-28.9c5.7-.4,13.5,1.5,15.7,7.3s.8,10.7-1.8,14.5c-4.7,6.9-14.2,7.2-21.7,7.5s-10-.2-14.9-.4Z"/>
  </g>
  <path class="st0" d="M2.7,134.4v-18.7h4.5l4.9,7.7.4-.3,4.7-7.4h4.5v18.7h-4.2v-11.9c-.8.8-4.7,7.6-5.2,7.7s-4.4-6.8-5.3-7.5v11.7H2.7Z"/>
  <path class="st0" d="M118.6,134.4v-18.7h4.7c1.5,2.7,3.1,5.4,4.9,7.9,1.4-2.7,3.2-5.3,4.8-7.9h4.5v18.7h-4.2v-11.9c-.8.8-4.7,7.6-5.2,7.7s-4.5-6.8-5.3-7.5v11.7h-4.2Z"/>
  <polygon class="st0" points="61.8 134.4 61.8 115.8 65.5 115.8 74.4 127.1 74.4 115.8 78.6 115.8 78.6 134.4 74.7 134.4 66.1 122.9 66 134.4 61.8 134.4"/>
  <path class="st0" d="M189.7,134.4v-18.7h10c.2,0,1.6.4,1.9.5,5.3,1.9,5,9.7,0,11.6l4.2,6.5h-4.7l-3.8-5.9h-3.3v5.9h-4.2ZM193.9,124.8h5.2c.7,0,1.9-1,2.1-1.8.4-1.4-.5-3.5-2.1-3.5h-5.2v5.2Z"/>
  <polygon class="st0" points="255.4 134.4 255.4 115.8 269.6 115.8 269.6 119.4 259.6 119.4 259.6 123.3 268.3 123.3 268.3 126.9 259.6 126.9 259.6 130.8 269.7 130.8 269.7 134.4 255.4 134.4"/>
  <path class="st0" d="M222.5,134.4v-18.7h4.2v8c1.1-.7,7-8,7.6-8h4.8l-7.3,8.1,7.5,10.6h-4.9l-5.5-7.7c-.2,0-2.1,1.8-2.1,2-.4,1.3.2,4.2,0,5.6h-4.2Z"/>
  <path class="st0" d="M153.7,134.4l7.9-18.6c.5-.6,2.9-.1,3.7-.3l8.1,18.9h-4.4c-.2-.6-1.3-3.8-1.7-4-2.3.2-5.1-.3-7.3,0s-.4,0-.6.3c-.5.8-1.1,2.8-1.4,3.7h-4.4ZM165.9,126.8l-2.4-5.9c-.7,1.6-1.8,3.6-2.3,5.2s-.1.5,0,.7h4.7Z"/>
  <polygon class="st0" points="291 134.4 291 119.6 285.5 119.6 285.5 115.8 301 115.8 301 119.6 295.2 119.6 295.2 134.4 291 134.4"/>
  <rect class="st0" x="96.4" y="115.8" width="4.4" height="18.7"/>
  <rect class="st0" x="39.6" y="115.8" width="4.2" height="18.7"/>
</svg>